<?xml version="1.0" encoding="utf-8"?>
<!-- Generator: Adobe Illustrator 15.1.0, SVG Export Plug-In . SVG Version: 6.00 Build 0)  -->
<!DOCTYPE svg PUBLIC "-//W3C//DTD SVG 1.1//EN" "http://www.w3.org/Graphics/SVG/1.1/DTD/svg11.dtd">
<svg version="1.1" id="Layer_1" xmlns="http://www.w3.org/2000/svg" xmlns:xlink="http://www.w3.org/1999/xlink" x="0px" y="0px"
	 width="406px" height="377px" viewBox="0 0 406 377" enable-background="new 0 0 406 377" xml:space="preserve">
<polygon fill="#D9D9D9" points="405.25,0.5 405.625,182.059 26.5,224 26.5,0 "/>
<rect x="0.5" y="0.5" fill="#999999" width="26" height="224"/>
<path fill="#F2F2F2" d="M1.08,233.008L1,353.52c0,0-3.86,10.146,37.509,5.299C95.388,352.15,405.5,298.666,405.5,298.666V182.059
	L32.167,223.8"/>
<polygon fill="#BFBFBF" points="1,219 27.25,225.8 1.08,233.008 "/>
<polygon fill="#B3B3B3" points="74.5,280 64,270 46.333,276.666 54.796,285 "/>
<path fill="#CCCCCC" d="M406.5,309.852c0,0-243.074,40.457-330.411,55.229c-87.336,14.77-76.589,0-76.589,0V353.52
	c0,0-10.747,14.771,76.589,0c87.337-14.77,330.165-55.227,330.165-55.227L406.5,309.852z"/>
<rect x="66.5" y="37.5" fill="#808080" width="87" height="26"/>
<linearGradient id="SVGID_1_" gradientUnits="userSpaceOnUse" x1="-160.5" y1="306.5" x2="-146.5" y2="306.5" gradientTransform="matrix(1 0 0 -1 213 449)">
	<stop  offset="0" style="stop-color:#E6E6E6"/>
	<stop  offset="1" style="stop-color:#A6A6A6"/>
</linearGradient>
<rect x="52.5" y="-0.5" fill="url(#SVGID_1_)" width="14" height="286"/>
<polygon fill="#999999" points="74.583,280.49 82.337,314.609 51.825,320.812 55.279,283.018 "/>
<polygon fill="#666666" points="55,282.666 46.333,276.666 37,310.666 51.51,322.544 "/>
<polygon fill="#666666" points="52.5,36.069 -0.5,23.802 -0.5,48.128 52.5,61.501 "/>
<g>
	<path fill="#7F5D25" stroke="#000000" stroke-width="0.5" stroke-miterlimit="10" d="M361.912,227.927c0,1.381-1.119,2.5-2.5,2.5
		l0,0c-1.381,0-2.5-1.119-2.5-2.5v-14c0-1.381,1.119-2.5,2.5-2.5l0,0c1.381,0,2.5,1.119,2.5,2.5V227.927z"/>
	<path fill="#7F5D25" stroke="#000000" stroke-width="0.5" stroke-miterlimit="10" d="M378.912,227.927c0,1.381-1.119,2.5-2.5,2.5
		l0,0c-1.381,0-2.5-1.119-2.5-2.5v-14c0-1.381,1.119-2.5,2.5-2.5l0,0c1.381,0,2.5,1.119,2.5,2.5V227.927z"/>
	<path fill="#7F5D25" stroke="#000000" stroke-width="0.5" stroke-miterlimit="10" d="M358.618,147.662
		c0,0,4.827,18.15-0.616,18.315c-4.248,0.129-6.045-15.148-6.045-15.148L358.618,147.662"/>
	<path fill="#7F5D25" stroke="#000000" stroke-width="0.5" stroke-miterlimit="10" d="M377.693,146.014
		c0,0-0.944,22.848,3.679,21.119c3.606-1.348,2.488-19.78,2.488-19.78L377.693,146.014"/>
	<path fill="#1A1A1A" stroke="#000000" stroke-miterlimit="10" d="M357.375,227.261c0,0,1.967-0.426,4.396-0.061
		c2.43,0.361,2.141-0.857,2.141,1.57s0,9.354,0,9.354s-2.492,0.752-6.721,1.943c-16.805,4.734-12.405-5.443-12.163-8.48
		c0.243-3.037,10.579-0.51,11.308-2.332C357.064,227.435,358.123,230.296,357.375,227.261z"/>
	<path fill="#1A1A1A" stroke="#000000" stroke-miterlimit="10" d="M381.445,227.261c0,0-2.465-0.426-4.895-0.061
		c-2.431,0.361-2.64-0.857-2.64,1.57s0,9.354,0,9.354s2.99,0.752,7.218,1.943c16.807,4.734,12.655-5.443,12.412-8.48
		s-10.454-0.51-11.184-2.332C381.63,227.435,380.696,230.296,381.445,227.261z"/>
	
		<rect x="355.912" y="179.426" fill="#7F5D25" stroke="#000000" stroke-width="0.5" stroke-miterlimit="10" width="22" height="17"/>
	<rect x="355.412" y="183.927" fill="#C1272D" width="17" height="4"/>
	<path fill="#D7DED1" d="M354.719,186.538c0,0-6.512,19.455-5.162,29.123c0.918,6.578,20.766,0,20.766,0l-1.069-17.439l1.069,17.439
		c0,0,19.888,5.812,18.052-1.988s-9.791-30.746-9.791-30.746L354.719,186.538"/>
	
		<line fill="none" stroke="#999999" stroke-width="0.5" stroke-miterlimit="10" x1="369.404" y1="215.202" x2="368.489" y2="200.296"/>
	<path fill="#7CA847" d="M370.919,132.752c0,0,4.569,0.589,7.614,4.909c3.045,4.319,5.261,9.817,5.261,9.817l-5.179,7.352
		l-1.467-2.835c0,0,1.108,8.64,2.215,17.279c1.107,8.639,0.555,12.496,0.555,12.496s-7.197,0.393-13.428,0
		s-11.768,2.258-10.938-3.976c0.829-6.234,1.938-23.442,1.938-23.442l-1.605,2.749l-4.033-6.271c0,0,2.18-11.449,5.502-14.591
		c3.321-3.142,7.891-3.486,7.891-3.486s-0.971,4.32,2.768,4.713C371.751,137.859,370.919,132.752,370.919,132.752z"/>
	<path fill="#7F5D25" stroke="#000000" stroke-width="0.5" stroke-miterlimit="10" d="M379.877,160.525
		c0,0-13.318,24.208-8.51,25.22c4.249,0.893,11.077-20.149,11.077-20.149"/>
	<path fill="#7F5D25" stroke="#000000" stroke-width="0.5" stroke-miterlimit="10" d="M385.58,112.752
		c0,9.034-7.091,16.657-13.951,19.06c-0.73,0.256-0.734,2.508-0.734,4.688c0,1.76-1.725,2.181-2.409,2.181
		c-0.572,0-2.853,0.333-3.326-1.263c-0.692-2.332-1.017-5.319-1.745-5.59c-6.434-2.385-13.396-10.022-13.396-19.075
		c0-10.962,7.961-19.848,17.78-19.848C377.619,92.904,385.58,101.791,385.58,112.752z"/>
	<path fill="none" stroke="#000000" stroke-width="0.5" stroke-miterlimit="10" d="M365.58,122.809
		c1.184-0.417,2.842-0.153,4.131-0.153"/>
	<path fill="#333333" stroke="#000000" stroke-miterlimit="10" d="M363.438,112.426h-5.506c0,0-0.002,2.53,2.752,2.53
		S363.438,112.426,363.438,112.426z"/>
	<path fill="#333333" stroke="#000000" stroke-miterlimit="10" d="M376.287,112.426h-5.507c0,0-0.001,2.53,2.753,2.53
		S376.287,112.426,376.287,112.426z"/>
	<line fill="none" stroke="#000000" stroke-miterlimit="10" x1="355.412" y1="111.426" x2="364.412" y2="111.426"/>
	<line fill="none" stroke="#000000" stroke-miterlimit="10" x1="367.412" y1="111.426" x2="378.412" y2="111.426"/>
	<path d="M376.311,135.566c0,0-1.551,3.96-0.551,9.71s1.651,11.344,1.651,11.344v4.306c0,0-3.632-9.061-3.632-14.912
		c0-7.306-0.868-12.706-0.868-12.706L376.311,135.566z"/>
	<path d="M356.912,155.343c0,0,2.5-9.417,2.5-13.167s-1.25-6.625-1.25-6.625l2.43-1.482c0,0,1.442,7.551,1.094,11.637
		c-0.772,9.025-4.537,13.702-4.537,13.702L356.912,155.343z"/>
</g>
<g>
	<path fill="#BD912D" stroke="#000000" stroke-width="0.5" stroke-miterlimit="10" d="M437.399,228.049c0,1.381-1.119,2.5-2.5,2.5
		l0,0c-1.381,0-2.5-1.119-2.5-2.5v-14c0-1.381,1.119-2.5,2.5-2.5l0,0c1.381,0,2.5,1.119,2.5,2.5V228.049z"/>
	<path fill="#BD912D" stroke="#000000" stroke-width="0.5" stroke-miterlimit="10" d="M454.399,228.049c0,1.381-1.119,2.5-2.5,2.5
		l0,0c-1.381,0-2.5-1.119-2.5-2.5v-14c0-1.381,1.119-2.5,2.5-2.5l0,0c1.381,0,2.5,1.119,2.5,2.5V228.049z"/>
	<path fill="#BD912D" stroke="#000000" stroke-width="0.5" stroke-miterlimit="10" d="M434.105,147.784
		c0,0,4.827,18.15-0.616,18.315c-4.248,0.13-6.045-15.148-6.045-15.148L434.105,147.784"/>
	<path fill="#BD912D" stroke="#000000" stroke-width="0.5" stroke-miterlimit="10" d="M453.181,146.136
		c0,0-0.944,22.849,3.679,21.119c3.606-1.349,2.488-19.78,2.488-19.78L453.181,146.136"/>
	<path fill="#1A1A1A" stroke="#000000" stroke-miterlimit="10" d="M432.862,227.383c0,0,1.967-0.426,4.396-0.061
		c2.43,0.361,2.141-0.857,2.141,1.57s0,9.354,0,9.354s-2.492,0.752-6.721,1.943c-16.805,4.734-12.405-5.443-12.163-8.48
		c0.243-3.037,10.579-0.51,11.308-2.332C432.552,227.557,433.61,230.418,432.862,227.383z"/>
	<path fill="#1A1A1A" stroke="#000000" stroke-miterlimit="10" d="M456.933,227.383c0,0-2.465-0.426-4.895-0.061
		c-2.431,0.361-2.64-0.857-2.64,1.57s0,9.354,0,9.354s2.99,0.752,7.218,1.943c16.807,4.734,12.655-5.443,12.412-8.48
		s-10.454-0.51-11.184-2.332C457.117,227.557,456.184,230.418,456.933,227.383z"/>
	
		<rect x="431.399" y="179.548" fill="#BD912D" stroke="#000000" stroke-width="0.5" stroke-miterlimit="10" width="22" height="17"/>
	<rect x="430.899" y="184.048" fill="#C1272D" width="17" height="4"/>
	<path fill="#D7DED1" d="M430.206,186.661c0,0-6.512,19.455-5.162,29.123c0.918,6.578,20.766,0,20.766,0l-1.069-17.439l1.069,17.439
		c0,0,19.888,5.812,18.052-1.988s-9.791-30.747-9.791-30.747L430.206,186.661"/>
	
		<line fill="none" stroke="#999999" stroke-width="0.5" stroke-miterlimit="10" x1="444.892" y1="215.324" x2="443.977" y2="200.418"/>
	<path fill="#7CA847" d="M446.406,132.875c0,0,4.569,0.589,7.614,4.909c3.045,4.319,5.261,9.817,5.261,9.817l-5.179,7.352
		l-1.467-2.835c0,0,1.108,8.64,2.215,17.28c1.107,8.639,0.555,12.495,0.555,12.495s-7.197,0.392-13.428,0
		c-6.23-0.393-11.768,2.259-10.938-3.976c0.829-6.234,1.938-23.442,1.938-23.442l-1.605,2.749l-4.033-6.271
		c0,0,2.18-11.449,5.502-14.591c3.321-3.142,7.891-3.486,7.891-3.486s-0.971,4.32,2.768,4.713
		C447.238,137.981,446.406,132.875,446.406,132.875z"/>
	<path fill="#BD912D" stroke="#000000" stroke-width="0.5" stroke-miterlimit="10" d="M455.364,160.647
		c0,0-13.318,24.207-8.51,25.219c4.249,0.895,11.077-20.147,11.077-20.147"/>
	<path fill="#BD912D" stroke="#000000" stroke-width="0.5" stroke-miterlimit="10" d="M461.067,112.875
		c0,9.034-7.091,16.657-13.951,19.06c-0.73,0.256-0.734,2.508-0.734,4.688c0,1.76-1.725,2.181-2.409,2.181
		c-0.572,0-2.853,0.333-3.326-1.263c-0.692-2.332-1.017-5.319-1.745-5.59c-6.434-2.385-13.396-10.022-13.396-19.075
		c0-10.962,7.961-19.848,17.78-19.848C453.106,93.026,461.067,101.913,461.067,112.875z"/>
	<path fill="none" stroke="#000000" stroke-width="0.5" stroke-miterlimit="10" d="M441.067,122.931
		c1.184-0.417,2.842-0.153,4.131-0.153"/>
	<path fill="#333333" stroke="#000000" stroke-miterlimit="10" d="M438.925,112.548h-5.506c0,0-0.002,2.53,2.752,2.53
		S438.925,112.548,438.925,112.548z"/>
	<path fill="#333333" stroke="#000000" stroke-miterlimit="10" d="M451.774,112.548h-5.507c0,0-0.001,2.53,2.753,2.53
		S451.774,112.548,451.774,112.548z"/>
	<line fill="none" stroke="#000000" stroke-miterlimit="10" x1="430.899" y1="111.548" x2="439.899" y2="111.548"/>
	<line fill="none" stroke="#000000" stroke-miterlimit="10" x1="442.899" y1="111.548" x2="453.899" y2="111.548"/>
	<path d="M451.798,135.688c0,0-1.551,3.96-0.551,9.71s1.651,11.344,1.651,11.344v4.306c0,0-3.632-9.061-3.632-14.912
		c0-7.306-0.868-12.706-0.868-12.706L451.798,135.688z"/>
	<path d="M432.399,155.465c0,0,2.5-9.417,2.5-13.167s-1.25-6.625-1.25-6.625l2.43-1.482c0,0,1.442,7.551,1.094,11.637
		c-0.772,9.025-4.537,13.701-4.537,13.701L432.399,155.465z"/>
</g>
</svg>
