<?xml version="1.0" encoding="utf-8"?>
<!-- Generator: Adobe Illustrator 16.0.0, SVG Export Plug-In . SVG Version: 6.00 Build 0)  -->
<!DOCTYPE svg PUBLIC "-//W3C//DTD SVG 1.0//EN" "http://www.w3.org/TR/2001/REC-SVG-20010904/DTD/svg10.dtd">
<svg version="1.0" id="Layer_1" xmlns="http://www.w3.org/2000/svg" xmlns:xlink="http://www.w3.org/1999/xlink" x="0px" y="0px"
	 width="406px" height="377px" viewBox="0 0 406 377" enable-background="new 0 0 406 377" xml:space="preserve">
<polygon fill="#D9D9D9" points="406.304,0.348 406.651,126.807 26.975,156.021 23.141,0 "/>
<rect x="0.5" y="0.5" fill="#999999" width="18" height="156"/>
<path fill="#F2F2F2" d="M0.616,162.294l-0.056,83.939c0,0-2.837,7.067,25.941,3.69c39.569-4.645,378.998-41.896,378.998-41.896
	v-81.22L22.09,155.881"/>
<polygon fill="#BFBFBF" points="0.562,152.538 18.845,157.274 0.617,162.294 "/>
<polygon fill="#B3B3B3" points="32.253,206.865 24.939,199.9 12.635,204.545 18.529,210.349 "/>
<path fill="#CCCCCC" d="M406,215.818c0,0-292.594,28.179-353.276,38.467c-60.682,10.287-53.224,0-53.224,0v-8.052
	c0,0-7.458,10.287,53.224,0c60.683-10.288,353.102-38.467,353.102-38.467L406,215.818z"/>
<rect x="26.5" y="28.5" fill="#808080" width="64" height="19"/>
<linearGradient id="SVGID_1_" gradientUnits="userSpaceOnUse" x1="16.5" y1="105.5" x2="26.5" y2="105.5">
	<stop  offset="0" style="stop-color:#E6E6E6"/>
	<stop  offset="1" style="stop-color:#A6A6A6"/>
</linearGradient>
<rect x="16.5" y="0.5" fill="url(#SVGID_1_)" width="10" height="210"/>
<polygon fill="#999999" points="32.253,206.865 37.709,231.94 16.24,236.499 18.671,208.724 "/>
<polygon fill="#666666" points="18.671,208.724 12.635,204.545 6.134,228.227 16.24,236.499 "/>
<path fill="#666666" stroke="#000000" stroke-miterlimit="10" d="M213,189c0,1.104-0.896,2-2,2l0,0c-1.104,0-2-0.896-2-2v-11
	c0-1.104,0.896-2,2-2l0,0c1.104,0,2,0.896,2,2V189z"/>
<path fill="#666666" stroke="#000000" stroke-miterlimit="10" d="M227,189c0,1.104-0.896,2-2,2l0,0c-1.104,0-2-0.896-2-2v-11
	c0-1.104,0.896-2,2-2l0,0c1.104,0,2,0.896,2,2V189z"/>
<path fill="#666666" stroke="#000000" stroke-miterlimit="10" d="M210.515,126.809c0,0,3.764,14.151-0.48,14.279
	c-3.312,0.101-4.714-11.811-4.714-11.811L210.515,126.809"/>
<path fill="#666666" stroke="#000000" stroke-miterlimit="10" d="M225.386,125.524c0,0-0.736,17.813,2.868,16.465
	c2.812-1.051,1.939-15.421,1.939-15.421L225.386,125.524"/>
<path fill="#1A1A1A" stroke="#000000" stroke-miterlimit="10" d="M209.545,188.867c0,0,1.213-0.332,3.107-0.047
	s1.348-0.668,1.348,1.226c0,1.894,0,7.291,0,7.291s-1.623,0.586-4.918,1.516c-13.103,3.691-9.513-4.244-9.323-6.611
	s8.328-0.396,8.896-1.816C209.224,189.003,210.128,191.234,209.545,188.867z"/>
<path fill="#1A1A1A" stroke="#000000" stroke-miterlimit="10" d="M228.311,188.867c0,0-1.641-0.332-3.534-0.047
	c-1.895,0.284-1.776-0.668-1.776,1.226c0,1.894,0,7.291,0,7.291s2.05,0.586,5.347,1.516c13.103,3.691,9.726-4.244,9.536-6.611
	s-8.222-0.396-8.79-1.816C228.524,189.003,227.728,191.234,228.311,188.867z"/>
<rect x="209" y="151" fill="#666666" stroke="#000000" stroke-miterlimit="10" width="16" height="14"/>
<rect x="207.5" y="155.5" fill="#C1272D" width="13" height="3"/>
<path fill="#D7DED1" d="M207.474,157.118c0,0-5.077,15.167-4.024,22.706c0.716,5.127,16.189,0,16.189,0l-0.834-13.596l0.834,13.596
	c0,0,15.505,4.531,14.074-1.551c-1.432-6.083-7.635-23.972-7.635-23.972L207.474,157.118"/>
<line fill="none" stroke="#999999" stroke-miterlimit="10" x1="218.923" y1="179.466" x2="218.21" y2="167.845"/>
<path fill="#7CA847" d="M220.104,115.185c0,0,3.562,0.459,5.937,3.827s4.102,7.654,4.102,7.654l-4.038,5.731l-1.143-2.211
	c0,0,0.863,6.736,1.727,13.471c0.863,6.736,0.433,9.742,0.433,9.742s-5.612,0.306-10.47,0s-9.175,1.76-8.527-3.1
	c0.647-4.86,1.512-18.276,1.512-18.276l-1.252,2.143l-3.146-4.889c0,0,1.699-8.927,4.29-11.376c2.59-2.449,6.151-2.717,6.151-2.717
	s-0.756,3.368,2.158,3.674S220.104,115.185,220.104,115.185z"/>
<path fill="#666666" stroke="#000000" stroke-miterlimit="10" d="M226.021,136.449c0,0-0.395,21.538,3.29,20.489
	c3.257-0.927,0.323-17.923,0.323-17.923"/>
<path fill="#666666" stroke="#000000" stroke-miterlimit="10" d="M231.535,99.591c0,7.043-5.528,12.987-10.878,14.86
	c-0.569,0.2-0.571,1.956-0.571,3.655c0,1.372-1.346,1.7-1.88,1.7c-0.446,0-2.223,0.26-2.593-0.984
	c-0.54-1.818-0.792-4.147-1.36-4.358c-5.016-1.859-10.446-7.813-10.446-14.872c0-8.546,6.207-15.474,13.864-15.474
	S231.535,91.045,231.535,99.591z"/>
<path fill="none" stroke="#000000" stroke-miterlimit="10" d="M215.942,107.433c0.922-0.325,2.215-0.119,3.22-0.119"/>
<path fill="#333333" stroke="#000000" stroke-miterlimit="10" d="M214.271,99h-4.293c0,0,0,1.973,2.146,1.973S214.271,99,214.271,99
	z"/>
<path fill="#333333" stroke="#000000" stroke-miterlimit="10" d="M224.29,99h-4.294c0,0,0,1.973,2.146,1.973
	C224.29,100.973,224.29,99,224.29,99z"/>
<line fill="#333333" stroke="#000000" stroke-miterlimit="10" x1="207.5" y1="98" x2="215.5" y2="98"/>
<line fill="#333333" stroke="#000000" stroke-miterlimit="10" x1="217.5" y1="98" x2="225.5" y2="98"/>
<path opacity="0.8" fill="#FFFFFF" stroke="#000000" stroke-miterlimit="10" d="M178.678,226.756
	c0,37.133-29.147,68.471-57.346,78.346c-3.009,1.055-3.016,10.311-3.016,19.271c0,7.231-7.092,8.959-9.913,8.959
	c-2.349,0-11.718,1.371-13.667-5.188c-2.852-9.586-4.176-21.865-7.177-22.979c-26.441-9.803-55.071-41.196-55.071-78.41
	c0-45.057,32.727-81.583,73.095-81.583C145.953,145.173,178.678,181.699,178.678,226.756z"/>
<path fill="#1A1A1A" d="M30.402,233.795c0,0,3.236,24.931,22.468,29.795c19.23,4.865,58.761,8.756,80.13,4.865
	c21.364-3.891,33.121-16.539,39.527-21.404c6.408-4.867,6.408-17.439,6.408-17.439L30.402,233.795z"/>
<path fill="#122E59" d="M9.634,195.155c-0.035-23.574,39.604-61.041,50.656-69.16c11.83-8.69,27.134-21.558,44.925-21.977
	c34.641-0.816,84.409,62.272,89.749,68.111c5.341,5.838,11.755,21.406,0,36.974s-28.636,48.652-94.98,48.652
	C33.635,257.756,9.658,212.171,9.634,195.155z"/>
<path fill="#122E59" d="M122.869,318.5c0,0,18.865,1.836,32.697,15.669c13.833,13.832,24.998,42.408,24.998,42.408l-150.434,0.071
	c0,0,13.042-38.99,28.133-49.051c15.09-10.061,40.714-9.098,40.714-9.098H122.869z"/>
</svg>
