<?xml version="1.0" encoding="utf-8"?>
<!-- Generator: Adobe Illustrator 15.1.0, SVG Export Plug-In . SVG Version: 6.00 Build 0)  -->
<!DOCTYPE svg PUBLIC "-//W3C//DTD SVG 1.1//EN" "http://www.w3.org/Graphics/SVG/1.1/DTD/svg11.dtd">
<svg version="1.1" id="Layer_1" xmlns="http://www.w3.org/2000/svg" xmlns:xlink="http://www.w3.org/1999/xlink" x="0px" y="0px"
	 width="406px" height="377px" viewBox="0 0 406 377" enable-background="new 0 0 406 377" xml:space="preserve">
<path display="none" fill="#7F5D25" stroke="#000000" stroke-width="0.5" stroke-miterlimit="10" d="M76.031,288.803
	c0,0,18.124,64.803-1.373,65.64c-15.21,0.654-22.345-53.997-22.345-53.997L76.031,288.803"/>
<path fill="#BD912D" stroke="#000000" stroke-width="0.5" stroke-miterlimit="10" d="M63.391,290.827
	c0,0,13.171,59.577,10.933,86.188c-3.513,0.982-7.099,1.532-15.173,0.979c-6.959-25.678-8.729-73.129-8.729-73.129"/>
<path fill="#BD912D" stroke="#000000" stroke-width="0.5" stroke-miterlimit="10" d="M156.391,280.077
	c0,0,15.556,77.421,9.982,98.421c-5.562,0-5.562,0-10.131,0c-10.386-19-12.82-84.258-12.82-84.258"/>
<path display="none" fill="#7F5D25" stroke="#000000" stroke-width="0.5" stroke-miterlimit="10" d="M143.468,286.881
	c0,0-15.609,54.677,1.379,54.521c13.256-0.119,19.321-45.871,19.321-45.871L143.468,286.881"/>
<path fill="#7CA847" d="M118.494,239.471c0,0,16.369,2.11,27.282,17.588c10.909,15.478,18.847,35.176,18.847,35.176l-23.485,26.34
	l-0.324-10.161c0,0,3.972,38.621,7.937,69.572c-37.845,0-51.26-0.436-82.336-0.436c2.976-22.337,2.325-60.695,2.325-60.695
	l0.823,9.85l-19.388-22.468c0,0,7.812-41.021,19.716-52.278c11.904-11.257,28.27-12.485,28.27-12.485s-3.473,15.477,9.918,16.885
	C121.471,257.762,118.494,239.471,118.494,239.471z"/>
<path fill="#BD912D" stroke="#000000" stroke-width="0.5" stroke-miterlimit="10" d="M171.022,167.811
	c0,32.367-25.405,59.682-49.985,68.291c-2.622,0.918-2.628,8.986-2.628,16.795c0,6.307-6.182,7.812-8.64,7.812
	c-2.048,0-10.215,1.194-11.913-4.521c-2.486-8.356-3.64-19.061-6.255-20.028c-23.048-8.548-48.004-35.909-48.004-68.348
	c0-39.273,28.527-71.109,63.713-71.109C142.498,96.701,171.022,128.537,171.022,167.811z"/>
<path fill="none" stroke="#000000" stroke-miterlimit="10" d="M99.365,203.846c4.238-1.492,10.181-0.547,14.799-0.547"/>
<path fill="#333333" stroke="#000000" stroke-miterlimit="10" d="M91.691,163.5H71.96c0,0,0,9.065,9.866,9.065
	C91.692,172.565,91.691,163.5,91.691,163.5z"/>
<path fill="#333333" stroke="#000000" stroke-miterlimit="10" d="M137.728,163.5h-19.729c0,0-0.001,9.065,9.865,9.065
	C137.73,172.565,137.728,163.5,137.728,163.5z"/>
<line fill="none" stroke="#000000" stroke-miterlimit="10" x1="60.5" y1="161.5" x2="99.5" y2="161.5"/>
<line fill="none" stroke="#000000" stroke-miterlimit="10" x1="110.5" y1="161.5" x2="147.5" y2="161.5"/>
<path display="none" opacity="0.8" fill="#FFFFFF" stroke="#000000" stroke-miterlimit="10" enable-background="new    " d="
	M347.286,110.351c0,24.451-19.192,45.086-37.761,51.589c-1.981,0.694-1.986,6.789-1.986,12.689c0,4.762-4.67,5.899-6.525,5.899
	c-1.548,0-7.717,0.902-9-3.416c-1.877-6.312-2.75-14.397-4.726-15.13c-17.411-6.456-36.263-27.127-36.263-51.632
	c0-29.669,21.549-53.72,48.13-53.72C325.736,56.631,347.286,80.682,347.286,110.351z"/>
<path display="none" fill="#1A1A1A" d="M253.509,93.894c0,0-0.62-5.899,2.796-3.727c3.416,2.174,7.451,5.9,13.662,5.59
	c6.21-0.311,20.494-9.315,29.188-9.315s22.979,9.333,30.12,9.333c7.143,0,12.609-9.301,13.863-5.998
	c0.672,1.766,1.758,3.826,1.758,3.826l8.289-9.956c0,0-25.772-10.868-54.03-10.868c-28.257,0-53.409,11.499-53.409,11.499
	L253.509,93.894z"/>
<path display="none" fill="#122E59" d="M245.746,85.52c0,0-7.452-7.773-7.452-17.71s15.215-13.662,25.772-21.426
	c10.559-7.763,23.289-18.631,35.089-18.631s20.184,11.489,27.637,15.526c7.452,4.036,27.015,10.868,31.983,20.184
	c4.968,9.315-5.59,21.426-5.59,21.426s-30.742-10.868-54.03-10.868C275.866,74.021,245.746,85.52,245.746,85.52z"/>
<path display="none" fill="#FFE9AD" stroke="#000000" stroke-miterlimit="10" d="M287.977,46.073c0,0,3.105,2.174,5.9,2.174
	S299,46.073,299,46.073s2.562,2.174,5.355,2.174c2.795,0,5.629-2.174,5.629-2.174s0.33,6.521-2.154,11.489
	c-2.482,4.969-8.834,10.558-8.834,10.558s-5.114-3.784-8.535-9.315C287.766,54.448,287.977,46.073,287.977,46.073z"/>
<path display="none" fill="#DEDEDE" stroke="#666666" stroke-miterlimit="10" d="M277.943,99.439
	c4.492,0.085,14.875,0.599,16.174,6.29c1.298,5.69-9.885,21.264-19.967,21.164c-10.084-0.1-12.879-8.685-12.879-16.472
	S267.262,99.24,277.943,99.439z"/>
<path display="none" fill="#DEDEDE" stroke="#666666" stroke-miterlimit="10" d="M318.878,99.84
	c-4.491,0.082-14.874,0.599-16.172,6.288c-1.298,5.69,9.883,21.266,19.967,21.165c10.083-0.1,12.878-8.686,12.878-16.473
	C335.551,103.034,329.561,99.64,318.878,99.84z"/>
<path display="none" fill="#DEDEDE" stroke="#666666" stroke-miterlimit="10" d="M294.117,105.729c0,0,3.859-0.864,8.484,0.791"/>
<path display="none" fill="none" stroke="#000000" stroke-miterlimit="10" d="M293.152,137.572c3.201-1.128,7.69-0.413,11.18-0.413"
	/>
<path display="none" fill="#FFFFFF" stroke="#000000" stroke-miterlimit="10" d="M220.643,267.99"/>
<path display="none" fill="#122E59" d="M308.054,169.454c0,0,13.664,1.242,22.772,10.351c9.107,9.107,15.732,20.701,15.732,20.701
	l-15.488,15.502l-4.387-5.98c0,0,3.314,18.219,6.627,36.437c3.311,18.216,1.654,33.121,1.654,33.121s-21.523,0.827-40.156,0
	c-18.635-0.827-35.195,4.761-32.713-8.384c2.484-13.146,5.797-56.204,5.797-56.204l-4.802,5.797l-12.065-13.224
	c0,0,6.521-24.143,16.457-30.769c9.937-6.625,23.598-7.348,23.598-7.348s-2.898,9.108,8.279,9.937
	C310.538,180.218,308.054,169.454,308.054,169.454z"/>
<path display="none" fill="#FFFFFF" stroke="#000000" stroke-miterlimit="10" d="M253.119,207.568c0,0-7.908,42.221,4.857,40.912
	c9.965-1.021,11.317-35.857,11.317-35.857L253.119,207.568"/>
<path display="none" fill="#0F284D" d="M264.792,276.498c0,0-3.417,28.592-4.244,37.109s-3.362,30.926-5.848,39.207
	c-2.485,8.28-9.359,24.686-0.441,24.686c7.015,0,18.207-0.486,23.487,0c5.254,0.484,1.335-13.876,4.648-22.155
	c3.312-8.279,3.723-24.838,4.551-30.635s11.684-24.437,12.512-19.669c0.829,4.767,7.543,19.766,7.543,28
	c0,8.233,2.999,44.459,2.999,44.459s31.76,6.599,28.449-4.167c-3.312-10.765-2.681-34.543-3.507-37.027
	c-0.83-2.482-2.472-26.922-2.472-31.264c0-4.343,3.319-24.177,0.009-28.336C329.166,272.547,270.795,278.794,264.792,276.498z"/>
<path display="none" fill="#FFFFFF" stroke="#000000" stroke-miterlimit="10" d="M324.824,276.262c0,1.854-1.503,3.356-3.357,3.356
	h-37.73c-1.854,0-3.357-1.504-3.357-3.356v-55.984c0-1.854,1.504-3.357,3.357-3.357h37.73c1.854,0,3.357,1.504,3.357,3.357V276.262z
	"/>
<path display="none" fill="#FFFFFF" stroke="#000000" stroke-miterlimit="10" d="M254.259,248.07c0,0,43.036,12.673,41.101,2.847
	c-1.934-9.824-31.954-14.26-31.954-14.26"/>
<path display="none" fill="#FFFFFF" stroke="#000000" stroke-miterlimit="10" d="M343.958,199.836c0,0,27.384,33.094,15.584,38.139
	c-9.208,3.938-27.282-25.875-27.282-25.875L343.958,199.836"/>
<path display="none" fill="#FFFFFF" stroke="#000000" stroke-miterlimit="10" d="M362.064,235.477c0,0-23.994,37.905-29.02,29.242
	c-5.025-8.66,14.618-31.791,14.618-31.791"/>
<path fill="#FFFFFF" stroke="#000000" stroke-width="4" stroke-miterlimit="10" d="M254.259,62.309
	c0,10.895-7.134,21.026-19.38,29.467c-3.354,2.312-12.352,15.866-8.625,26.842c4.992,14.703,15.234,17.136,16.513,22.326
	c1.068,4.337-16.988,2.253-31.132-7.5c-13.615-9.389-28.51-21.948-33.301-21.135c-12.6,2.14-26.229,3.309-40.454,3.309
	C73.605,115.618,21.5,91.751,21.5,62.309S73.605,9,137.879,9S254.259,32.867,254.259,62.309z"/>
<g>
	<path fill="#BD912D" stroke="#000000" stroke-width="0.5" stroke-miterlimit="10" d="M551.983,293.27c0,1.381-1.119,2.5-2.5,2.5
		l0,0c-1.381,0-2.5-1.119-2.5-2.5v-14c0-1.381,1.119-2.5,2.5-2.5l0,0c1.381,0,2.5,1.119,2.5,2.5V293.27z"/>
	<path fill="#BD912D" stroke="#000000" stroke-width="0.5" stroke-miterlimit="10" d="M568.983,293.27c0,1.381-1.119,2.5-2.5,2.5
		l0,0c-1.381,0-2.5-1.119-2.5-2.5v-14c0-1.381,1.119-2.5,2.5-2.5l0,0c1.381,0,2.5,1.119,2.5,2.5V293.27z"/>
	<path fill="#BD912D" stroke="#000000" stroke-width="0.5" stroke-miterlimit="10" d="M548.689,213.006
		c0,0,4.827,18.15-0.616,18.314c-4.248,0.129-6.045-15.148-6.045-15.148L548.689,213.006"/>
	<path fill="#BD912D" stroke="#000000" stroke-width="0.5" stroke-miterlimit="10" d="M567.765,211.357
		c0,0-0.944,22.848,3.679,21.119c3.606-1.348,2.488-19.779,2.488-19.779L567.765,211.357"/>
	<path fill="#1A1A1A" stroke="#000000" stroke-miterlimit="10" d="M547.446,292.604c0,0,1.967-0.426,4.396-0.062
		s2.141-0.855,2.141,1.57c0,2.428,0,9.355,0,9.355s-2.492,0.752-6.721,1.941c-16.806,4.736-12.405-5.439-12.163-8.479
		c0.243-3.037,10.579-0.512,11.308-2.332C547.137,292.777,548.194,295.641,547.446,292.604z"/>
	<path fill="#1A1A1A" stroke="#000000" stroke-miterlimit="10" d="M571.517,292.604c0,0-2.465-0.426-4.896-0.062
		s-2.64-0.855-2.64,1.57c0,2.428,0,9.355,0,9.355s2.99,0.752,7.218,1.941c16.808,4.736,12.655-5.439,12.412-8.479
		c-0.243-3.037-10.454-0.512-11.184-2.332C571.701,292.779,570.768,295.641,571.517,292.604z"/>
	<rect x="545.983" y="244.77" fill="#BD912D" stroke="#000000" stroke-width="0.5" stroke-miterlimit="10" width="22" height="17"/>
	<rect x="545.483" y="249.27" fill="#C1272D" width="17" height="4"/>
	<path fill="#D7DED1" d="M544.79,251.883c0,0-6.512,19.453-5.161,29.121c0.918,6.578,20.766,0,20.766,0l-1.069-17.438l1.069,17.438
		c0,0,19.888,5.812,18.052-1.986c-1.836-7.803-9.791-30.748-9.791-30.748L544.79,251.883"/>
	
		<line fill="none" stroke="#999999" stroke-width="0.5" stroke-miterlimit="10" x1="559.476" y1="280.545" x2="558.561" y2="265.639"/>
	<path fill="#7CA847" d="M560.99,198.096c0,0,4.569,0.589,7.614,4.908c3.045,4.32,5.261,9.818,5.261,9.818l-5.179,7.352
		l-1.467-2.836c0,0,1.107,8.641,2.215,17.279c1.107,8.641,0.555,12.496,0.555,12.496s-7.197,0.393-13.428,0
		s-11.768,2.258-10.938-3.975c0.828-6.234,1.938-23.443,1.938-23.443l-1.605,2.75l-4.032-6.271c0,0,2.18-11.449,5.502-14.592
		c3.32-3.141,7.891-3.485,7.891-3.485s-0.971,4.319,2.769,4.713C561.822,203.203,560.99,198.096,560.99,198.096z"/>
	<path fill="#BD912D" stroke="#000000" stroke-width="0.5" stroke-miterlimit="10" d="M569.948,225.869
		c0,0-13.317,24.207-8.51,25.219c4.249,0.895,11.077-20.148,11.077-20.148"/>
	<path fill="#BD912D" stroke="#000000" stroke-width="0.5" stroke-miterlimit="10" d="M575.651,178.096
		c0,9.033-7.091,16.656-13.951,19.061c-0.729,0.256-0.733,2.508-0.733,4.688c0,1.76-1.726,2.182-2.409,2.182
		c-0.572,0-2.854,0.332-3.326-1.264c-0.692-2.332-1.017-5.318-1.745-5.59c-6.434-2.385-13.396-10.021-13.396-19.075
		c0-10.962,7.961-19.848,17.779-19.848C567.69,158.248,575.651,167.134,575.651,178.096z"/>
	<path fill="none" stroke="#000000" stroke-width="0.5" stroke-miterlimit="10" d="M555.651,188.152
		c1.185-0.416,2.842-0.152,4.131-0.152"/>
	<path fill="#333333" stroke="#000000" stroke-miterlimit="10" d="M553.509,177.77h-5.506c0,0-0.002,2.53,2.752,2.53
		S553.509,177.77,553.509,177.77z"/>
	<path fill="#333333" stroke="#000000" stroke-miterlimit="10" d="M566.358,177.77h-5.507c0,0-0.001,2.53,2.753,2.53
		S566.358,177.77,566.358,177.77z"/>
	<line fill="none" stroke="#000000" stroke-miterlimit="10" x1="545.483" y1="176.77" x2="554.483" y2="176.77"/>
	<line fill="none" stroke="#000000" stroke-miterlimit="10" x1="557.483" y1="176.77" x2="568.483" y2="176.77"/>
	<path d="M566.382,200.91c0,0-1.552,3.959-0.552,9.709s1.651,11.344,1.651,11.344v4.307c0,0-3.632-9.061-3.632-14.912
		c0-7.306-0.868-12.705-0.868-12.705L566.382,200.91z"/>
	<path d="M546.983,220.687c0,0,2.5-9.417,2.5-13.167s-1.25-6.625-1.25-6.625l2.43-1.482c0,0,1.442,7.551,1.095,11.638
		c-0.772,9.024-4.537,13.702-4.537,13.702L546.983,220.687z"/>
</g>
<g>
	<path fill="#7F5D25" stroke="#000000" stroke-width="0.5" stroke-miterlimit="10" d="M491.825,288.77c0,1.381-1.119,2.5-2.5,2.5
		l0,0c-1.381,0-2.5-1.119-2.5-2.5v-14c0-1.381,1.119-2.5,2.5-2.5l0,0c1.381,0,2.5,1.119,2.5,2.5V288.77z"/>
	<path fill="#7F5D25" stroke="#000000" stroke-width="0.5" stroke-miterlimit="10" d="M508.825,288.77c0,1.381-1.119,2.5-2.5,2.5
		l0,0c-1.381,0-2.5-1.119-2.5-2.5v-14c0-1.381,1.119-2.5,2.5-2.5l0,0c1.381,0,2.5,1.119,2.5,2.5V288.77z"/>
	<path fill="#7F5D25" stroke="#000000" stroke-width="0.5" stroke-miterlimit="10" d="M488.531,208.504
		c0,0,4.827,18.15-0.616,18.316c-4.248,0.129-6.045-15.148-6.045-15.148L488.531,208.504"/>
	<path fill="#7F5D25" stroke="#000000" stroke-width="0.5" stroke-miterlimit="10" d="M507.606,206.857
		c0,0-0.944,22.848,3.679,21.119c3.606-1.35,2.488-19.781,2.488-19.781L507.606,206.857"/>
	<path fill="#1A1A1A" stroke="#000000" stroke-miterlimit="10" d="M487.288,288.104c0,0,1.967-0.426,4.396-0.061
		c2.43,0.361,2.141-0.857,2.141,1.57c0,2.426,0,9.354,0,9.354s-2.492,0.752-6.721,1.943c-16.806,4.734-12.405-5.443-12.163-8.48
		c0.243-3.037,10.579-0.51,11.308-2.332C486.978,288.277,488.036,291.139,487.288,288.104z"/>
	<path fill="#1A1A1A" stroke="#000000" stroke-miterlimit="10" d="M511.358,288.104c0,0-2.465-0.426-4.896-0.061
		c-2.431,0.361-2.64-0.857-2.64,1.57c0,2.426,0,9.354,0,9.354s2.99,0.752,7.218,1.943c16.807,4.734,12.655-5.443,12.412-8.48
		s-10.454-0.51-11.185-2.332C511.543,288.277,510.609,291.139,511.358,288.104z"/>
	<rect x="485.825" y="240.27" fill="#7F5D25" stroke="#000000" stroke-width="0.5" stroke-miterlimit="10" width="22" height="17"/>
	<rect x="485.325" y="244.77" fill="#C1272D" width="17" height="4"/>
	<path fill="#D7DED1" d="M484.632,247.381c0,0-6.512,19.455-5.162,29.123c0.918,6.578,20.767,0,20.767,0l-1.069-17.439l1.069,17.439
		c0,0,19.888,5.812,18.052-1.988s-9.791-30.746-9.791-30.746L484.632,247.381"/>
	
		<line fill="none" stroke="#999999" stroke-width="0.5" stroke-miterlimit="10" x1="499.317" y1="276.045" x2="498.402" y2="261.139"/>
	<path fill="#7CA847" d="M500.832,193.594c0,0,4.569,0.59,7.614,4.91c3.045,4.318,5.261,9.816,5.261,9.816l-5.179,7.352
		l-1.467-2.834c0,0,1.107,8.641,2.215,17.279c1.106,8.639,0.555,12.496,0.555,12.496s-7.197,0.393-13.428,0
		c-6.231-0.395-11.769,2.258-10.938-3.977c0.829-6.234,1.938-23.441,1.938-23.441l-1.605,2.748l-4.033-6.271
		c0,0,2.181-11.449,5.502-14.592c3.321-3.142,7.892-3.486,7.892-3.486s-0.971,4.32,2.768,4.713
		C501.664,198.701,500.832,193.594,500.832,193.594z"/>
	<path fill="#7F5D25" stroke="#000000" stroke-width="0.5" stroke-miterlimit="10" d="M509.79,221.367
		c0,0-13.318,24.209-8.51,25.221c4.249,0.893,11.077-20.148,11.077-20.148"/>
	<path fill="#7F5D25" stroke="#000000" stroke-width="0.5" stroke-miterlimit="10" d="M515.493,173.594
		c0,9.035-7.091,16.658-13.951,19.061c-0.729,0.256-0.734,2.508-0.734,4.688c0,1.761-1.725,2.182-2.408,2.182
		c-0.572,0-2.854,0.333-3.326-1.264c-0.692-2.332-1.018-5.318-1.745-5.59c-6.434-2.385-13.396-10.021-13.396-19.074
		c0-10.962,7.961-19.848,17.779-19.848C507.532,153.747,515.493,162.632,515.493,173.594z"/>
	<path fill="none" stroke="#000000" stroke-width="0.5" stroke-miterlimit="10" d="M495.493,183.651
		c1.184-0.417,2.842-0.153,4.131-0.153"/>
	<path fill="#333333" stroke="#000000" stroke-miterlimit="10" d="M493.351,173.269h-5.506c0,0-0.002,2.53,2.752,2.53
		S493.351,173.269,493.351,173.269z"/>
	<path fill="#333333" stroke="#000000" stroke-miterlimit="10" d="M506.2,173.269h-5.507c0,0-0.001,2.53,2.753,2.53
		S506.2,173.269,506.2,173.269z"/>
	<line fill="none" stroke="#000000" stroke-miterlimit="10" x1="485.325" y1="172.269" x2="494.325" y2="172.269"/>
	<line fill="none" stroke="#000000" stroke-miterlimit="10" x1="497.325" y1="172.269" x2="508.325" y2="172.269"/>
	<path d="M506.224,196.408c0,0-1.551,3.96-0.551,9.711c1,5.75,1.651,11.344,1.651,11.344v4.307c0,0-3.632-9.062-3.632-14.912
		c0-7.307-0.868-12.707-0.868-12.707L506.224,196.408z"/>
	<path d="M486.825,216.186c0,0,2.5-9.416,2.5-13.167c0-3.75-1.25-6.625-1.25-6.625l2.43-1.481c0,0,1.442,7.551,1.094,11.637
		c-0.771,9.025-4.536,13.701-4.536,13.701L486.825,216.186z"/>
</g>
<g>
	<path opacity="0.8" fill="#FFFFFF" stroke="#000000" stroke-miterlimit="10" enable-background="new    " d="M480.06,48.349
		c0,12.514-9.823,23.076-19.325,26.404c-1.015,0.354-1.018,3.475-1.018,6.494c0,2.438-2.391,3.02-3.34,3.02
		c-0.793,0-3.949,0.462-4.606-1.748c-0.961-3.23-1.407-7.369-2.418-7.745c-8.911-3.304-18.561-13.883-18.561-26.425
		c0-15.188,11.03-27.496,24.635-27.496S480.06,33.163,480.06,48.349z"/>
	<path fill="#DEDEDE" stroke="#666666" stroke-miterlimit="10" d="M444.57,42.762c2.299,0.043,7.613,0.307,8.277,3.22
		c0.664,2.912-5.059,10.883-10.22,10.832s-6.592-4.445-6.592-8.431C436.036,44.398,439.102,42.661,444.57,42.762z"/>
	<path fill="#DEDEDE" stroke="#666666" stroke-miterlimit="10" d="M465.521,42.967c-2.298,0.042-7.612,0.307-8.276,3.218
		c-0.666,2.913,5.058,10.885,10.219,10.833c5.16-0.051,6.591-4.445,6.591-8.431C474.054,44.604,470.988,42.865,465.521,42.967z"/>
	<path fill="#DEDEDE" stroke="#666666" stroke-miterlimit="10" d="M452.848,45.982c0,0,1.975-0.442,4.344,0.404"/>
	<path fill="none" stroke="#000000" stroke-miterlimit="10" d="M452.354,62.28c1.639-0.577,3.938-0.212,5.723-0.212"/>
	<path fill="#C1272D" d="M459.98,78.599c0,0,6.994,0.636,11.655,5.297c4.662,4.663,8.053,10.596,8.053,10.596l-7.927,7.934
		l-2.245-3.061c0,0,1.696,9.324,3.392,18.648c1.694,9.324,0.847,16.951,0.847,16.951s-11.017,0.424-20.554,0
		c-9.537-0.422-18.015,2.438-16.743-4.291c1.271-6.729,2.968-28.767,2.968-28.767l-2.458,2.968l-6.176-6.769
		c0,0,3.337-12.356,8.423-15.747c5.085-3.391,12.078-3.762,12.078-3.762s-1.483,4.662,4.238,5.086
		C461.253,84.107,459.98,78.599,459.98,78.599z"/>
	<path fill="#FFFFFF" stroke="#000000" stroke-miterlimit="10" d="M431.864,98.107c0,0-4.047,21.608,2.486,20.938
		c5.099-0.521,5.792-18.353,5.792-18.353L431.864,98.107"/>
	<path fill="#FFFFFF" stroke="#000000" stroke-miterlimit="10" d="M437.234,116.638c0,0,15.821-16.643,10.895-18.055
		c-4.926-1.414-13.956,11.224-13.956,11.224"/>
	<path fill="#FFFFFF" stroke="#000000" stroke-miterlimit="10" d="M478.357,94.149c0,0,14.016,16.938,7.977,19.52
		c-4.711,2.017-13.963-13.244-13.963-13.244L478.357,94.149"/>
	<path fill="#FFFFFF" stroke="#000000" stroke-miterlimit="10" d="M487.625,112.391c0,0-12.281,19.401-14.854,14.967
		c-2.572-4.433,7.482-16.272,7.482-16.272"/>
</g>
<path fill="#122E59" d="M453.958,213.732c0,0,7.19,0.652,11.985,5.447c4.793,4.795,8.279,10.896,8.279,10.896l-8.15,8.16
	l-2.311-3.147c0,0,1.744,9.59,3.487,19.178s0.872,17.435,0.872,17.435s-11.328,0.437-21.138,0
	c-9.809-0.437-18.524,2.507-17.219-4.413c1.309-6.918,3.053-29.583,3.053-29.583l-2.527,3.052l-6.352-6.961
	c0,0,3.432-12.707,8.66-16.192c5.23-3.487,12.422-3.869,12.422-3.869s-1.525,4.795,4.357,5.229
	C455.264,219.398,453.958,213.732,453.958,213.732z"/>
<path d="M62.25,263.054c0,0,14.274,15.76,13.236,46.754c-0.517,15.442-6.692,19.191-6.692,19.191L68.634,339
	c0,0,19.055-7,19.019-33.192c-0.048-34.515-8.083-60.672-8.083-60.672S66.25,252.25,62.25,263.054z"/>
<path d="M132.271,244.648c0,0-8.79,34.27-3.119,66.659c3.098,17.692,14.105,21.961,14.105,21.961l-1.046-11.644
	c0,0-3.211,2.375-3.961-13.875c-1.31-28.382,5.86-52.979,5.86-52.979l-4.446-4.668l-3.574-2.939L132.271,244.648z"/>
<path opacity="0.8" fill="#FFFFFF" stroke="#000000" stroke-miterlimit="10" enable-background="new    " d="M335.436,128.484
	c0,16.701-13.108,30.797-25.792,35.238c-1.354,0.475-1.355,4.637-1.355,8.667c0,3.253-3.19,4.03-4.459,4.03
	c-1.057,0-5.271,0.617-6.146-2.334c-1.281-4.312-1.878-9.834-3.229-10.334c-11.893-4.409-24.77-18.529-24.77-35.268
	c0-20.265,14.721-36.693,32.876-36.693C320.717,91.791,335.436,108.22,335.436,128.484z"/>
<path fill="#1A1A1A" d="M268.745,131.65c0,0,1.457,11.213,10.105,13.401s26.43,3.938,36.039,2.188s14.896-7.438,17.778-9.627
	c2.883-2.189,2.883-7.844,2.883-7.844L268.745,131.65z"/>
<path fill="#122E59" d="M259.405,114.271c-0.016-10.604,17.812-27.454,22.783-31.105c5.321-3.908,12.204-9.696,20.206-9.885
	c15.58-0.367,37.964,28.008,40.366,30.635c2.402,2.625,5.287,9.627,0,16.629c-5.287,7.003-12.879,21.883-42.719,21.883
	C270.2,142.428,259.415,121.926,259.405,114.271z"/>
<path fill="#122E59" d="M310.335,169.6c0,0,8.484,0.9,14.705,7.122c6.223,6.221,11.244,18.211,11.244,18.211l-13.217,7.187
	l-0.854-4.726c0,0,2.264,12.456,4.524,24.897c2.262,12.443,1.131,22.631,1.131,22.631s-14.701,0.568-27.43,0.003
	c-12.728-0.565-24.039,3.254-22.344-5.726c1.697-8.979,3.96-38.391,3.96-38.391l-0.149,1.902l-13.281-5.489
	c0,0,5.865-18.945,12.652-23.472c6.787-4.525,18.312-4.15,18.312-4.15H310.335z"/>
<path fill="#FFFFFF" stroke="#000000" stroke-miterlimit="10" d="M334.192,194.888c0,0,10.892,27.243,2.162,28.058
	c-6.811,0.637-12.333-22.527-12.333-22.527L334.192,194.888"/>
<path fill="#FFFFFF" stroke="#000000" stroke-miterlimit="10" d="M339.512,217.08c0,0-5.411,34.228-10.822,29.5
	c-5.409-4.726,1.056-27.084,1.056-27.084"/>
<path fill="#FFFFFF" stroke="#000000" stroke-miterlimit="10" d="M268.758,197.223c0,0-7.118,28.463,1.64,28.095
	c6.834-0.288,9.184-23.985,9.184-23.985L268.758,197.223"/>
<path fill="#FFFFFF" stroke="#000000" stroke-miterlimit="10" d="M265.493,218.377c0,0,6.638,34.013,11.875,29.095
	c5.236-4.917-2.028-27.029-2.028-27.029"/>
<path fill="#0F284D" d="M279.937,243.668c0,0-2.334,19.529-2.898,25.349c-0.565,5.817-2.297,21.124-3.993,26.78
	c-1.697,5.655-5.675,17.553-0.019,19.813c5.655,2.263,13.564,6.796,16.393,4.533s0.277-16.964,2.542-22.62
	c2.262-5.654,2.543-16.965,3.108-20.925c0.564-3.959,8.02-16.69,8.584-13.437c0.566,3.258,5.191,13.502,5.191,19.127
	c0,5.623,0,26.269,0,26.269s-1.939,13.373,11.068,12.201c13.01-1.173,12.463-9.655,10.201-17.009
	c-2.263-7.354-1.688-17.534-2.254-19.23c-0.564-1.697-1.69-18.389-1.69-21.355c0-2.965,2.264-16.514,0.002-19.354
	C323.909,240.97,284.036,245.238,279.937,243.668z"/>
<path fill="#1A1A1A" d="M273.956,316.428c0,0,3.837-0.787,8.328-0.113c4.49,0.674,7.332,1.292,7.107,2.639
	c-0.225,1.349-2.548,5.109-2.548,9.601s0,17.29,0,17.29s-4.703,3.594-12.824,3.594c-8.12,0-11.071-1.572-10.623-7.186
	c0.449-5.614,7.396-9.433,8.742-12.801C273.487,326.083,275.342,322.041,273.956,316.428z"/>
<path fill="#1A1A1A" d="M328.87,316.428c0,0-3.836-0.787-8.326-0.113s-7.901,1.292-7.678,2.639c0.225,1.349,1.979,5.109,1.979,9.601
	s0,17.29,0,17.29s5.273,3.594,13.395,3.594c8.123,0,11.356-1.572,10.907-7.186c-0.448-5.614-7.253-9.433-8.599-12.801
	C329.2,326.083,327.487,322.041,328.87,316.428z"/>
</svg>
