<?xml version="1.0" encoding="utf-8"?>
<!-- Generator: Adobe Illustrator 16.0.0, SVG Export Plug-In . SVG Version: 6.00 Build 0)  -->
<!DOCTYPE svg PUBLIC "-//W3C//DTD SVG 1.0//EN" "http://www.w3.org/TR/2001/REC-SVG-20010904/DTD/svg10.dtd">
<svg version="1.0" id="Layer_1" xmlns="http://www.w3.org/2000/svg" xmlns:xlink="http://www.w3.org/1999/xlink" x="0px" y="0px"
	 width="406px" height="377px" viewBox="0 0 406 377" enable-background="new 0 0 406 377" xml:space="preserve">
<path opacity="0.8" fill="#FFFFFF" stroke="#000000" stroke-miterlimit="10" d="M194.983,140.831
	c0,34.656-27.203,63.903-53.521,73.12c-2.808,0.983-2.814,9.623-2.814,17.985c0,6.75-6.618,8.362-9.251,8.362
	c-2.191,0-10.936,1.279-12.755-4.842c-2.661-8.946-3.897-20.407-6.699-21.445c-24.677-9.149-51.397-38.449-51.397-73.181
	c0-42.053,30.543-76.142,68.219-76.142C164.441,64.689,194.983,98.778,194.983,140.831z"/>
<path fill="#DEDEDE" stroke="#666666" stroke-miterlimit="10" d="M96.7,125.364c6.366,0.121,21.083,0.85,22.923,8.916
	c1.84,8.065-14.009,30.139-28.301,29.997c-14.291-0.141-18.253-12.31-18.253-23.347C73.069,129.893,81.56,125.083,96.7,125.364z"/>
<path fill="#DEDEDE" stroke="#666666" stroke-miterlimit="10" d="M154.719,125.932c-6.366,0.117-21.082,0.85-22.922,8.913
	c-1.84,8.066,14.008,30.142,28.3,29.999c14.292-0.142,18.253-12.311,18.253-23.348C178.35,130.46,169.86,125.648,154.719,125.932z"
	/>
<path fill="#DEDEDE" stroke="#666666" stroke-miterlimit="10" d="M119.623,134.28c0,0,5.471-1.226,12.027,1.121"/>
<path fill="none" stroke="#000000" stroke-miterlimit="10" d="M118.257,179.414c4.538-1.599,10.901-0.587,15.845-0.587"/>
<path fill="#C1272D" d="M139.377,224.603c0,0,19.367,1.76,32.276,14.67c12.91,12.91,22.299,29.342,22.299,29.342l-21.951,21.973
	l-6.216-8.477c0,0,4.695,25.821,9.39,51.643c4.694,25.819,2.347,46.945,2.347,46.945s-30.508,1.173-56.919,0
	c-26.411-1.172-49.884,6.748-46.363-11.883c3.521-18.632,8.216-79.663,8.216-79.663l-6.807,8.217l-17.104-18.743
	c0,0,9.242-34.218,23.326-43.608s33.447-10.415,33.447-10.415s-4.109,12.909,11.736,14.084
	C142.898,239.858,139.377,224.603,139.377,224.603z"/>
<path fill="#FFFFFF" stroke="#000000" stroke-miterlimit="10" d="M61.513,278.626c0,0-11.208,59.841,6.888,57.988
	c14.12-1.446,16.039-50.824,16.039-50.824L61.513,278.626"/>
<path fill="#FFFFFF" stroke="#000000" stroke-miterlimit="10" d="M76.387,329.941c0,0,43.813-46.084,30.168-49.997
	c-13.641-3.915-38.648,31.08-38.648,31.08"/>
<path fill="#FFFFFF" stroke="#000000" stroke-miterlimit="10" d="M190.266,267.666c0,0,38.814,46.904,22.089,54.056
	c-13.05,5.581-38.669-36.676-38.669-36.676L190.266,267.666"/>
<path fill="#FFFFFF" stroke="#000000" stroke-miterlimit="10" d="M215.931,318.181c0,0-34.01,53.728-41.131,41.448
	c-7.123-12.275,20.72-45.061,20.72-45.061"/>
</svg>
