<?xml version="1.0" encoding="utf-8"?>
<!-- Generator: Adobe Illustrator 15.1.0, SVG Export Plug-In . SVG Version: 6.00 Build 0)  -->
<!DOCTYPE svg PUBLIC "-//W3C//DTD SVG 1.1//EN" "http://www.w3.org/Graphics/SVG/1.1/DTD/svg11.dtd">
<svg version="1.1" id="Layer_1" xmlns="http://www.w3.org/2000/svg" xmlns:xlink="http://www.w3.org/1999/xlink" x="0px" y="0px"
	 width="406px" height="377px" viewBox="0 0 406 377" enable-background="new 0 0 406 377" xml:space="preserve">
<path fill="#7F5D25" stroke="#000000" stroke-width="0.5" stroke-miterlimit="10" d="M249.545,197.648
	c0,0,7.465,41.148,18.625,35.525c8.709-4.385-2.154-36.545-2.154-36.545L249.545,197.648"/>
<path fill="#7F5D25" stroke="#000000" stroke-width="0.5" stroke-miterlimit="10" d="M256.279,217.129
	c0,0,9.967,92.998,22.73,82.639c11.283-9.156-9.053-83.719-9.053-83.719"/>
<path fill="#666666" stroke="#000000" stroke-miterlimit="10" d="M200.371,209.568c0,0-22.408,44.13-33.389,34.889
	c-8.57-7.211,14.742-40.374,14.742-40.374L200.371,209.568"/>
<path display="none" fill="#BD912D" stroke="#000000" stroke-width="0.5" stroke-miterlimit="10" d="M251.604,204.352
	c0,0,17.707,37.889,27.064,29.607c7.303-6.46-11.398-34.79-11.398-34.79L251.604,204.352"/>
<rect x="193" y="278.5" fill="#7F5D25" stroke="#000000" stroke-width="0.5" stroke-miterlimit="10" width="55" height="48"/>
<rect x="193.5" y="292" fill="#C1272D" width="44" height="12"/>
<path fill="#D7DED1" d="M191.375,300.311c0,0-17.16,51.269-13.604,76.746c18.769,0.597,54.722,0,54.722,0l-2.82-45.956l2.82,45.956
	c0,0,31.219,1.562,47.866-1.209c-4.838-20.558-26.101-85.058-26.101-85.058L191.375,300.311"/>
<line fill="none" stroke="#999999" stroke-miterlimit="10" x1="224.104" y1="375.705" x2="221.484" y2="333.021"/>
<path fill="#7CA847" d="M233.066,158.574c0,0,12.039,1.553,20.063,12.936c8.022,11.384,13.862,25.871,13.862,25.871l-13.646,19.373
	l-1.744-12.402c0,0,4.396,28.576-4.283,51.463c-8.139,21.461,9.459,31.931,9.459,31.931s-18.967,1.032-35.385,0
	c-16.418-1.033-31.013,5.948-28.823-10.479c2.189-16.429,5.107-61.773,5.107-61.773l-4.229,7.242l-10.632-16.523
	c0,0,5.745-30.171,14.5-38.451c8.755-8.278,20.794-9.184,20.794-9.184s-2.558,11.383,7.293,12.418
	C235.256,172.027,233.066,158.574,233.066,158.574z"/>
<path display="none" fill="#BD912D" stroke="#000000" stroke-width="0.5" stroke-miterlimit="10" d="M280.561,229.562
	c0,0,29.58-96.777,13.771-92.271c-13.975,3.983-24.596,80.536-24.596,80.536"/>
<path fill="#666666" stroke="#000000" stroke-miterlimit="10" d="M164.432,242.866c0,0-29.579-96.777-13.77-92.271
	c13.975,3.983,24.596,80.537,24.596,80.537"/>
<path fill="#7F5D25" stroke="#000000" stroke-width="0.5" stroke-miterlimit="10" d="M272.701,105.867
	c0,23.808-18.688,43.898-36.766,50.229c-1.93,0.675-1.935,6.61-1.935,12.354c0,4.637-4.546,5.745-6.354,5.745
	c-1.506,0-7.513,0.879-8.763-3.325c-1.827-6.146-2.678-14.019-4.602-14.732c-16.95-6.285-35.306-26.411-35.306-50.27
	c0-28.886,20.98-52.302,46.86-52.302C251.723,53.565,272.701,76.981,272.701,105.867z"/>
<path fill="none" stroke="#000000" stroke-miterlimit="10" d="M219.997,132.371c3.116-1.099,7.487-0.403,10.883-0.403"/>
<path fill="#333333" stroke="#000000" stroke-miterlimit="10" d="M214.352,102.5H199.84c0,0-0.001,6.667,7.256,6.667
	C214.354,109.167,214.352,102.5,214.352,102.5z"/>
<path fill="#333333" stroke="#000000" stroke-miterlimit="10" d="M248.213,102.5H233.7c0,0-0.001,6.667,7.258,6.667
	C248.214,109.167,248.213,102.5,248.213,102.5z"/>
<line fill="none" stroke="#000000" stroke-miterlimit="10" x1="191.5" y1="100.5" x2="220.5" y2="100.5"/>
<line fill="none" stroke="#000000" stroke-miterlimit="10" x1="226.5" y1="100.5" x2="255.5" y2="100.5"/>
<path fill="#FFFFFF" stroke="#000000" stroke-miterlimit="10" d="M215.271,138.823c0,26.061-20.458,48.054-40.248,54.985
	c-2.111,0.737-2.117,7.233-2.117,13.521c0,5.076-4.977,6.289-6.956,6.289c-1.648,0-8.224,0.961-9.591-3.643
	c-2.002-6.729-2.932-15.346-5.037-16.127c-18.558-6.879-38.65-28.913-38.65-55.028c0-31.622,22.968-57.257,51.299-57.257
	C192.305,81.566,215.271,107.201,215.271,138.823z"/>
<path display="none" fill="#1A1A1A" d="M111.209,143.763c0,0,2.271,17.497,15.769,20.912c13.496,3.413,41.239,6.145,56.236,3.413
	c14.994-2.73,23.245-11.607,27.741-15.021c4.498-3.416,4.498-12.239,4.498-12.239L111.209,143.763z"/>
<path display="none" fill="#122E59" d="M96.634,116.646c-0.024-16.546,27.794-42.841,35.551-48.538
	c8.302-6.1,19.043-15.131,31.53-15.425c24.311-0.572,59.239,43.704,62.987,47.803c3.747,4.097,8.249,15.022,0,25.949
	c-8.25,10.926-20.099,34.144-66.659,34.144C113.478,160.579,96.65,128.587,96.634,116.646z"/>
<path display="none" fill="#FFFFFF" stroke="#000000" stroke-miterlimit="10" d="M113.146,282.055c0,0,49.88-20.879,40.71-27.33
	c-9.166-6.451-40.665,11.633-40.665,11.633"/>
<path fill="#FFFFFF" stroke="#000000" stroke-miterlimit="10" d="M111.227,246.082c0,0-11.106,44.413,2.559,43.838
	c10.665-0.447,14.33-37.428,14.33-37.428L111.227,246.082"/>
<path display="none" d="M248,165.832c0,0-6,16.477-3.5,30.822c2.5,14.345,8.205,26.812,8.205,26.812l-0.691,11.677
	c0,0-14.014-17.806-14.514-35.975s-0.912-40.554,3.457-37.987S248,165.832,248,165.832z"/>
<path display="none" d="M207.096,166.942c0,0,0.404,22.367-1.096,29.712c-1.5,7.345-5.629,18.84-5.629,18.84l-6.871-5.906
	c0,0,3.422-10.088,3.961-15.088s0-15.265,0-15.265L207.096,166.942z"/>
<g>
	<path fill="#BD912D" stroke="#000000" stroke-width="0.5" stroke-miterlimit="10" d="M598.795,233.779c0,1.381-1.119,2.5-2.5,2.5
		l0,0c-1.381,0-2.5-1.119-2.5-2.5v-14c0-1.381,1.119-2.5,2.5-2.5l0,0c1.381,0,2.5,1.119,2.5,2.5V233.779z"/>
	<path fill="#BD912D" stroke="#000000" stroke-width="0.5" stroke-miterlimit="10" d="M615.795,233.779c0,1.381-1.119,2.5-2.5,2.5
		l0,0c-1.381,0-2.5-1.119-2.5-2.5v-14c0-1.381,1.119-2.5,2.5-2.5l0,0c1.381,0,2.5,1.119,2.5,2.5V233.779z"/>
	<path fill="#BD912D" stroke="#000000" stroke-width="0.5" stroke-miterlimit="10" d="M595.501,153.515
		c0,0,4.827,18.15-0.616,18.314c-4.248,0.13-6.045-15.147-6.045-15.147L595.501,153.515"/>
	<path fill="#BD912D" stroke="#000000" stroke-width="0.5" stroke-miterlimit="10" d="M614.576,151.867
		c0,0-0.944,22.848,3.679,21.119c3.606-1.348,2.488-19.779,2.488-19.779L614.576,151.867"/>
	<path fill="#1A1A1A" stroke="#000000" stroke-miterlimit="10" d="M594.258,233.113c0,0,1.967-0.426,4.396-0.062
		s2.141-0.855,2.141,1.57c0,2.428,0,9.355,0,9.355s-2.492,0.752-6.721,1.941c-16.806,4.736-12.405-5.439-12.163-8.479
		c0.243-3.037,10.579-0.512,11.308-2.332C593.948,233.287,595.006,236.15,594.258,233.113z"/>
	<path fill="#1A1A1A" stroke="#000000" stroke-miterlimit="10" d="M618.328,233.113c0,0-2.465-0.426-4.896-0.062
		s-2.64-0.855-2.64,1.57c0,2.428,0,9.355,0,9.355s2.99,0.752,7.218,1.941c16.808,4.736,12.655-5.439,12.412-8.479
		c-0.243-3.037-10.454-0.512-11.184-2.332C618.513,233.289,617.579,236.15,618.328,233.113z"/>
	
		<rect x="592.795" y="185.279" fill="#BD912D" stroke="#000000" stroke-width="0.5" stroke-miterlimit="10" width="22" height="17"/>
	<rect x="592.295" y="189.779" fill="#C1272D" width="17" height="4"/>
	<path fill="#D7DED1" d="M591.602,192.393c0,0-6.512,19.453-5.161,29.121c0.918,6.578,20.766,0,20.766,0l-1.069-17.438l1.069,17.438
		c0,0,19.888,5.812,18.052-1.986c-1.836-7.803-9.791-30.749-9.791-30.749L591.602,192.393"/>
	
		<line fill="none" stroke="#999999" stroke-width="0.5" stroke-miterlimit="10" x1="606.287" y1="221.055" x2="605.372" y2="206.148"/>
	<path fill="#7CA847" d="M607.802,138.605c0,0,4.569,0.589,7.614,4.909c3.045,4.319,5.261,9.817,5.261,9.817l-5.179,7.352
		l-1.467-2.835c0,0,1.107,8.64,2.215,17.279s0.555,12.495,0.555,12.495s-7.197,0.393-13.428,0s-11.768,2.258-10.938-3.975
		c0.828-6.234,1.938-23.443,1.938-23.443l-1.605,2.75l-4.032-6.271c0,0,2.18-11.449,5.502-14.591
		c3.32-3.142,7.891-3.486,7.891-3.486s-0.971,4.32,2.769,4.713C608.634,143.712,607.802,138.605,607.802,138.605z"/>
	<path fill="#BD912D" stroke="#000000" stroke-width="0.5" stroke-miterlimit="10" d="M616.76,166.378
		c0,0-13.317,24.208-8.51,25.219c4.249,0.895,11.077-20.149,11.077-20.149"/>
	<path fill="#BD912D" stroke="#000000" stroke-width="0.5" stroke-miterlimit="10" d="M622.463,118.605
		c0,9.034-7.091,16.657-13.951,19.06c-0.729,0.256-0.733,2.508-0.733,4.688c0,1.76-1.726,2.181-2.409,2.181
		c-0.572,0-2.854,0.333-3.326-1.263c-0.692-2.332-1.017-5.319-1.745-5.59c-6.434-2.385-13.396-10.021-13.396-19.075
		c0-10.962,7.961-19.848,17.779-19.848C614.502,98.757,622.463,107.644,622.463,118.605z"/>
	<path fill="none" stroke="#000000" stroke-width="0.5" stroke-miterlimit="10" d="M602.463,128.663
		c1.185-0.417,2.842-0.153,4.131-0.153"/>
	<path fill="#333333" stroke="#000000" stroke-miterlimit="10" d="M600.32,118.279h-5.506c0,0-0.002,2.53,2.752,2.53
		S600.32,118.279,600.32,118.279z"/>
	<path fill="#333333" stroke="#000000" stroke-miterlimit="10" d="M613.17,118.279h-5.507c0,0-0.001,2.53,2.753,2.53
		S613.17,118.279,613.17,118.279z"/>
	<line fill="none" stroke="#000000" stroke-miterlimit="10" x1="592.295" y1="117.279" x2="601.295" y2="117.279"/>
	<line fill="none" stroke="#000000" stroke-miterlimit="10" x1="604.295" y1="117.279" x2="615.295" y2="117.279"/>
	<path d="M613.193,141.419c0,0-1.552,3.96-0.552,9.71s1.651,11.344,1.651,11.344v4.306c0,0-3.632-9.061-3.632-14.912
		c0-7.306-0.868-12.706-0.868-12.706L613.193,141.419z"/>
	<path d="M593.795,161.196c0,0,2.5-9.417,2.5-13.167s-1.25-6.625-1.25-6.625l2.43-1.482c0,0,1.442,7.551,1.095,11.637
		c-0.772,9.025-4.537,13.702-4.537,13.702L593.795,161.196z"/>
</g>
<g>
	<path fill="#7F5D25" stroke="#000000" stroke-width="0.5" stroke-miterlimit="10" d="M481.912,246.102c0,1.381-1.119,2.5-2.5,2.5
		l0,0c-1.381,0-2.5-1.119-2.5-2.5v-14c0-1.381,1.119-2.5,2.5-2.5l0,0c1.381,0,2.5,1.119,2.5,2.5V246.102z"/>
	<path fill="#7F5D25" stroke="#000000" stroke-width="0.5" stroke-miterlimit="10" d="M498.912,246.102c0,1.381-1.119,2.5-2.5,2.5
		l0,0c-1.381,0-2.5-1.119-2.5-2.5v-14c0-1.381,1.119-2.5,2.5-2.5l0,0c1.381,0,2.5,1.119,2.5,2.5V246.102z"/>
	<path fill="#7F5D25" stroke="#000000" stroke-width="0.5" stroke-miterlimit="10" d="M478.618,165.836
		c0,0,4.827,18.149-0.616,18.315c-4.248,0.129-6.045-15.148-6.045-15.148L478.618,165.836"/>
	<path fill="#7F5D25" stroke="#000000" stroke-width="0.5" stroke-miterlimit="10" d="M497.693,164.189
		c0,0-0.944,22.849,3.679,21.119c3.606-1.349,2.488-19.781,2.488-19.781L497.693,164.189"/>
	<path fill="#1A1A1A" stroke="#000000" stroke-miterlimit="10" d="M477.375,245.436c0,0,1.967-0.426,4.396-0.061
		c2.43,0.361,2.141-0.857,2.141,1.57c0,2.426,0,9.354,0,9.354s-2.492,0.752-6.721,1.943c-16.806,4.734-12.405-5.443-12.163-8.48
		c0.243-3.037,10.579-0.51,11.308-2.332C477.064,245.609,478.123,248.471,477.375,245.436z"/>
	<path fill="#1A1A1A" stroke="#000000" stroke-miterlimit="10" d="M501.445,245.436c0,0-2.465-0.426-4.896-0.061
		c-2.431,0.361-2.64-0.857-2.64,1.57c0,2.426,0,9.354,0,9.354s2.99,0.752,7.218,1.943c16.807,4.734,12.655-5.443,12.412-8.48
		s-10.454-0.51-11.185-2.332C501.63,245.609,500.696,248.471,501.445,245.436z"/>
	
		<rect x="475.912" y="197.602" fill="#7F5D25" stroke="#000000" stroke-width="0.5" stroke-miterlimit="10" width="22" height="17"/>
	<rect x="475.412" y="202.102" fill="#C1272D" width="17" height="4"/>
	<path fill="#D7DED1" d="M474.719,204.713c0,0-6.512,19.455-5.162,29.123c0.918,6.578,20.767,0,20.767,0l-1.069-17.439l1.069,17.439
		c0,0,19.888,5.812,18.052-1.988s-9.791-30.746-9.791-30.746L474.719,204.713"/>
	
		<line fill="none" stroke="#999999" stroke-width="0.5" stroke-miterlimit="10" x1="489.404" y1="233.377" x2="488.489" y2="218.471"/>
	<path fill="#7CA847" d="M490.919,150.926c0,0,4.569,0.589,7.614,4.909c3.045,4.319,5.261,9.816,5.261,9.816l-5.179,7.353
		l-1.467-2.835c0,0,1.107,8.641,2.215,17.279c1.106,8.639,0.555,12.497,0.555,12.497s-7.197,0.393-13.428,0
		c-6.231-0.395-11.769,2.258-10.938-3.977c0.829-6.234,1.938-23.442,1.938-23.442l-1.605,2.748l-4.033-6.271
		c0,0,2.181-11.449,5.502-14.591c3.321-3.142,7.892-3.486,7.892-3.486s-0.971,4.32,2.768,4.713
		C491.751,156.033,490.919,150.926,490.919,150.926z"/>
	<path fill="#7F5D25" stroke="#000000" stroke-width="0.5" stroke-miterlimit="10" d="M499.877,178.699
		c0,0-13.318,24.209-8.51,25.221c4.249,0.893,11.077-20.149,11.077-20.149"/>
	<path fill="#7F5D25" stroke="#000000" stroke-width="0.5" stroke-miterlimit="10" d="M505.58,130.926
		c0,9.034-7.091,16.657-13.951,19.06c-0.729,0.256-0.734,2.508-0.734,4.688c0,1.76-1.725,2.181-2.408,2.181
		c-0.572,0-2.854,0.333-3.326-1.263c-0.692-2.332-1.018-5.319-1.745-5.59c-6.434-2.385-13.396-10.022-13.396-19.075
		c0-10.962,7.961-19.848,17.779-19.848C497.619,111.079,505.58,119.964,505.58,130.926z"/>
	<path fill="none" stroke="#000000" stroke-width="0.5" stroke-miterlimit="10" d="M485.58,140.983
		c1.184-0.417,2.842-0.153,4.131-0.153"/>
	<path fill="#333333" stroke="#000000" stroke-miterlimit="10" d="M483.438,130.601h-5.506c0,0-0.002,2.53,2.752,2.53
		S483.438,130.601,483.438,130.601z"/>
	<path fill="#333333" stroke="#000000" stroke-miterlimit="10" d="M496.287,130.601h-5.507c0,0-0.001,2.53,2.753,2.53
		S496.287,130.601,496.287,130.601z"/>
	<line fill="none" stroke="#000000" stroke-miterlimit="10" x1="475.412" y1="129.601" x2="484.412" y2="129.601"/>
	<line fill="none" stroke="#000000" stroke-miterlimit="10" x1="487.412" y1="129.601" x2="498.412" y2="129.601"/>
	<path d="M496.311,153.74c0,0-1.551,3.96-0.551,9.71c1,5.75,1.651,11.344,1.651,11.344v4.307c0,0-3.632-9.062-3.632-14.912
		c0-7.306-0.868-12.707-0.868-12.707L496.311,153.74z"/>
	<path d="M476.912,173.517c0,0,2.5-9.416,2.5-13.167c0-3.75-1.25-6.625-1.25-6.625l2.43-1.482c0,0,1.442,7.551,1.094,11.637
		c-0.771,9.025-4.536,13.702-4.536,13.702L476.912,173.517z"/>
</g>
<g>
	<path opacity="0.8" fill="#FFFFFF" stroke="#000000" stroke-miterlimit="10" enable-background="new    " d="M470.146,5.681
		c0,12.514-9.823,23.076-19.325,26.404c-1.015,0.354-1.018,3.475-1.018,6.494c0,2.438-2.391,3.02-3.34,3.02
		c-0.793,0-3.949,0.462-4.606-1.748c-0.961-3.23-1.407-7.369-2.418-7.745c-8.911-3.304-18.561-13.883-18.561-26.425
		c0-15.188,11.03-27.496,24.635-27.496S470.146-9.505,470.146,5.681z"/>
	<path fill="#DEDEDE" stroke="#666666" stroke-miterlimit="10" d="M434.657,0.094c2.299,0.043,7.613,0.307,8.277,3.22
		c0.664,2.912-5.059,10.883-10.22,10.832s-6.592-4.445-6.592-8.431C426.123,1.73,429.188-0.007,434.657,0.094z"/>
	<path fill="#DEDEDE" stroke="#666666" stroke-miterlimit="10" d="M455.607,0.299c-2.298,0.042-7.612,0.307-8.276,3.218
		c-0.666,2.913,5.058,10.885,10.219,10.833c5.16-0.051,6.591-4.445,6.591-8.431C464.141,1.936,461.075,0.197,455.607,0.299z"/>
	<path fill="#DEDEDE" stroke="#666666" stroke-miterlimit="10" d="M442.935,3.314c0,0,1.975-0.442,4.344,0.404"/>
	<path fill="none" stroke="#000000" stroke-miterlimit="10" d="M442.44,19.612c1.639-0.577,3.938-0.212,5.723-0.212"/>
	<path fill="#C1272D" d="M450.067,35.931c0,0,6.994,0.636,11.655,5.297c4.662,4.663,8.053,10.596,8.053,10.596l-7.927,7.934
		l-2.245-3.061c0,0,1.696,9.324,3.392,18.648c1.694,9.324,0.847,16.951,0.847,16.951s-11.017,0.424-20.554,0
		c-9.537-0.422-18.015,2.438-16.743-4.291c1.271-6.729,2.968-28.767,2.968-28.767l-2.458,2.968l-6.176-6.769
		c0,0,3.337-12.356,8.423-15.747c5.085-3.391,12.078-3.762,12.078-3.762s-1.483,4.662,4.238,5.086
		C451.34,41.439,450.067,35.931,450.067,35.931z"/>
	<path fill="#FFFFFF" stroke="#000000" stroke-miterlimit="10" d="M421.951,55.439c0,0-4.047,21.608,2.486,20.938
		c5.099-0.521,5.792-18.353,5.792-18.353L421.951,55.439"/>
	<path fill="#FFFFFF" stroke="#000000" stroke-miterlimit="10" d="M427.321,73.97c0,0,15.821-16.643,10.895-18.055
		c-4.926-1.414-13.956,11.224-13.956,11.224"/>
	<path fill="#FFFFFF" stroke="#000000" stroke-miterlimit="10" d="M468.444,51.481c0,0,14.016,16.938,7.977,19.52
		c-4.711,2.017-13.963-13.244-13.963-13.244L468.444,51.481"/>
	<path fill="#FFFFFF" stroke="#000000" stroke-miterlimit="10" d="M477.712,69.723c0,0-12.281,19.401-14.854,14.967
		c-2.572-4.433,7.482-16.272,7.482-16.272"/>
</g>
<path fill="#FFFFFF" stroke="#000000" stroke-width="3" stroke-miterlimit="10" d="M251.604,45.807
	c0,23.532-55.29,42.608-123.492,42.608c-15.095,0-29.558-0.934-42.928-2.645c-3.776-0.483-14.671,9.049-9.934,21.48
	c6.724,17.644,31.926,33.831,27.25,32.75c-3.738-0.864-31.705-8.872-45.5-26.082C43.134,96.62,41.941,76.367,38.827,75.242
	C17.635,67.593,4.619,57.224,4.619,45.807c0-23.531,55.29-42.607,123.493-42.607C196.314,3.199,251.604,22.275,251.604,45.807z"/>
<path fill="#122E59" d="M444.045,171.064c0,0,7.19,0.652,11.985,5.447c4.793,4.795,8.279,10.896,8.279,10.896l-8.15,8.16
	l-2.311-3.147c0,0,1.744,9.59,3.487,19.178s0.872,17.435,0.872,17.435s-11.328,0.437-21.138,0
	c-9.809-0.437-18.524,2.507-17.219-4.413c1.309-6.918,3.053-29.583,3.053-29.583l-2.527,3.052l-6.352-6.961
	c0,0,3.432-12.707,8.66-16.192c5.23-3.487,12.422-3.869,12.422-3.869s-1.525,4.795,4.357,5.229
	C445.351,176.73,444.045,171.064,444.045,171.064z"/>
<g display="none">
	<path display="inline" fill="#111111" d="M253.367,351.879c0,6.627,6.628,12,0,12h-63.869l-24.409-30.857
		c-6.627,0-37.056,25.484-37.056,18.857v-75.334c0-6.627,5.373-12,12-12h101.333c6.628,0,12,5.373,12,12L253.367,351.879
		L253.367,351.879z"/>
	<ellipse display="inline" fill="#444444" cx="195.7" cy="270.544" rx="67.667" ry="10.958"/>
	<path display="inline" fill="#111111" d="M209.694,230.121c0,0,13.787,3.148,14.146,13.453c0.395,11.303,0.297,12.301,0,17.014
		l-7.041-0.455l-4.658-15.006l3.729-2L209.694,230.121z"/>
	<path display="inline" fill="#111111" d="M239.843,262.244c0,0,5.357-13.865,17.357-8.865s15.5,23.5,16.5,42.5
		s-2.161,63.954-6.978,63.954c-4.817,0-21.083,4.046-21.083,4.046l25.622,1.811l9.81-2.489c0,0,3.629-49.321,3.129-68.821
		s0.273-47.35-26.5-50.5c-25.5-3-28.479,17.148-28.479,17.148L239.843,262.244z"/>
</g>
<path fill="#FFFFFF" stroke="#000000" stroke-miterlimit="10" d="M-100.769,51.798c0,39.772-31.218,73.337-61.421,83.916
	c-3.222,1.129-3.231,11.043-3.231,20.64c0,7.746-7.595,9.599-10.616,9.599c-2.516,0-12.55,1.467-14.637-5.558
	c-3.056-10.269-4.474-23.419-7.688-24.611c-28.322-10.501-58.986-44.126-58.986-83.985c0-48.26,35.053-87.382,78.29-87.382
	C-135.819-35.585-100.769,3.538-100.769,51.798z"/>
<path fill="#FFFFFF" stroke="#000000" stroke-miterlimit="10" d="M-256.627,270.389c0,0,76.124-31.861,62.129-41.709
	c-13.988-9.844-62.06,17.754-62.06,17.754"/>
<path fill="#FFFFFF" stroke="#000000" stroke-miterlimit="10" d="M-103.732,209.93c1.027,2.57,24.908,64.973,5.152,66.818
	c-16.218,1.514-29.371-53.648-29.371-53.648L-103.732,209.93"/>
<path fill="#FFFFFF" stroke="#000000" stroke-miterlimit="10" d="M-259.555,215.492c0,0-16.95,67.779,3.904,66.902
	c16.275-0.686,21.869-57.121,21.869-57.121L-259.555,215.492"/>
<path fill="#FFFFFF" stroke="#000000" stroke-miterlimit="10" d="M-102.951,254.287c0,0,55.523-39.053,56.338-21.963
	c0.815,17.086-48.246,42.883-48.246,42.883"/>
<path fill="#C1272D" d="M-160.543,149.849c0,0,20.207,2.075,35.022,16.889c14.814,14.815,26.773,43.334,26.773,43.334
	l-31.471,17.092l-2.038-11.256c0,0,5.391,29.656,10.777,59.287c5.387,29.635,2.693,53.889,2.693,53.889s-35.012,1.352-65.322,0.008
	c-30.31-1.348-57.249,7.744-53.209-13.639c4.042-21.383,9.43-91.42,9.43-91.42l-0.358,4.531l-31.627-13.074
	c0,0,13.969-45.045,30.131-55.823c16.164-10.777,43.609-9.818,43.609-9.818H-160.543L-160.543,149.849z"/>
<path fill="#0F284D" d="M128.671,318.557c0,0-3.642,30.476-4.524,39.554c-0.413,4.243-1.223,11.726-2.239,19.391
	c16.758-0.832,16.758-0.832,29.65,0.001c0.26-3.133,0.475-5.807,0.725-7.559c0.882-6.18,12.623-26.045,13.506-20.964
	c0.883,5.079,8.211,21.065,8.211,29.843c15.333-0.82,28.867-0.249,28.513-4.077c-0.821-8.859-1.686-22.533-1.686-25.766
	c0-4.63,3.526-25.771-0.003-30.201C197.293,314.344,135.069,321.004,128.671,318.557z"/>
<path display="none" fill="#FFFFFF" stroke="#000000" stroke-miterlimit="10" d="M209.141,274.869c0,0,44.358-30.92,44.895-19.723
	c0.533,11.193-31.613,28.099-31.613,28.099"/>
<path fill="#FFFFFF" stroke="#000000" stroke-miterlimit="10" d="M213.33,242.438c0,0,16.995,42.512,3.376,43.781
	c-10.627,0.993-19.245-35.152-19.245-35.152L213.33,242.438"/>
<path fill="#FFFFFF" stroke="#000000" stroke-miterlimit="10" d="M221.319,270.669c0,0,13.101,52.462,2.446,48.975
	c-10.649-3.486-15.002-39.546-15.002-39.546"/>
<path fill="#FFFFFF" stroke="#000000" stroke-miterlimit="10" d="M106.548,280.583c0,0,20.879,49.88,27.33,40.71
	c6.451-9.166-11.633-40.665-11.633-40.665"/>
<path fill="#C1272D" d="M176.104,203c0,0,13.24,1.395,22.948,11.102c9.707,9.709,17.544,28.412,17.544,28.412l-20.623,11.209
	l-1.335-7.371c0,0,3.532,19.436,7.062,38.852c3.528,19.417,1.765,35.311,1.765,35.311s-22.941,0.889-42.802,0.005
	c-19.861-0.882-37.512,5.076-34.865-8.935c2.648-14.01,6.179-59.9,6.179-59.9l-0.234,2.969l-20.724-8.566
	c0,0,9.153-29.552,19.744-36.613c10.591-7.062,28.574-6.469,28.574-6.469h16.767V203z"/>
</svg>
