<?xml version="1.0" encoding="utf-8"?>
<!-- Generator: Adobe Illustrator 16.0.0, SVG Export Plug-In . SVG Version: 6.00 Build 0)  -->
<!DOCTYPE svg PUBLIC "-//W3C//DTD SVG 1.0//EN" "http://www.w3.org/TR/2001/REC-SVG-20010904/DTD/svg10.dtd">
<svg version="1.0" id="Layer_1" xmlns="http://www.w3.org/2000/svg" xmlns:xlink="http://www.w3.org/1999/xlink" x="0px" y="0px"
	 width="406px" height="377px" viewBox="0 0 406 377" enable-background="new 0 0 406 377" xml:space="preserve">
<path opacity="0.8" fill="#FFFFFF" stroke="#000000" stroke-miterlimit="10" d="M278.02,143.561
	c0,33.543-26.329,61.85-51.802,70.771c-2.718,0.952-2.724,9.313-2.724,17.407c0,6.533-6.406,8.094-8.954,8.094
	c-2.122,0-10.584,1.238-12.345-4.686c-2.575-8.66-3.772-19.752-6.484-20.757c-23.883-8.855-49.746-37.214-49.746-70.83
	c0-40.701,29.562-73.695,66.027-73.695C248.459,69.866,278.02,102.86,278.02,143.561z"/>
<path fill="#1A1A1A" d="M149.373,120.984c0,0-0.852-8.093,3.834-5.112c4.686,2.982,10.224,8.094,18.743,7.668
	c8.52-0.426,28.115-12.779,40.042-12.779c11.928,0,31.522,12.804,41.32,12.804s17.299-12.759,19.02-8.229
	c0.92,2.421,2.411,5.248,2.411,5.248l11.37-13.658c0,0-35.356-14.91-74.121-14.91c-38.764,0-73.269,15.775-73.269,15.775
	L149.373,120.984z"/>
<path fill="#122E59" d="M138.724,109.496c0,0-10.224-10.663-10.224-24.294s20.873-18.743,35.356-29.393
	c14.483-10.65,31.949-25.559,48.136-25.559c16.188,0,27.689,15.761,37.912,21.299c10.224,5.538,37.061,14.91,43.877,27.689
	c6.815,12.779-7.668,29.393-7.668,29.393s-42.172-14.909-74.121-14.909C180.044,93.721,138.724,109.496,138.724,109.496z"/>
<path fill="#FFE9AD" stroke="#000000" stroke-miterlimit="10" d="M196.657,55.383c0,0,4.26,2.982,8.094,2.982
	c3.833,0,7.028-2.982,7.028-2.982s3.515,2.982,7.349,2.982c3.833,0,7.721-2.982,7.721-2.982s0.452,8.946-2.955,15.762
	c-3.408,6.815-12.119,14.483-12.119,14.483s-7.018-5.191-11.709-12.779C196.368,66.871,196.657,55.383,196.657,55.383z"/>
<path fill="#DEDEDE" stroke="#666666" stroke-miterlimit="10" d="M182.894,128.592c6.162,0.117,20.407,0.822,22.187,8.629
	c1.78,7.806-13.559,29.17-27.392,29.033c-13.832-0.136-17.667-11.914-17.667-22.597C160.022,132.975,168.24,128.319,182.894,128.592
	z"/>
<path fill="#DEDEDE" stroke="#666666" stroke-miterlimit="10" d="M239.049,129.141c-6.162,0.113-20.405,0.822-22.186,8.626
	c-1.781,7.808,13.558,29.173,27.391,29.035c13.833-0.137,17.666-11.915,17.666-22.597
	C261.92,133.524,253.703,128.866,239.049,129.141z"/>
<path fill="#DEDEDE" stroke="#666666" stroke-miterlimit="10" d="M205.081,137.221c0,0,5.294-1.187,11.641,1.085"/>
<path fill="none" stroke="#000000" stroke-miterlimit="10" d="M203.758,180.904c4.393-1.547,10.551-0.567,15.336-0.567"/>
<path fill="#122E59" d="M224.2,224.641c0,0,18.744,1.704,31.239,14.199c12.494,12.494,21.582,28.399,21.582,28.399l-21.246,21.266
	l-6.018-8.204c0,0,4.547,24.992,9.089,49.983c4.543,24.989,2.271,45.437,2.271,45.437s-29.527,1.135-55.09,0
	c-25.562-1.135-48.281,6.531-44.874-11.501c3.408-18.033,7.952-77.103,7.952-77.103l-6.588,7.952l-16.553-18.142
	c0,0,8.946-33.118,22.577-42.207c13.631-9.088,32.371-10.08,32.371-10.08s-3.976,12.495,11.359,13.632
	C227.607,239.407,224.2,224.641,224.2,224.641z"/>
<path fill="#FFFFFF" stroke="#000000" stroke-miterlimit="10" d="M148.837,276.928c0,0-10.848,57.919,6.666,56.125
	c13.667-1.399,15.524-49.19,15.524-49.19L148.837,276.928"/>
<path fill="#FFFFFF" stroke="#000000" stroke-miterlimit="10" d="M273.453,266.32c0,0,37.566,45.396,21.379,52.319
	c-12.631,5.401-37.426-35.498-37.426-35.498L273.453,266.32"/>
<path fill="#FFFFFF" stroke="#000000" stroke-miterlimit="10" d="M298.294,315.212c0,0-32.917,52.001-39.81,40.117
	c-6.895-11.881,20.055-43.613,20.055-43.613"/>
<path fill="#FFFFFF" stroke="#000000" stroke-miterlimit="10" d="M225.629,358.492c0,1.854-1.503,3.357-3.357,3.357h-37.731
	c-1.854,0-3.357-1.504-3.357-3.357v-55.984c0-1.854,1.503-3.357,3.357-3.357h37.731c1.854,0,3.357,1.504,3.357,3.357V358.492z"/>
<path fill="#FFFFFF" stroke="#000000" stroke-miterlimit="10" d="M150.401,332.489c0,0,59.038,17.385,56.383,3.905
	c-2.652-13.477-43.835-19.562-43.835-19.562"/>
</svg>
