<?xml version="1.0" encoding="utf-8"?>
<!-- Generator: Adobe Illustrator 15.1.0, SVG Export Plug-In . SVG Version: 6.00 Build 0)  -->
<!DOCTYPE svg PUBLIC "-//W3C//DTD SVG 1.1//EN" "http://www.w3.org/Graphics/SVG/1.1/DTD/svg11.dtd">
<svg version="1.1" id="Layer_1" xmlns="http://www.w3.org/2000/svg" xmlns:xlink="http://www.w3.org/1999/xlink" x="0px" y="0px"
	 width="406px" height="377px" viewBox="0 0 406 377" enable-background="new 0 0 406 377" xml:space="preserve">
<path display="none" fill="#7F5D25" stroke="#000000" stroke-width="0.5" stroke-miterlimit="10" d="M76.031,288.803
	c0,0,18.124,64.803-1.373,65.641c-15.21,0.654-22.345-53.998-22.345-53.998L76.031,288.803"/>
<path display="none" fill="#BD912D" stroke="#000000" stroke-width="0.5" stroke-miterlimit="10" d="M63.391,290.827
	c0,0,13.171,59.577,10.933,86.188c-3.513,0.98-7.099,1.53-15.173,0.979c-6.959-25.678-8.729-73.129-8.729-73.129"/>
<path fill="#7F5D25" stroke="#000000" stroke-width="0.5" stroke-miterlimit="10" d="M74.503,290.826
	c0,0,18.123,64.803-1.373,65.641c-15.21,0.654-22.346-53.998-22.346-53.998L74.503,290.826"/>
<path fill="#7F5D25" stroke="#000000" stroke-width="0.5" stroke-miterlimit="10" d="M141.94,295.714c0,0-15.608,54.679,1.38,54.521
	c13.256-0.118,19.393-58.683,19.393-58.683L141.94,295.714"/>
<path display="none" fill="#BD912D" stroke="#000000" stroke-width="0.5" stroke-miterlimit="10" d="M156.391,280.077
	c0,0,15.556,77.421,9.982,98.421c-5.562,0-5.562,0-10.131,0c-10.386-19-12.82-84.258-12.82-84.258"/>
<path display="none" fill="#7F5D25" stroke="#000000" stroke-width="0.5" stroke-miterlimit="10" d="M143.468,286.881
	c0,0-15.609,54.678,1.379,54.521c13.256-0.119,19.321-45.871,19.321-45.871L143.468,286.881"/>
<path fill="#7CA847" d="M118.494,239.471c0,0,16.369,2.11,27.282,17.588c10.909,15.479,18.847,35.176,18.847,35.176l-23.485,26.342
	l-0.324-10.161c0,0,3.972,38.621,7.937,69.571c-37.845,0-51.26-0.437-82.336-0.437c2.976-22.337,2.325-60.694,2.325-60.694
	l0.823,9.851l-19.388-22.47c0,0,7.812-41.021,19.716-52.276c11.904-11.257,28.27-12.483,28.27-12.483s-3.473,15.477,9.918,16.885
	C121.471,257.762,118.494,239.471,118.494,239.471z"/>
<path fill="#7F5D25" stroke="#000000" stroke-width="0.5" stroke-miterlimit="10" d="M171.022,167.811
	c0,32.367-25.405,59.682-49.985,68.291c-2.622,0.918-2.628,8.986-2.628,16.795c0,6.309-6.182,7.812-8.64,7.812
	c-2.048,0-10.215,1.193-11.913-4.521c-2.486-8.354-3.64-19.061-6.255-20.026c-23.048-8.55-48.004-35.909-48.004-68.348
	c0-39.273,28.527-71.109,63.713-71.109C142.498,96.701,171.022,128.537,171.022,167.811z"/>
<path display="none" opacity="0.8" fill="#FFFFFF" stroke="#000000" stroke-miterlimit="10" enable-background="new    " d="
	M347.286,110.351c0,24.451-19.192,45.086-37.761,51.589c-1.981,0.694-1.986,6.789-1.986,12.689c0,4.762-4.67,5.899-6.525,5.899
	c-1.548,0-7.717,0.902-9-3.416c-1.877-6.312-2.75-14.397-4.726-15.13c-17.411-6.456-36.263-27.127-36.263-51.632
	c0-29.669,21.549-53.72,48.13-53.72C325.736,56.631,347.286,80.682,347.286,110.351z"/>
<path display="none" fill="#DEDEDE" stroke="#666666" stroke-miterlimit="10" d="M277.943,99.439
	c4.492,0.085,14.875,0.599,16.174,6.29c1.298,5.69-9.885,21.264-19.967,21.164c-10.084-0.1-12.879-8.685-12.879-16.472
	S267.262,99.24,277.943,99.439z"/>
<path display="none" fill="#DEDEDE" stroke="#666666" stroke-miterlimit="10" d="M318.878,99.84
	c-4.491,0.082-14.874,0.599-16.172,6.288c-1.298,5.69,9.883,21.266,19.967,21.165c10.083-0.1,12.878-8.686,12.878-16.473
	C335.551,103.034,329.561,99.64,318.878,99.84z"/>
<path display="none" fill="#DEDEDE" stroke="#666666" stroke-miterlimit="10" d="M294.117,105.729c0,0,3.859-0.864,8.484,0.791"/>
<path display="none" fill="none" stroke="#000000" stroke-miterlimit="10" d="M293.152,137.572c3.201-1.128,7.688-0.413,11.18-0.413
	"/>
<path display="none" fill="#FFFFFF" stroke="#000000" stroke-miterlimit="10" d="M220.643,267.99"/>
<g>
	<path opacity="0.8" fill="#FFFFFF" stroke="#000000" stroke-miterlimit="10" enable-background="new    " d="M335.626,127.903
		c0,16.89-13.258,31.146-26.083,35.639c-1.371,0.478-1.375,4.69-1.375,8.766c0,3.29-3.227,4.076-4.508,4.076
		c-1.07,0-5.33,0.625-6.217-2.359c-1.299-4.359-1.898-9.946-3.266-10.454c-12.025-4.46-25.052-18.738-25.052-35.667
		c0-20.5,14.888-37.113,33.251-37.113C320.742,90.79,335.626,107.405,335.626,127.903z"/>
	<path fill="#DFDEDD" stroke="#676767" stroke-miterlimit="10" d="M286.783,120.115c3.266,0.062,10.812,0.436,11.758,4.572
		c0.943,4.137-7.188,15.459-14.516,15.386c-7.33-0.073-9.362-6.313-9.362-11.975C274.663,122.436,279.018,119.97,286.783,120.115z"
		/>
	<path fill="#DFDEDD" stroke="#676767" stroke-miterlimit="10" d="M316.541,120.407c-3.265,0.059-10.812,0.436-11.757,4.57
		c-0.943,4.138,7.186,15.461,14.516,15.387c7.33-0.073,9.362-6.314,9.362-11.976C328.662,122.729,324.308,120.261,316.541,120.407z"
		/>
	<path display="none" fill="#DFDEDD" stroke="#676767" stroke-miterlimit="10" d="M298.541,124.687c0,0,2.807-0.627,6.169,0.576"/>
	<path fill="none" stroke="#000000" stroke-miterlimit="10" d="M276.21,119.338c-1.241-4.789,7.284-4.36,10.276-4.363
		c3.996-0.003,6.521,0.519,8.988,3.635"/>
	<path fill="none" stroke="#000000" stroke-miterlimit="10" d="M306.249,119.68c-1.241-4.789,7.285-4.36,10.276-4.362
		c3.996-0.004,6.522,0.519,8.988,3.635"/>
	<path d="M295.839,146.963c3.197,0.001,7.052-1.041,10.178-0.364c3.174,0.688,5.106,3.823,1.118,5.47
		c-1.648,0.682-8.299,0.309-9.941-0.363c-2.813-1.15-3.65-4.092,0.1-5.107"/>
	<path fill="#404041" stroke="#231F20" stroke-miterlimit="10" d="M323.283,211.613c0,0,2.199-3.934,7.842,7.352
		c5.643,11.287,6.258,36.883,4.566,57.736c-1.693,20.854-14.002,8.572-24.18,10.713
		C301.332,289.555,306.471,211.613,323.283,211.613z"/>
	<path fill="#C1272D" d="M308.524,168.733c0,0,9.438,0.858,15.729,7.149c6.293,6.295,10.87,14.304,10.87,14.304l-10.7,10.709
		l-3.03-4.131c0,0,2.289,12.584,4.579,25.168c2.285,12.586,1.144,22.881,1.144,22.881s-14.87,0.571-27.742,0
		c-12.873-0.569-24.317,3.289-22.601-5.791c1.715-9.082,4.006-38.828,4.006-38.828l-3.316,4.006l-8.336-9.139
		c0,0,4.504-16.677,11.368-21.252c6.864-4.578,16.303-5.078,16.303-5.078s-2.002,6.292,5.722,6.866
		C310.241,176.167,308.524,168.733,308.524,168.733z"/>
	<path display="none" fill="#FFFFFF" stroke="#000000" stroke-miterlimit="10" d="M316.003,223.784c0,1.246-1.028,2.257-2.298,2.257
		h-25.812c-1.271,0-2.299-1.012-2.299-2.257v-37.663c0-1.247,1.028-2.259,2.299-2.259h25.812c1.27,0,2.298,1.013,2.298,2.259
		V223.784z"/>
	<path fill="#FFFFFF" stroke="#000000" stroke-miterlimit="10" d="M270.574,195.062c0,0-5.463,29.166,3.354,28.263
		c6.883-0.702,7.817-24.771,7.817-24.771L270.574,195.062"/>
	<path fill="#FFFFFF" stroke="#000000" stroke-miterlimit="10" d="M277.822,220.076c0,0,21.354-22.465,14.705-24.37
		c-6.648-1.908-18.838,15.151-18.838,15.151"/>
	<path fill="#FFFFFF" stroke="#000000" stroke-miterlimit="10" d="M333.329,189.723c0,0,18.917,22.861,10.766,26.348
		c-6.357,2.723-18.846-17.877-18.846-17.877L333.329,189.723"/>
	<path fill="#FFFFFF" stroke="#000000" stroke-miterlimit="10" d="M345.838,214.345c0,0-16.577,26.187-20.049,20.202
		s10.098-21.965,10.098-21.965"/>
	<path d="M325.744,225.15c0,0,6.908-2.029,13.248,8.188c6.342,10.215-14.582,33.551-14.582,33.551l0.568,11.23
		c0,0,28.434-30.447,20.641-49.967c-7.793-19.518-20.963-11.133-20.963-11.133L325.744,225.15z"/>
</g>
<path display="none" fill="#122E59" d="M308.054,169.454c0,0,13.664,1.242,22.772,10.351c9.105,9.107,15.73,20.701,15.73,20.701
	l-15.486,15.502l-4.389-5.98c0,0,3.314,18.221,6.627,36.438s1.654,33.121,1.654,33.121s-21.521,0.827-40.154,0
	c-18.637-0.827-35.195,4.763-32.715-8.384c2.484-13.146,5.799-56.204,5.799-56.204l-4.804,5.797l-12.063-13.226
	c0,0,6.521-24.143,16.457-30.769c9.937-6.625,23.598-7.348,23.598-7.348s-2.898,9.108,8.279,9.937
	C310.538,180.218,308.054,169.454,308.054,169.454z"/>
<path display="none" fill="#1A1A1A" d="M273.995,107.494c0,0,1.187-2.492,3.351-2.253c2.049,1.303,4.467,3.537,8.191,3.352
	c3.725-0.187,12.289-5.586,17.502-5.586s13.778,5.597,18.062,5.597c4.282,0,7.318-5.345,8.07-3.364
	c0.403,1.059,1.296,2.062,1.296,2.062l4.971-5.97c0,0-15.453-6.517-32.397-6.517c-16.942,0-32.024,6.896-32.024,6.896
	L273.995,107.494z"/>
<path display="none" fill="#122E59" d="M271.014,102.455c0,0-4.469-4.661-4.469-10.619c0-5.959,9.124-8.192,15.453-12.848
	c6.333-4.655,13.966-11.172,21.041-11.172c7.076,0,12.103,6.89,16.572,9.31c4.468,2.42,16.197,6.517,19.178,12.103
	c2.979,5.585-3.354,12.848-3.354,12.848s-18.433-6.517-32.396-6.517S271.014,102.455,271.014,102.455z"/>
<path display="none" fill="#FFFFFF" stroke="#000000" stroke-miterlimit="10" d="M324.824,276.262c0,1.854-1.503,3.356-3.357,3.356
	h-37.73c-1.854,0-3.355-1.504-3.355-3.356v-55.984c0-1.854,1.504-3.355,3.355-3.355h37.73c1.854,0,3.357,1.504,3.357,3.355V276.262z
	"/>
<path display="none" fill="#FFE9AD" stroke="#000000" stroke-miterlimit="10" d="M296.336,78.801c0,0,1.862,1.304,3.539,1.304
	c1.675,0,3.07-1.304,3.07-1.304s1.537,1.304,3.212,1.304c1.676,0,3.376-1.304,3.376-1.304s0.197,3.91-1.292,6.889
	c-1.488,2.979-5.298,6.331-5.298,6.331s-3.066-2.269-5.117-5.585C296.21,83.823,296.336,78.801,296.336,78.801z"/>
<path display="none" fill="#FFFFFF" stroke="#000000" stroke-miterlimit="10" d="M253.119,207.568c0,0-7.908,42.221,4.857,40.912
	c9.965-1.021,11.315-35.857,11.315-35.857L253.119,207.568"/>
<path display="none" fill="#0F284D" d="M264.792,276.498c0,0-3.417,28.592-4.244,37.109c-0.827,8.517-3.362,30.926-5.848,39.207
	c-2.485,8.278-9.359,24.686-0.441,24.686c7.015,0,18.207-0.486,23.487,0c5.254,0.484,1.335-13.876,4.648-22.154
	c3.312-8.279,3.723-24.839,4.551-30.636s11.684-24.437,12.512-19.669c0.829,4.768,7.543,19.766,7.543,28
	c0,8.232,2.999,44.459,2.999,44.459s31.76,6.6,28.449-4.167c-3.312-10.765-2.683-34.543-3.507-37.026
	c-0.83-2.481-2.474-26.923-2.474-31.265c0-4.343,3.319-24.177,0.011-28.336C329.166,272.547,270.795,278.794,264.792,276.498z"/>
<path display="none" fill="#FFFFFF" stroke="#000000" stroke-miterlimit="10" d="M254.259,248.07c0,0,43.036,12.673,41.101,2.847
	c-1.934-9.824-31.952-14.26-31.952-14.26"/>
<path display="none" fill="#FFFFFF" stroke="#000000" stroke-miterlimit="10" d="M343.958,199.836c0,0,27.384,33.094,15.584,38.139
	c-9.208,3.938-27.282-25.875-27.282-25.875L343.958,199.836"/>
<path display="none" fill="#FFFFFF" stroke="#000000" stroke-miterlimit="10" d="M362.064,235.477c0,0-23.994,37.905-29.021,29.242
	c-5.025-8.66,14.618-31.791,14.618-31.791"/>
<path fill="#FFFFFF" stroke="#000000" stroke-width="4" stroke-miterlimit="10" d="M254.259,62.309
	c0,10.895-7.134,21.026-19.38,29.467c-3.354,2.312-12.352,15.866-8.625,26.842c4.992,14.703,15.234,17.136,16.514,22.326
	c1.067,4.337-16.988,2.253-31.133-7.5c-13.615-9.389-28.51-21.948-33.301-21.135c-12.6,2.14-26.229,3.309-40.454,3.309
	c-64.275,0-116.38-23.867-116.38-53.309S73.605,9,137.879,9S254.259,32.867,254.259,62.309z"/>
<g>
	<path fill="#BD912D" stroke="#000000" stroke-width="0.5" stroke-miterlimit="10" d="M551.983,293.27c0,1.381-1.119,2.5-2.5,2.5
		l0,0c-1.383,0-2.5-1.119-2.5-2.5v-14c0-1.381,1.117-2.5,2.5-2.5l0,0c1.381,0,2.5,1.119,2.5,2.5V293.27z"/>
	<path fill="#BD912D" stroke="#000000" stroke-width="0.5" stroke-miterlimit="10" d="M568.983,293.27c0,1.381-1.119,2.5-2.5,2.5
		l0,0c-1.383,0-2.5-1.119-2.5-2.5v-14c0-1.381,1.117-2.5,2.5-2.5l0,0c1.381,0,2.5,1.119,2.5,2.5V293.27z"/>
	<path fill="#BD912D" stroke="#000000" stroke-width="0.5" stroke-miterlimit="10" d="M548.689,213.006
		c0,0,4.825,18.15-0.616,18.314c-4.248,0.129-6.045-15.148-6.045-15.148L548.689,213.006"/>
	<path fill="#BD912D" stroke="#000000" stroke-width="0.5" stroke-miterlimit="10" d="M567.765,211.357
		c0,0-0.942,22.848,3.681,21.119c3.604-1.35,2.486-19.779,2.486-19.779L567.765,211.357"/>
	<path fill="#1A1A1A" stroke="#000000" stroke-miterlimit="10" d="M547.446,292.604c0,0,1.967-0.426,4.396-0.062
		c2.43,0.364,2.143-0.854,2.143,1.569c0,2.429,0,9.354,0,9.354s-2.492,0.752-6.723,1.941c-16.806,4.735-12.403-5.439-12.163-8.479
		c0.243-3.037,10.579-0.513,11.31-2.332C547.137,292.777,548.194,295.641,547.446,292.604z"/>
	<path fill="#1A1A1A" stroke="#000000" stroke-miterlimit="10" d="M571.517,292.604c0,0-2.465-0.426-4.896-0.062
		s-2.64-0.854-2.64,1.569c0,2.429,0,9.354,0,9.354s2.988,0.752,7.218,1.941c16.808,4.735,12.655-5.439,12.412-8.479
		c-0.243-3.037-10.454-0.513-11.186-2.332C571.701,292.779,570.768,295.641,571.517,292.604z"/>
	<rect x="545.983" y="244.77" fill="#BD912D" stroke="#000000" stroke-width="0.5" stroke-miterlimit="10" width="22" height="17"/>
	<rect x="545.483" y="249.27" fill="#C1272D" width="17" height="4"/>
	<path fill="#D7DED1" d="M544.79,251.883c0,0-6.512,19.453-5.161,29.121c0.918,6.578,20.766,0,20.766,0l-1.067-17.438l1.067,17.438
		c0,0,19.89,5.812,18.054-1.986c-1.836-7.803-9.791-30.748-9.791-30.748L544.79,251.883"/>
	
		<line fill="none" stroke="#999999" stroke-width="0.5" stroke-miterlimit="10" x1="559.476" y1="280.545" x2="558.561" y2="265.639"/>
	<path fill="#7CA847" d="M560.99,198.096c0,0,4.567,0.59,7.612,4.908c3.047,4.32,5.263,9.818,5.263,9.818l-5.181,7.352l-1.467-2.836
		c0,0,1.107,8.641,2.215,17.279c1.107,8.641,0.557,12.496,0.557,12.496s-7.197,0.393-13.429,0
		c-6.23-0.395-11.769,2.258-10.938-3.975c0.828-6.234,1.938-23.443,1.938-23.443l-1.604,2.75l-4.032-6.271
		c0,0,2.182-11.449,5.502-14.592c3.32-3.141,7.893-3.484,7.893-3.484s-0.973,4.318,2.769,4.713
		C561.822,203.203,560.99,198.096,560.99,198.096z"/>
	<path fill="#BD912D" stroke="#000000" stroke-width="0.5" stroke-miterlimit="10" d="M569.948,225.869
		c0,0-13.317,24.207-8.511,25.219c4.25,0.895,11.076-20.148,11.076-20.148"/>
	<path fill="#BD912D" stroke="#000000" stroke-width="0.5" stroke-miterlimit="10" d="M575.651,178.096
		c0,9.033-7.093,16.656-13.951,19.061c-0.729,0.256-0.733,2.508-0.733,4.688c0,1.761-1.726,2.183-2.409,2.183
		c-0.57,0-2.854,0.332-3.324-1.264c-0.692-2.332-1.019-5.318-1.745-5.591c-6.436-2.385-13.396-10.021-13.396-19.075
		c0-10.962,7.961-19.848,17.779-19.848C567.69,158.248,575.651,167.134,575.651,178.096z"/>
	<path fill="none" stroke="#000000" stroke-width="0.5" stroke-miterlimit="10" d="M555.651,188.152
		c1.185-0.416,2.842-0.152,4.131-0.152"/>
	<path fill="#333333" stroke="#000000" stroke-miterlimit="10" d="M553.509,177.77h-5.506c0,0-0.002,2.53,2.752,2.53
		S553.509,177.77,553.509,177.77z"/>
	<path fill="#333333" stroke="#000000" stroke-miterlimit="10" d="M566.358,177.77h-5.509c0,0-0.001,2.53,2.753,2.53
		C566.357,180.3,566.358,177.77,566.358,177.77z"/>
	<line fill="none" stroke="#000000" stroke-miterlimit="10" x1="545.483" y1="176.77" x2="554.483" y2="176.77"/>
	<line fill="none" stroke="#000000" stroke-miterlimit="10" x1="557.483" y1="176.77" x2="568.483" y2="176.77"/>
	<path d="M566.382,200.91c0,0-1.552,3.959-0.552,9.709s1.651,11.344,1.651,11.344v4.307c0,0-3.634-9.061-3.634-14.912
		c0-7.306-0.866-12.705-0.866-12.705L566.382,200.91z"/>
	<path d="M546.983,220.688c0,0,2.5-9.418,2.5-13.168s-1.25-6.625-1.25-6.625l2.43-1.48c0,0,1.442,7.551,1.095,11.638
		c-0.771,9.024-4.537,13.702-4.537,13.702L546.983,220.688z"/>
</g>
<g>
	<path fill="#7F5D25" stroke="#000000" stroke-width="0.5" stroke-miterlimit="10" d="M491.825,288.77c0,1.381-1.119,2.5-2.5,2.5
		l0,0c-1.381,0-2.5-1.119-2.5-2.5v-14c0-1.381,1.119-2.5,2.5-2.5l0,0c1.381,0,2.5,1.119,2.5,2.5V288.77z"/>
	<path fill="#7F5D25" stroke="#000000" stroke-width="0.5" stroke-miterlimit="10" d="M508.825,288.77c0,1.381-1.119,2.5-2.5,2.5
		l0,0c-1.381,0-2.5-1.119-2.5-2.5v-14c0-1.381,1.119-2.5,2.5-2.5l0,0c1.381,0,2.5,1.119,2.5,2.5V288.77z"/>
	<path fill="#7F5D25" stroke="#000000" stroke-width="0.5" stroke-miterlimit="10" d="M488.531,208.504
		c0,0,4.827,18.15-0.616,18.316c-4.248,0.129-6.045-15.148-6.045-15.148L488.531,208.504"/>
	<path fill="#7F5D25" stroke="#000000" stroke-width="0.5" stroke-miterlimit="10" d="M507.606,206.857
		c0,0-0.944,22.848,3.679,21.119c3.604-1.352,2.488-19.781,2.488-19.781L507.606,206.857"/>
	<path fill="#1A1A1A" stroke="#000000" stroke-miterlimit="10" d="M487.288,288.104c0,0,1.967-0.426,4.396-0.061
		c2.432,0.361,2.143-0.857,2.143,1.57c0,2.426,0,9.354,0,9.354s-2.492,0.752-6.723,1.943c-16.806,4.734-12.403-5.443-12.161-8.48
		c0.241-3.037,10.577-0.51,11.308-2.332C486.978,288.277,488.036,291.139,487.288,288.104z"/>
	<path fill="#1A1A1A" stroke="#000000" stroke-miterlimit="10" d="M511.358,288.104c0,0-2.467-0.426-4.896-0.061
		c-2.431,0.361-2.64-0.857-2.64,1.57c0,2.426,0,9.354,0,9.354s2.988,0.752,7.218,1.943c16.807,4.734,12.655-5.443,12.412-8.48
		s-10.454-0.51-11.187-2.332C511.543,288.277,510.609,291.139,511.358,288.104z"/>
	<rect x="485.825" y="240.27" fill="#7F5D25" stroke="#000000" stroke-width="0.5" stroke-miterlimit="10" width="22" height="17"/>
	<rect x="485.325" y="244.77" fill="#C1272D" width="17" height="4"/>
	<path fill="#D7DED1" d="M484.632,247.381c0,0-6.512,19.455-5.162,29.123c0.918,6.578,20.769,0,20.769,0l-1.069-17.439l1.069,17.439
		c0,0,19.888,5.812,18.052-1.988c-1.836-7.8-9.791-30.746-9.791-30.746L484.632,247.381"/>
	
		<line fill="none" stroke="#999999" stroke-width="0.5" stroke-miterlimit="10" x1="499.317" y1="276.045" x2="498.402" y2="261.139"/>
	<path fill="#7CA847" d="M500.832,193.594c0,0,4.569,0.59,7.614,4.91c3.045,4.318,5.261,9.816,5.261,9.816l-5.179,7.352
		l-1.468-2.834c0,0,1.106,8.641,2.216,17.279c1.104,8.639,0.555,12.496,0.555,12.496s-7.197,0.393-13.428,0
		c-6.231-0.396-11.771,2.258-10.938-3.979c0.829-6.232,1.938-23.439,1.938-23.439l-1.605,2.748l-4.033-6.271
		c0,0,2.183-11.449,5.502-14.592c3.321-3.143,7.894-3.486,7.894-3.486s-0.971,4.32,2.768,4.713
		C501.664,198.701,500.832,193.594,500.832,193.594z"/>
	<path fill="#7F5D25" stroke="#000000" stroke-width="0.5" stroke-miterlimit="10" d="M509.79,221.367
		c0,0-13.318,24.209-8.51,25.221c4.249,0.893,11.077-20.148,11.077-20.148"/>
	<path fill="#7F5D25" stroke="#000000" stroke-width="0.5" stroke-miterlimit="10" d="M515.493,173.594
		c0,9.035-7.091,16.658-13.951,19.062c-0.729,0.256-0.734,2.508-0.734,4.688c0,1.762-1.725,2.184-2.406,2.184
		c-0.572,0-2.854,0.332-3.326-1.266c-0.692-2.33-1.02-5.316-1.745-5.59c-6.436-2.385-13.396-10.021-13.396-19.074
		c0-10.962,7.961-19.848,17.779-19.848C507.532,153.747,515.493,162.632,515.493,173.594z"/>
	<path fill="none" stroke="#000000" stroke-width="0.5" stroke-miterlimit="10" d="M495.493,183.651
		c1.184-0.417,2.842-0.153,4.131-0.153"/>
	<path fill="#333333" stroke="#000000" stroke-miterlimit="10" d="M493.351,173.269h-5.506c0,0-0.002,2.53,2.752,2.53
		S493.351,173.269,493.351,173.269z"/>
	<path fill="#333333" stroke="#000000" stroke-miterlimit="10" d="M506.2,173.269h-5.507c0,0-0.001,2.53,2.753,2.53
		S506.2,173.269,506.2,173.269z"/>
	<line fill="none" stroke="#000000" stroke-miterlimit="10" x1="485.325" y1="172.269" x2="494.325" y2="172.269"/>
	<line fill="none" stroke="#000000" stroke-miterlimit="10" x1="497.325" y1="172.269" x2="508.325" y2="172.269"/>
	<path d="M506.224,196.408c0,0-1.551,3.96-0.551,9.711c1,5.75,1.651,11.344,1.651,11.344v4.307c0,0-3.632-9.062-3.632-14.912
		c0-7.307-0.868-12.707-0.868-12.707L506.224,196.408z"/>
	<path d="M486.825,216.186c0,0,2.5-9.416,2.5-13.166s-1.25-6.625-1.25-6.625l2.43-1.48c0,0,1.442,7.551,1.094,11.637
		c-0.771,9.025-4.536,13.701-4.536,13.701L486.825,216.186z"/>
</g>
<path fill="#122E59" d="M453.958,213.732c0,0,7.19,0.65,11.985,5.447c4.793,4.795,8.277,10.896,8.277,10.896l-8.148,8.159
	l-2.312-3.146c0,0,1.744,9.59,3.487,19.178s0.872,17.437,0.872,17.437s-11.328,0.438-21.138,0
	c-9.811-0.438-18.524,2.507-17.221-4.413c1.311-6.918,3.055-29.583,3.055-29.583l-2.527,3.052l-6.353-6.961
	c0,0,3.433-12.707,8.659-16.191c5.23-3.486,12.422-3.869,12.422-3.869s-1.523,4.795,4.357,5.229
	C455.264,219.398,453.958,213.732,453.958,213.732z"/>
<path display="none" d="M62.25,263.054c0,0,14.274,15.761,13.236,46.755c-0.517,15.441-6.692,19.19-6.692,19.19L68.634,339
	c0,0,19.055-7,19.019-33.191c-0.048-34.516-8.083-60.673-8.083-60.673S66.25,252.25,62.25,263.054z"/>
<path display="none" d="M132.271,244.648c0,0-8.79,34.27-3.119,66.658c3.098,17.691,14.105,21.961,14.105,21.961l-1.046-11.645
	c0,0-3.211,2.375-3.961-13.875c-1.31-28.382,5.86-52.979,5.86-52.979l-4.446-4.668l-3.574-2.938L132.271,244.648z"/>
<path display="none" opacity="0.8" fill="#FFFFFF" stroke="#000000" stroke-miterlimit="10" enable-background="new    " d="
	M335.436,128.484c0,16.701-13.106,30.797-25.792,35.238c-1.354,0.475-1.354,4.637-1.354,8.667c0,3.253-3.188,4.03-4.459,4.03
	c-1.058,0-5.271,0.617-6.146-2.334c-1.281-4.312-1.877-9.834-3.229-10.334c-11.894-4.409-24.771-18.529-24.771-35.268
	c0-20.265,14.722-36.693,32.875-36.693C320.717,91.791,335.436,108.22,335.436,128.484z"/>
<path display="none" fill="#1A1A1A" d="M268.745,131.65c0,0,1.457,11.213,10.104,13.401c8.647,2.188,26.43,3.938,36.038,2.188
	c9.609-1.75,14.896-7.438,17.778-9.627c2.883-2.189,2.883-7.844,2.883-7.844L268.745,131.65z"/>
<path display="none" fill="#122E59" d="M259.404,114.271c-0.016-10.604,17.812-27.454,22.783-31.105
	c5.32-3.908,12.205-9.696,20.207-9.885c15.578-0.367,37.964,28.008,40.364,30.635c2.402,2.625,5.287,9.627,0,16.629
	c-5.287,7.003-12.879,21.883-42.719,21.883S259.415,121.926,259.404,114.271z"/>
<path fill="#C1272D" d="M463.952,81.089c0,0,8.484,0.9,14.705,7.122c6.223,6.221,11.244,18.211,11.244,18.211l-13.217,7.187
	l-0.854-4.726c0,0,2.264,12.455,4.524,24.896c2.262,12.442,1.131,22.631,1.131,22.631s-14.701,0.568-27.431,0.003
	c-12.729-0.564-24.039,3.256-22.345-5.726c1.697-8.979,3.96-38.392,3.96-38.392l-0.148,1.901l-13.28-5.489
	c0,0,5.864-18.945,12.651-23.472c6.787-4.525,18.312-4.15,18.312-4.15L463.952,81.089L463.952,81.089z"/>
<path display="none" fill="#FFFFFF" stroke="#000000" stroke-miterlimit="10" d="M334.192,194.889c0,0,10.892,27.242,2.16,28.058
	c-6.811,0.638-12.333-22.526-12.333-22.526L334.192,194.889"/>
<path display="none" fill="#FFFFFF" stroke="#000000" stroke-miterlimit="10" d="M339.512,217.08c0,0-5.411,34.229-10.82,29.5
	c-5.409-4.727,1.056-27.084,1.056-27.084"/>
<path display="none" fill="#FFFFFF" stroke="#000000" stroke-miterlimit="10" d="M268.758,197.223c0,0-7.117,28.463,1.641,28.096
	c6.834-0.287,9.185-23.984,9.185-23.984L268.758,197.223"/>
<path display="none" fill="#FFFFFF" stroke="#000000" stroke-miterlimit="10" d="M265.493,218.377c0,0,6.638,34.014,11.875,29.096
	c5.235-4.918-2.028-27.029-2.028-27.029"/>
<path fill="#0F284D" d="M279.938,243.668c0,0-2.334,19.529-2.897,25.35c-0.563,5.816-2.297,21.123-3.993,26.779
	c-1.695,5.655-5.675,17.553-0.02,19.812c5.654,2.264,13.563,6.797,16.394,4.533c2.829-2.264,0.276-16.963,2.542-22.619
	c2.264-5.654,2.543-16.965,3.107-20.926c0.563-3.959,8.021-16.689,8.584-13.438c0.566,3.258,5.19,13.502,5.19,19.127
	c0,5.623,0,26.27,0,26.27s-1.938,13.373,11.068,12.2c13.01-1.173,12.463-9.653,10.201-17.009
	c-2.265-7.354-1.688-17.534-2.254-19.229c-0.564-1.697-1.69-18.391-1.69-21.355s2.264-16.514,0.002-19.354
	C323.909,240.97,284.036,245.238,279.938,243.668z"/>
<path fill="#1A1A1A" d="M273.956,316.428c0,0,3.837-0.787,8.328-0.113c4.489,0.676,7.332,1.293,7.106,2.641
	c-0.226,1.35-2.549,5.107-2.549,9.602c0,4.492,0,17.291,0,17.291s-4.701,3.594-12.822,3.594s-11.072-1.572-10.623-7.188
	s7.396-9.434,8.742-12.801C273.486,326.083,275.342,322.041,273.956,316.428z"/>
<path fill="#1A1A1A" d="M328.87,316.428c0,0-3.836-0.787-8.326-0.113s-7.901,1.293-7.678,2.641c0.225,1.35,1.979,5.107,1.979,9.602
	c0,4.492,0,17.291,0,17.291s5.273,3.594,13.396,3.594s11.354-1.572,10.907-7.188c-0.448-5.615-7.255-9.434-8.601-12.801
	C329.2,326.083,327.487,322.041,328.87,316.428z"/>
<path display="none" fill="#343433" stroke="#000000" stroke-miterlimit="10" d="M141.919,164.667c0,5.002-4.111,9.055-9.183,9.055
	c-5.069,0-9.181-4.053-9.181-9.055c0-5.003,4.111-8.388,9.181-8.388C137.808,156.279,141.919,159.664,141.919,164.667z"/>
<path display="none" fill="#343433" stroke="#000000" stroke-miterlimit="10" d="M89.518,164.622c0,5.003-4.11,9.055-9.181,9.055
	c-5.071,0-9.183-4.052-9.183-9.055c0-4.999,4.111-9.242,9.183-9.242C85.407,155.379,89.518,159.623,89.518,164.622z"/>
<path display="none" fill="none" stroke="#000000" stroke-miterlimit="10" d="M66.9,151.059c8.353-1.995,16.206-4.452,25.097-2.32"
	/>
<path display="none" fill="none" stroke="#000000" stroke-miterlimit="10" d="M121.459,149.764
	c9.035-3.594,16.671-2.538,25.074,0.988"/>
<path display="none" fill="none" stroke="#000000" stroke-miterlimit="10" d="M97.515,207.816c7.265,2.76,14.317,0.299,19.333-4.668
	"/>
<path display="none" fill="none" stroke="#000000" stroke-miterlimit="10" d="M100.749,202.594
	c4.706-1.658,11.305-0.607,16.434-0.607"/>
<path display="none" fill="#343433" stroke="#000000" stroke-miterlimit="10" d="M92.226,157.789H70.314c0,0,0,10.066,10.957,10.066
	C92.226,167.855,92.226,157.789,92.226,157.789z"/>
<path display="none" fill="#343433" stroke="#000000" stroke-miterlimit="10" d="M143.351,157.789h-21.91
	c0,0-0.001,10.066,10.954,10.066C143.353,167.855,143.351,157.789,143.351,157.789z"/>
<line display="none" fill="none" stroke="#000000" stroke-miterlimit="10" x1="57.588" y1="155.568" x2="100.897" y2="155.568"/>
<line display="none" fill="none" stroke="#000000" stroke-miterlimit="10" x1="113.113" y1="155.568" x2="154.202" y2="155.568"/>
<path display="none" fill="none" stroke="#000000" stroke-miterlimit="10" d="M296.562,152.36c4.604,0,9.692,0.795,13.633-1.778"/>
<path display="none" fill="none" stroke="#231F20" stroke-miterlimit="10" d="M276.412,114.429c5.214,0,12.443-1.651,16.002,2.963"
	/>
<path display="none" fill="none" stroke="#231F20" stroke-miterlimit="10" d="M324.916,114.869c-5.214,0-12.443-1.651-16.002,2.963"
	/>
<path fill="none" stroke="#000000" stroke-miterlimit="10" d="M95.816,199.875c-0.214,3.369,3.963,7.487,7.757,6.98
	c4.38-0.58,3.386-4.167,6.675-6.182c5.507-3.371,10.092-0.735,11.805,5.376"/>
<path fill="none" stroke="#000000" stroke-miterlimit="10" d="M121.231,148.722c0,0,4.935-6.001,10.601-1.334
	s3.803,9.334,3.803,9.334"/>
<path fill="none" stroke="#000000" stroke-miterlimit="10" d="M82.587,157.143c0,0-3.763-6.798,2.662-10.348s10.078-0.1,10.078-0.1"
	/>
<ellipse fill="#343433" stroke="#000000" stroke-miterlimit="10" cx="91.617" cy="160.805" rx="6.215" ry="7.919"/>
<path fill="#343433" stroke="#000000" stroke-miterlimit="10" d="M131.832,161.637c0,4.374-2.782,5.919-6.215,5.919
	s-6.215-1.545-6.215-5.919c0-4.373,2.782-8.918,6.215-8.918S131.832,157.264,131.832,161.637z"/>
</svg>
