<?xml version="1.0" encoding="utf-8"?>
<!-- Generator: Adobe Illustrator 16.0.0, SVG Export Plug-In . SVG Version: 6.00 Build 0)  -->
<!DOCTYPE svg PUBLIC "-//W3C//DTD SVG 1.0//EN" "http://www.w3.org/TR/2001/REC-SVG-20010904/DTD/svg10.dtd">
<svg version="1.0" id="Layer_1" xmlns="http://www.w3.org/2000/svg" xmlns:xlink="http://www.w3.org/1999/xlink" x="0px" y="0px"
	 width="406px" height="377px" viewBox="0 0 406 377" enable-background="new 0 0 406 377" xml:space="preserve">
<polygon fill="#F2F2F2" points="23,210 185,207 405.5,376.5 82.021,376.678 "/>
<polygon fill="#CCCCCC" points="22.5,210 22.5,223 69.516,377.5 82,377.5 "/>
<polygon fill="#D9D9D9" points="404.5,377 404.5,0.5 184.5,0.5 184.5,207 "/>
<polygon fill="#F2F2F2" points="23,210 185,207 405.5,376.5 82.021,376.678 "/>
<polygon fill="#CCCCCC" points="22.5,210 22.5,223 69.516,377.5 82,377.5 "/>
<polygon fill="#D9D9D9" points="404.5,377 404.5,0.5 184.5,0.5 184.5,207 "/>
<linearGradient id="SVGID_1_" gradientUnits="userSpaceOnUse" x1="57.5" y1="94.5" x2="72.5" y2="94.5">
	<stop  offset="0" style="stop-color:#E6E6E6"/>
	<stop  offset="1" style="stop-color:#A6A6A6"/>
</linearGradient>
<rect x="57.5" y="0.5" fill="url(#SVGID_1_)" width="15" height="188"/>
<polygon fill="#999999" points="80.5,183 88.334,219 57.51,225.544 61,185.667 "/>
<path fill="#FFFFFF" stroke="#000000" stroke-miterlimit="10" d="M96.868,89.165c0,12.87-10.103,23.731-19.876,27.154
	c-1.042,0.365-1.045,3.573-1.045,6.679c0,2.507-2.458,3.105-3.436,3.105c-0.813,0-4.061,0.475-4.736-1.798
	c-0.988-3.323-1.447-7.579-2.487-7.964c-9.164-3.397-19.087-14.278-19.087-27.176c0-15.616,11.343-28.275,25.333-28.275
	C85.526,60.889,96.868,73.548,96.868,89.165z"/>
<path fill="#1A1A1A" d="M47.509,80.502c0,0-0.327-3.105,1.471-1.961s3.923,3.105,7.191,2.942c3.269-0.163,10.787-4.903,15.363-4.903
	c4.577,0,12.095,4.913,15.854,4.913c3.759,0,6.637-4.896,7.297-3.157c0.354,0.929,0.926,2.014,0.926,2.014l4.362-5.24
	c0,0-13.565-5.721-28.439-5.721c-14.873,0-28.111,6.052-28.111,6.052L47.509,80.502z"/>
<path fill="#122E59" d="M43.423,76.094c0,0-3.923-4.091-3.923-9.321s8.009-7.191,13.565-11.277
	c5.558-4.086,12.259-9.807,18.469-9.807c6.211,0,10.624,6.047,14.547,8.172c3.923,2.125,14.22,5.721,16.834,10.624
	c2.615,4.903-2.941,11.277-2.941,11.277s-16.181-5.721-28.439-5.721C59.276,70.042,43.423,76.094,43.423,76.094z"/>
<path fill="#FFE9AD" stroke="#000000" stroke-miterlimit="10" d="M65.65,55.332c0,0,1.635,1.144,3.105,1.144
	c1.472,0,2.697-1.144,2.697-1.144s1.348,1.144,2.819,1.144c1.471,0,2.962-1.144,2.962-1.144s0.174,3.432-1.134,6.047
	c-1.308,2.615-4.649,5.557-4.649,5.557s-2.692-1.992-4.493-4.903C65.54,59.739,65.65,55.332,65.65,55.332z"/>
<path fill="#DEDEDE" stroke="#666666" stroke-miterlimit="10" d="M60.37,83.421c2.364,0.044,7.829,0.315,8.513,3.31
	c0.683,2.996-5.202,11.193-10.51,11.141c-5.308-0.053-6.778-4.572-6.778-8.67C51.595,85.103,54.747,83.316,60.37,83.421z"/>
<path fill="#DEDEDE" stroke="#666666" stroke-miterlimit="10" d="M81.916,83.631c-2.364,0.044-7.829,0.315-8.513,3.311
	c-0.683,2.995,5.202,11.192,10.51,11.14c5.308-0.052,6.778-4.571,6.778-8.67S87.538,83.526,81.916,83.631z"/>
<path fill="#DEDEDE" stroke="#666666" stroke-miterlimit="10" d="M68.883,86.731c0,0,2.031-0.455,4.466,0.417"/>
<path fill="none" stroke="#000000" stroke-miterlimit="10" d="M68.376,103.493c1.685-0.594,4.048-0.218,5.884-0.218"/>
<path fill="#122E59" d="M76.219,120.273c0,0,7.191,0.654,11.985,5.448s8.281,10.896,8.281,10.896l-8.152,8.16l-2.309-3.147
	c0,0,1.744,9.589,3.487,19.177s0.872,17.434,0.872,17.434s-11.329,0.436-21.138,0c-9.808-0.436-18.524,2.506-17.217-4.413
	c1.307-6.918,3.051-29.583,3.051-29.583l-2.527,3.051l-6.352-6.96c0,0,3.433-12.707,8.662-16.194
	c5.23-3.487,12.421-3.868,12.421-3.868s-1.526,4.794,4.357,5.23C77.525,125.939,76.219,120.273,76.219,120.273z"/>
<path fill="#FFFFFF" stroke="#000000" stroke-miterlimit="10" d="M47.303,140.335c0,0-4.162,22.223,2.558,21.534
	c5.244-0.537,5.957-18.874,5.957-18.874L47.303,140.335"/>
<path fill="#FFFFFF" stroke="#000000" stroke-miterlimit="10" d="M47.903,161.653c0,0,22.652,6.67,21.633,1.499
	c-1.018-5.171-16.819-7.506-16.819-7.506"/>
<path fill="#FFFFFF" stroke="#000000" stroke-miterlimit="10" d="M95.116,136.265c0,0,14.413,17.418,8.203,20.074
	c-4.847,2.073-14.36-13.62-14.36-13.62L95.116,136.265"/>
<path fill="#FFFFFF" stroke="#000000" stroke-miterlimit="10" d="M104.646,155.023c0,0-12.629,19.953-15.273,15.393
	c-2.646-4.559,7.694-16.733,7.694-16.733"/>
<path fill="#0F284D" d="M53.447,176.616c0,0-1.798,15.05-2.233,19.532c-0.437,4.483-1.771,16.278-3.078,20.637
	c-1.308,4.359-4.372,13.526-0.015,15.27c4.359,1.742,10.454,5.236,12.633,3.492c2.18-1.743,0.215-13.072,1.959-17.43
	c1.742-4.358,1.959-13.074,2.396-16.125c0.435-3.051,6.067-12.862,6.503-10.354c0.436,2.51,3.889,10.404,3.889,14.738
	s0,20.242,0,20.242s-1.385,10.306,8.641,9.402s9.659-7.44,7.916-13.106c-1.742-5.667-1.271-13.512-1.706-14.819
	c-0.437-1.307-1.29-14.17-1.29-16.455c0-2.286,1.751-12.726,0.009-14.916C87.325,174.536,56.607,177.825,53.447,176.616z"/>
<path fill="#1A1A1A" d="M48.84,232.029c0,0,2.956-0.605,6.417-0.087c3.46,0.519,5.515,0.995,5.343,2.034
	c-0.174,1.037-2.1,3.936-2.1,7.396s0,13.324,0,13.324s-3.488,2.769-9.746,2.769c-6.26,0-8.465-1.212-8.118-5.538
	c0.346-4.325,5.731-7.267,6.77-9.863C48.443,239.47,49.906,236.355,48.84,232.029z"/>
<path fill="#1A1A1A" d="M90.22,233.975c0,0-2.793-0.572-6.062-0.082c-3.27,0.49-4.199,0.285-4.035,1.267
	c0.162,0.98,0.377,4.372,0.377,7.641s0,12.585,0,12.585S90.004,258,95.914,258c5.912,0,5.892-1.471,5.565-5.557
	c-0.327-4.086-8.999-6.538-9.98-8.99C90.519,241.002,89.211,238.061,90.22,233.975z"/>
<path fill="#666666" stroke="#000000" stroke-miterlimit="10" d="M241.834,282.498c0,0-35.879,70.658-53.462,55.861
	c-13.721-11.546,23.607-64.646,23.607-64.646L241.834,282.498"/>
<path fill="#666666" stroke="#000000" stroke-miterlimit="10" d="M317.463,274.144c0,0,28.351,60.665,43.334,47.405
	c11.693-10.344-18.253-55.703-18.253-55.703L317.463,274.144"/>
<path fill="#7CA847" d="M289.382,200.845c0,0,19.278,2.486,32.129,20.713c12.85,18.226,22.196,41.425,22.196,41.425l-21.851,31.021
	l-6.188-11.966c0,0,4.677,36.454,9.347,72.906c1.05,8.189,1.745,15.359,2.193,21.557c-38.208,0-80.185,1.062-101.044-2
	c3.17-31.876,6.559-82.521,6.559-82.521l-6.774,11.6l-17.025-26.461c0,0,9.2-48.311,23.22-61.566s33.293-14.706,33.293-14.706
	s-4.091,18.228,11.68,19.884C292.888,222.386,289.382,200.845,289.382,200.845z"/>
<path fill="#666666" stroke="#000000" stroke-miterlimit="10" d="M363.828,314.514c0,0,47.363-154.961,22.05-147.745
	c-22.376,6.377-39.381,128.956-39.381,128.956"/>
<path fill="#666666" stroke="#000000" stroke-miterlimit="10" d="M184.289,335.812c0,0-47.361-154.96-22.048-147.744
	c22.376,6.377,39.381,128.955,39.381,128.955"/>
<path fill="#666666" stroke="#000000" stroke-miterlimit="10" d="M351.244,116.452c0,38.118-29.921,70.287-58.867,80.425
	c-3.088,1.081-3.096,10.584-3.096,19.781c0,7.424-7.279,9.197-10.175,9.197c-2.411,0-12.028,1.406-14.028-5.324
	c-2.928-9.842-4.287-22.447-7.368-23.588c-27.143-10.064-56.532-42.29-56.532-80.491c0-46.252,33.596-83.747,75.033-83.747
	C317.652,32.706,351.244,70.2,351.244,116.452z"/>
<path fill="none" stroke="#000000" stroke-miterlimit="10" d="M266.854,158.89c4.99-1.76,11.989-0.646,17.428-0.646"/>
<path fill="#333333" stroke="#000000" stroke-miterlimit="10" d="M257.816,111H234.58c0,0-0.002,10.677,11.618,10.677
	S257.816,111,257.816,111z"/>
<path fill="#333333" stroke="#000000" stroke-miterlimit="10" d="M312.033,111h-23.235c0,0-0.003,10.677,11.618,10.677
	C312.036,121.677,312.033,111,312.033,111z"/>
<line fill="#333333" stroke="#000000" stroke-miterlimit="10" x1="222.5" y1="109" x2="266.5" y2="109"/>
<line fill="#333333" stroke="#000000" stroke-miterlimit="10" x1="278.5" y1="109" x2="323.5" y2="109"/>
<path d="M227.598,221.246c0,0,14.07,15.754,13.236,46.754s-10.556,57.983-10.556,57.983l-1.122,14.413
	c0,0,24.844-41.896,23.844-76.396s-6.362-57.984-6.362-57.984S232.513,211.908,227.598,221.246z"/>
<path d="M297.5,204.271c0,0-8,32.729-3,65.229s27.565,62.428,27.565,62.428l-4.603-32.428c0,0-8.041-5.309-10.002-33.654
	S310.224,210,310.224,210L297.5,204.271z"/>
</svg>
