<?xml version="1.0" encoding="utf-8"?>
<!-- Generator: Adobe Illustrator 16.0.0, SVG Export Plug-In . SVG Version: 6.00 Build 0)  -->
<!DOCTYPE svg PUBLIC "-//W3C//DTD SVG 1.0//EN" "http://www.w3.org/TR/2001/REC-SVG-20010904/DTD/svg10.dtd">
<svg version="1.0" id="Layer_1" xmlns="http://www.w3.org/2000/svg" xmlns:xlink="http://www.w3.org/1999/xlink" x="0px" y="0px"
	 width="406px" height="377px" viewBox="0 0 406 377" enable-background="new 0 0 406 377" xml:space="preserve">
<path fill="#666666" stroke="#000000" stroke-miterlimit="10" d="M76.031,288.803c0,0,18.124,64.802-1.373,65.639
	c-15.21,0.655-22.345-53.996-22.345-53.996L76.031,288.803"/>
<path fill="#666666" stroke="#000000" stroke-miterlimit="10" d="M143.468,286.881c0,0-15.609,54.677,1.379,54.521
	c13.256-0.119,19.321-45.871,19.321-45.871L143.468,286.881"/>
<path fill="#7CA847" d="M118.494,239.471c0,0,16.369,2.11,27.282,17.588c10.909,15.477,18.847,35.175,18.847,35.175l-23.485,26.34
	l-0.324-10.161c0,0,3.972,38.621,7.937,69.572c-37.845,0-51.26-0.435-82.336-0.435c2.976-22.337,2.325-60.695,2.325-60.695
	l0.823,9.849l-19.388-22.468c0,0,7.812-41.021,19.716-52.278c11.904-11.257,28.27-12.486,28.27-12.486s-3.473,15.477,9.918,16.885
	C121.471,257.762,118.494,239.471,118.494,239.471z"/>
<path fill="#666666" stroke="#000000" stroke-miterlimit="10" d="M171.022,167.811c0,32.367-25.405,59.682-49.985,68.29
	c-2.622,0.919-2.628,8.987-2.628,16.796c0,6.306-6.182,7.811-8.64,7.811c-2.048,0-10.215,1.195-11.913-4.521
	c-2.486-8.356-3.64-19.06-6.255-20.028c-23.048-8.547-48.004-35.909-48.004-68.348c0-39.273,28.527-71.109,63.713-71.109
	C142.498,96.701,171.022,128.537,171.022,167.811z"/>
<path fill="none" stroke="#000000" stroke-miterlimit="10" d="M99.365,203.846c4.238-1.493,10.181-0.547,14.799-0.547"/>
<path fill="#333333" stroke="#000000" stroke-miterlimit="10" d="M91.691,163.5H71.96c0,0,0,9.065,9.866,9.065
	S91.691,163.5,91.691,163.5z"/>
<path fill="#333333" stroke="#000000" stroke-miterlimit="10" d="M137.728,163.5h-19.729c0,0-0.001,9.065,9.865,9.065
	S137.728,163.5,137.728,163.5z"/>
<line fill="#333333" stroke="#000000" stroke-miterlimit="10" x1="60.5" y1="161.5" x2="99.5" y2="161.5"/>
<line fill="#333333" stroke="#000000" stroke-miterlimit="10" x1="110.5" y1="161.5" x2="147.5" y2="161.5"/>
<path opacity="0.8" fill="#FFFFFF" stroke="#000000" stroke-miterlimit="10" d="M347.286,110.351
	c0,24.451-19.192,45.086-37.761,51.589c-1.981,0.694-1.986,6.789-1.986,12.689c0,4.762-4.67,5.899-6.526,5.899
	c-1.547,0-7.716,0.902-8.999-3.416c-1.878-6.312-2.75-14.397-4.726-15.13c-17.411-6.456-36.263-27.127-36.263-51.632
	c0-29.669,21.549-53.72,48.13-53.72C325.737,56.631,347.286,80.682,347.286,110.351z"/>
<path fill="#1A1A1A" d="M253.509,93.894c0,0-0.62-5.899,2.795-3.727c3.416,2.174,7.452,5.9,13.663,5.59
	c6.21-0.311,20.494-9.315,29.188-9.315s22.979,9.333,30.12,9.333c7.143,0,12.61-9.301,13.864-5.998
	c0.671,1.766,1.758,3.826,1.758,3.826l8.288-9.956c0,0-25.772-10.868-54.03-10.868c-28.257,0-53.409,11.499-53.409,11.499
	L253.509,93.894z"/>
<path fill="#122E59" d="M245.746,85.52c0,0-7.452-7.773-7.452-17.71s15.215-13.662,25.772-21.426
	c10.559-7.763,23.289-18.631,35.089-18.631s20.184,11.489,27.637,15.526c7.452,4.036,27.015,10.868,31.983,20.184
	c4.968,9.315-5.59,21.426-5.59,21.426s-30.741-10.868-54.03-10.868S245.746,85.52,245.746,85.52z"/>
<path fill="#FFE9AD" stroke="#000000" stroke-miterlimit="10" d="M287.977,46.073c0,0,3.105,2.174,5.9,2.174S299,46.073,299,46.073
	s2.562,2.174,5.356,2.174c2.795,0,5.628-2.174,5.628-2.174s0.33,6.521-2.154,11.489c-2.483,4.969-8.834,10.558-8.834,10.558
	s-5.114-3.784-8.535-9.315C287.766,54.448,287.977,46.073,287.977,46.073z"/>
<path fill="#DEDEDE" stroke="#666666" stroke-miterlimit="10" d="M277.944,99.439c4.491,0.085,14.875,0.599,16.173,6.29
	c1.298,5.69-9.884,21.264-19.967,21.164c-10.084-0.1-12.878-8.685-12.878-16.472C261.272,102.634,267.262,99.24,277.944,99.439z"/>
<path fill="#DEDEDE" stroke="#666666" stroke-miterlimit="10" d="M318.878,99.84c-4.491,0.082-14.874,0.599-16.172,6.288
	c-1.298,5.69,9.883,21.266,19.967,21.165c10.083-0.1,12.878-8.686,12.878-16.473C335.551,103.034,329.561,99.64,318.878,99.84z"/>
<path fill="#DEDEDE" stroke="#666666" stroke-miterlimit="10" d="M294.117,105.729c0,0,3.859-0.864,8.485,0.791"/>
<path fill="none" stroke="#000000" stroke-miterlimit="10" d="M293.153,137.572c3.201-1.128,7.69-0.413,11.179-0.413"/>
<path fill="#FFFFFF" stroke="#000000" stroke-miterlimit="10" d="M220.642,267.99"/>
<path fill="#122E59" d="M308.054,169.454c0,0,13.664,1.242,22.772,10.351c9.108,9.107,15.732,20.701,15.732,20.701l-15.487,15.502
	l-4.387-5.98c0,0,3.314,18.218,6.626,36.436c3.311,18.216,1.655,33.121,1.655,33.121s-21.524,0.827-40.157,0
	c-18.634-0.827-35.195,4.761-32.712-8.384c2.484-13.146,5.797-56.204,5.797-56.204l-4.802,5.797l-12.066-13.224
	c0,0,6.521-24.142,16.457-30.768c9.937-6.625,23.598-7.348,23.598-7.348s-2.899,9.108,8.279,9.937
	C310.538,180.218,308.054,169.454,308.054,169.454z"/>
<path fill="#FFFFFF" stroke="#000000" stroke-miterlimit="10" d="M253.119,207.569c0,0-7.908,42.22,4.858,40.912
	c9.964-1.021,11.317-35.858,11.317-35.858L253.119,207.569"/>
<path fill="#FFFFFF" stroke="#000000" stroke-miterlimit="10" d="M254.259,248.07c0,0,43.036,12.673,41.101,2.847
	c-1.934-9.824-31.955-14.26-31.955-14.26"/>
<path fill="#FFFFFF" stroke="#000000" stroke-miterlimit="10" d="M343.958,199.836c0,0,27.384,33.093,15.584,38.139
	c-9.208,3.938-27.282-25.876-27.282-25.876L343.958,199.836"/>
<path fill="#FFFFFF" stroke="#000000" stroke-miterlimit="10" d="M362.064,235.476c0,0-23.994,37.906-29.019,29.243
	c-5.025-8.66,14.618-31.791,14.618-31.791"/>
<path fill="#0F284D" d="M264.792,276.498c0,0-3.417,28.592-4.244,37.109c-0.828,8.518-3.363,30.926-5.848,39.207
	s-9.359,24.686-0.441,24.686c7.014,0,18.207-0.486,23.487,0c5.254,0.484,1.335-13.876,4.648-22.155
	c3.312-8.28,3.723-24.838,4.551-30.635s11.684-24.437,12.512-19.669c0.829,4.767,7.543,19.766,7.543,28
	c0,8.233,2.999,44.459,2.999,44.459s31.76,6.599,28.449-4.167c-3.312-10.765-2.68-34.543-3.507-37.027
	c-0.829-2.483-2.471-26.922-2.471-31.264c0-4.343,3.319-24.177,0.008-28.336C329.166,272.547,270.795,278.794,264.792,276.498z"/>
</svg>
