<?xml version="1.0" encoding="utf-8"?>
<!-- Generator: Adobe Illustrator 16.0.0, SVG Export Plug-In . SVG Version: 6.00 Build 0)  -->
<!DOCTYPE svg PUBLIC "-//W3C//DTD SVG 1.0//EN" "http://www.w3.org/TR/2001/REC-SVG-20010904/DTD/svg10.dtd">
<svg version="1.0" id="Layer_1" xmlns="http://www.w3.org/2000/svg" xmlns:xlink="http://www.w3.org/1999/xlink" x="0px" y="0px"
	 width="406px" height="377px" viewBox="0 0 406 377" enable-background="new 0 0 406 377" xml:space="preserve">
<polygon fill="#D9D9D9" points="406.304,0.348 406.651,126.807 26.975,156.021 23.141,0 "/>
<rect x="0.5" y="0.5" fill="#999999" width="18" height="156"/>
<path fill="#F2F2F2" d="M0.616,162.294L0.56,246.232c0,0-2.837,7.066,25.941,3.689c39.569-4.646,378.998-41.896,378.998-41.896
	v-81.219L22.09,155.881"/>
<polygon fill="#BFBFBF" points="0.562,152.538 18.845,157.274 0.617,162.294 "/>
<polygon fill="#B3B3B3" points="32.253,206.865 24.939,199.9 12.635,204.545 18.529,210.35 "/>
<path fill="#CCCCCC" d="M406,215.818c0,0-292.594,28.179-353.276,38.467c-60.682,10.287-53.224,0-53.224,0v-8.053
	c0,0-7.458,10.287,53.224,0c60.683-10.287,353.102-38.467,353.102-38.467L406,215.818z"/>
<rect x="26.5" y="28.5" fill="#808080" width="64" height="19"/>
<linearGradient id="SVGID_1_" gradientUnits="userSpaceOnUse" x1="-471.5" y1="339.5" x2="-461.5" y2="339.5" gradientTransform="matrix(1 0 0 1 488 -234)">
	<stop  offset="0" style="stop-color:#E6E6E6"/>
	<stop  offset="1" style="stop-color:#A6A6A6"/>
</linearGradient>
<rect x="16.5" y="0.5" fill="url(#SVGID_1_)" width="10" height="210"/>
<polygon fill="#999999" points="32.253,206.865 37.709,231.939 16.24,236.499 18.671,208.725 "/>
<polygon fill="#666666" points="18.671,208.725 12.635,204.545 6.134,228.227 16.24,236.499 "/>
<path fill="#666666" stroke="#000000" stroke-miterlimit="10" d="M213,189c0,1.104-0.896,2-2,2l0,0c-1.104,0-2-0.896-2-2v-11
	c0-1.104,0.896-2,2-2l0,0c1.104,0,2,0.896,2,2V189z"/>
<path fill="#666666" stroke="#000000" stroke-miterlimit="10" d="M227,189c0,1.104-0.896,2-2,2l0,0c-1.104,0-2-0.896-2-2v-11
	c0-1.104,0.896-2,2-2l0,0c1.104,0,2,0.896,2,2V189z"/>
<path fill="#666666" stroke="#000000" stroke-miterlimit="10" d="M210.516,126.809c0,0,3.764,14.151-0.479,14.279
	c-3.312,0.101-4.716-11.811-4.716-11.811L210.516,126.809"/>
<path fill="#666666" stroke="#000000" stroke-miterlimit="10" d="M225.386,125.524c0,0-0.735,17.813,2.868,16.465
	c2.812-1.051,1.939-15.421,1.939-15.421L225.386,125.524"/>
<path fill="#1A1A1A" stroke="#000000" stroke-miterlimit="10" d="M209.545,188.867c0,0,1.213-0.332,3.107-0.047
	c1.894,0.286,1.348-0.668,1.348,1.226c0,1.894,0,7.291,0,7.291s-1.623,0.586-4.918,1.517c-13.103,3.69-9.513-4.244-9.323-6.61
	c0.19-2.367,8.328-0.396,8.896-1.816C209.225,189.003,210.128,191.234,209.545,188.867z"/>
<path fill="#1A1A1A" stroke="#000000" stroke-miterlimit="10" d="M228.311,188.867c0,0-1.641-0.332-3.533-0.047
	c-1.896,0.284-1.775-0.668-1.775,1.226c0,1.894,0,7.291,0,7.291s2.05,0.586,5.348,1.517c13.104,3.69,9.727-4.244,9.535-6.61
	c-0.191-2.367-8.222-0.396-8.789-1.816C228.523,189.003,227.729,191.234,228.311,188.867z"/>
<rect x="209" y="151" fill="#666666" stroke="#000000" stroke-miterlimit="10" width="16" height="14"/>
<rect x="207.5" y="155.5" fill="#C1272D" width="13" height="3"/>
<path fill="#D7DED1" d="M207.475,157.118c0,0-5.078,15.167-4.023,22.706c0.716,5.127,16.188,0,16.188,0l-0.834-13.596l0.834,13.596
	c0,0,15.506,4.531,14.074-1.551c-1.432-6.083-7.635-23.972-7.635-23.972L207.475,157.118"/>
<line fill="none" stroke="#999999" stroke-miterlimit="10" x1="218.923" y1="179.466" x2="218.21" y2="167.845"/>
<path fill="#7CA847" d="M220.104,115.185c0,0,3.562,0.459,5.938,3.827c2.375,3.368,4.103,7.654,4.103,7.654l-4.037,5.731
	l-1.145-2.211c0,0,0.863,6.736,1.729,13.471c0.861,6.736,0.433,9.742,0.433,9.742s-5.612,0.306-10.47,0
	c-4.858-0.306-9.176,1.76-8.527-3.1c0.646-4.86,1.512-18.276,1.512-18.276l-1.252,2.143l-3.146-4.889c0,0,1.698-8.927,4.29-11.376
	c2.59-2.449,6.15-2.717,6.15-2.717s-0.757,3.368,2.157,3.674S220.104,115.185,220.104,115.185z"/>
<path fill="#666666" stroke="#000000" stroke-miterlimit="10" d="M226.021,136.449c0,0-0.396,21.538,3.289,20.489
	c3.258-0.927,0.322-17.923,0.322-17.923"/>
<path fill="#666666" stroke="#000000" stroke-miterlimit="10" d="M231.535,99.591c0,7.043-5.528,12.987-10.878,14.86
	c-0.569,0.2-0.571,1.956-0.571,3.655c0,1.372-1.346,1.7-1.88,1.7c-0.446,0-2.224,0.26-2.593-0.984
	c-0.54-1.818-0.793-4.147-1.36-4.358c-5.017-1.859-10.446-7.813-10.446-14.872c0-8.546,6.207-15.474,13.864-15.474
	S231.535,91.045,231.535,99.591z"/>
<path fill="none" stroke="#000000" stroke-miterlimit="10" d="M215.941,107.433c0.923-0.325,2.216-0.119,3.221-0.119"/>
<path fill="#333333" stroke="#000000" stroke-miterlimit="10" d="M214.271,99h-4.293c0,0,0,1.973,2.146,1.973S214.271,99,214.271,99
	z"/>
<path fill="#333333" stroke="#000000" stroke-miterlimit="10" d="M224.29,99h-4.294c0,0,0,1.973,2.146,1.973
	C224.29,100.973,224.29,99,224.29,99z"/>
<line fill="none" stroke="#000000" stroke-miterlimit="10" x1="207.5" y1="98" x2="215.5" y2="98"/>
<line fill="none" stroke="#000000" stroke-miterlimit="10" x1="217.5" y1="98" x2="225.5" y2="98"/>
<path fill="#FFFFFF" stroke="#000000" stroke-miterlimit="10" enable-background="new    " d="M178.678,226.756
	c0,37.133-29.146,68.471-57.346,78.346c-3.009,1.057-3.016,10.312-3.016,19.271c0,7.229-7.092,8.959-9.913,8.959
	c-2.349,0-11.718,1.371-13.667-5.188c-2.852-9.586-4.176-21.863-7.177-22.979c-26.441-9.804-55.071-41.196-55.071-78.41
	c0-45.057,32.727-81.583,73.095-81.583C145.953,145.173,178.678,181.699,178.678,226.756z"/>
<path fill="#C1272D" d="M122.869,318.5c0,0,18.865,1.836,32.697,15.669c13.833,13.832,24.998,42.408,24.998,42.408L30.13,376.648
	c0,0,13.042-38.99,28.133-49.053c15.09-10.061,40.714-9.098,40.714-9.098L122.869,318.5L122.869,318.5z"/>
<path d="M223,116.28c0,0,1.475,0.942,2,1.513c0.525,0.571-1.5,4.137-1,7.738c0.5,3.601,1.5,6.594,1.5,6.594v4.375
	c0,0-3.34-6.25-3.357-11.625C222.126,119.5,223,116.28,223,116.28z"/>
<path d="M209.527,117.902c0,0,1.598,2.723,1.473,6.848s-1.364,7.274-1.364,7.274l-0.106,3.226c0,0,4.16-6.875,3.535-11.625
	S211,116.778,211,116.778L209.527,117.902z"/>
</svg>
