<?xml version="1.0" encoding="utf-8"?>
<!-- Generator: Adobe Illustrator 16.0.0, SVG Export Plug-In . SVG Version: 6.00 Build 0)  -->
<!DOCTYPE svg PUBLIC "-//W3C//DTD SVG 1.0//EN" "http://www.w3.org/TR/2001/REC-SVG-20010904/DTD/svg10.dtd">
<svg version="1.0" id="Layer_1" xmlns="http://www.w3.org/2000/svg" xmlns:xlink="http://www.w3.org/1999/xlink" x="0px" y="0px"
	 width="406px" height="377px" viewBox="0 0 406 377" enable-background="new 0 0 406 377" xml:space="preserve">
<path fill="#111111" d="M246.643,275.365c0,0,5.357-13.865,17.357-8.865s15.5,23.5,16.5,42.5s-0.867,68-5.684,68
	s-21.946-0.957-21.946-0.957L288.5,377c0,0,3-50,2.5-69.5s0.274-47.35-26.5-50.5c-25.5-3-28.478,17.149-28.478,17.149
	L246.643,275.365z"/>
<path fill="#111111" d="M260.167,365c0,6.627,6.628,12,0,12H146.833c-6.627,0-12-5.373-12-12v-75.333c0-6.627,5.373-12,12-12
	h101.333c6.628,0,12,5.373,12,12V365z"/>
<ellipse fill="#444444" cx="202.5" cy="283.666" rx="67.667" ry="10.958"/>
<path fill="#FFFFFF" stroke="#000000" stroke-miterlimit="10" d="M220.65,97.949c0,39.772-31.218,73.337-61.421,83.916
	c-3.222,1.129-3.231,11.043-3.231,20.64c0,7.746-7.595,9.598-10.616,9.598c-2.516,0-12.55,1.467-14.637-5.557
	c-3.056-10.269-4.474-23.419-7.688-24.611c-28.322-10.501-58.986-44.126-58.986-83.985c0-48.26,35.053-87.382,78.29-87.382
	C185.6,10.566,220.65,49.689,220.65,97.949z"/>
<path fill="#FFFFFF" stroke="#000000" stroke-miterlimit="10" d="M64.792,316.54c0,0,76.124-31.862,62.129-41.709
	c-13.988-9.845-62.06,17.753-62.06,17.753"/>
<path fill="#FFFFFF" stroke="#000000" stroke-miterlimit="10" d="M217.688,256.081c1.027,2.57,24.908,64.972,5.152,66.817
	c-16.218,1.515-29.371-53.648-29.371-53.648L217.688,256.081"/>
<path fill="#FFFFFF" stroke="#000000" stroke-miterlimit="10" d="M61.864,261.642c0,0-16.95,67.781,3.904,66.903
	c16.275-0.685,21.869-57.121,21.869-57.121L61.864,261.642"/>
<path fill="#FFFFFF" stroke="#000000" stroke-miterlimit="10" d="M218.469,300.438c0,0,55.523-39.052,56.338-21.963
	c0.815,17.086-48.246,42.883-48.246,42.883"/>
<path fill="#C1272D" d="M160.876,196c0,0,20.207,2.075,35.022,16.889c14.814,14.815,26.773,43.334,26.773,43.334L191.2,273.315
	l-2.038-11.257c0,0,5.391,29.657,10.777,59.289c5.387,29.633,2.693,53.887,2.693,53.887s-35.012,1.353-65.322,0.008
	c-30.31-1.347-57.249,7.744-53.209-13.638c4.042-21.382,9.43-91.42,9.43-91.42l-0.358,4.532l-31.627-13.075
	c0,0,13.969-45.046,30.131-55.823c16.164-10.777,43.609-9.818,43.609-9.818H160.876z"/>
<path fill="#111111" d="M216.494,243.242c0,0,13.787,3.148,14.146,13.453c0.395,11.304,0.297,12.301,0,17.014l-7.041-0.454
	l-4.658-15.007l3.73-2L216.494,243.242z"/>
</svg>
