<?xml version="1.0" encoding="utf-8"?>
<!-- Generator: Adobe Illustrator 16.0.0, SVG Export Plug-In . SVG Version: 6.00 Build 0)  -->
<!DOCTYPE svg PUBLIC "-//W3C//DTD SVG 1.0//EN" "http://www.w3.org/TR/2001/REC-SVG-20010904/DTD/svg10.dtd">
<svg version="1.0" id="Layer_1" xmlns="http://www.w3.org/2000/svg" xmlns:xlink="http://www.w3.org/1999/xlink" x="0px" y="0px"
	 width="406px" height="377px" viewBox="0 0 406 377" enable-background="new 0 0 406 377" xml:space="preserve">
<path fill="#666666" stroke="#000000" stroke-miterlimit="10" d="M373,218.5c0,1.381-1.119,2.5-2.5,2.5l0,0
	c-1.381,0-2.5-1.119-2.5-2.5v-14c0-1.381,1.119-2.5,2.5-2.5l0,0c1.381,0,2.5,1.119,2.5,2.5V218.5z"/>
<path fill="#666666" stroke="#000000" stroke-miterlimit="10" d="M390,218.5c0,1.381-1.119,2.5-2.5,2.5l0,0
	c-1.381,0-2.5-1.119-2.5-2.5v-14c0-1.381,1.119-2.5,2.5-2.5l0,0c1.381,0,2.5,1.119,2.5,2.5V218.5z"/>
<path fill="#666666" stroke="#000000" stroke-width="0.5" stroke-miterlimit="10" d="M369.706,138.236c0,0,4.827,18.15-0.616,18.315
	c-4.248,0.129-6.045-15.148-6.045-15.148L369.706,138.236"/>
<path fill="#666666" stroke="#000000" stroke-width="0.5" stroke-miterlimit="10" d="M388.781,136.588
	c0,0-0.944,22.848,3.679,21.119c3.606-1.348,2.488-19.78,2.488-19.78L388.781,136.588"/>
<path fill="#1A1A1A" stroke="#000000" stroke-miterlimit="10" d="M368.463,217.834c0,0,1.967-0.426,4.396-0.061
	c2.43,0.363,2.141-0.857,2.141,1.571s0,9.353,0,9.353s-2.492,0.752-6.721,1.943c-16.805,4.736-12.405-5.442-12.163-8.479
	c0.243-3.037,10.579-0.51,11.308-2.332C368.152,218.009,369.211,220.87,368.463,217.834z"/>
<path fill="#1A1A1A" stroke="#000000" stroke-miterlimit="10" d="M392.533,217.834c0,0-2.465-0.426-4.895-0.061
	c-2.43,0.363-2.639-0.857-2.639,1.571s0,9.353,0,9.353s2.99,0.752,7.218,1.943c16.806,4.736,12.655-5.442,12.412-8.479
	c-0.243-3.037-10.454-0.51-11.183-2.332C392.718,218.009,391.784,220.87,392.533,217.834z"/>
<rect x="367" y="170" fill="#666666" stroke="#000000" stroke-miterlimit="10" width="22" height="17"/>
<rect x="366.5" y="174.5" fill="#C1272D" width="17" height="4"/>
<path fill="#D7DED1" d="M365.807,177.112c0,0-6.512,19.455-5.162,29.123c0.918,6.578,20.765,0,20.765,0l-1.069-17.439l1.069,17.439
	c0,0,19.888,5.812,18.052-1.988c-1.836-7.802-9.791-30.747-9.791-30.747L365.807,177.112"/>
<line fill="none" stroke="#999999" stroke-width="0.5" stroke-miterlimit="10" x1="380.492" y1="205.775" x2="379.577" y2="190.869"/>
<path fill="#7CA847" d="M382.007,123.326c0,0,4.569,0.589,7.614,4.909c3.045,4.319,5.261,9.817,5.261,9.817l-5.179,7.352
	l-1.467-2.835c0,0,1.109,8.64,2.215,17.279c1.108,8.639,0.555,12.496,0.555,12.496s-7.197,0.392-13.428,0
	c-6.23-0.393-11.768,2.258-10.938-3.976s1.938-23.442,1.938-23.442l-1.605,2.749l-4.034-6.271c0,0,2.18-11.449,5.502-14.591
	c3.322-3.142,7.891-3.486,7.891-3.486s-0.971,4.32,2.768,4.713S382.007,123.326,382.007,123.326z"/>
<path fill="#666666" stroke="#000000" stroke-width="0.5" stroke-miterlimit="10" d="M390.965,151.099
	c0,0-13.319,24.207-8.51,25.219c4.249,0.894,11.077-20.148,11.077-20.148"/>
<path fill="#666666" stroke="#000000" stroke-width="0.5" stroke-miterlimit="10" d="M396.668,103.326
	c0,9.034-7.091,16.657-13.951,19.06c-0.731,0.256-0.734,2.508-0.734,4.688c0,1.76-1.725,2.181-2.41,2.181
	c-0.572,0-2.852,0.333-3.326-1.263c-0.693-2.332-1.016-5.319-1.745-5.59c-6.433-2.385-13.397-10.022-13.397-19.075
	c0-10.962,7.961-19.848,17.781-19.848C388.707,83.478,396.668,92.364,396.668,103.326z"/>
<path fill="none" stroke="#000000" stroke-width="0.5" stroke-miterlimit="10" d="M376.668,113.383
	c1.183-0.417,2.842-0.153,4.131-0.153"/>
<path fill="#333333" stroke="#000000" stroke-miterlimit="10" d="M374.525,103h-5.506c0,0-0.001,2.53,2.753,2.53
	S374.525,103,374.525,103z"/>
<path fill="#333333" stroke="#000000" stroke-miterlimit="10" d="M387.375,103h-5.507c0,0-0.001,2.53,2.753,2.53
	S387.375,103,387.375,103z"/>
<line fill="#333333" stroke="#000000" stroke-miterlimit="10" x1="366.5" y1="102" x2="375.5" y2="102"/>
<line fill="#333333" stroke="#000000" stroke-miterlimit="10" x1="378.5" y1="102" x2="389.5" y2="102"/>
<path d="M387.398,126.14c0,0-1.55,3.96-0.55,9.71s1.651,11.344,1.651,11.344v4.306c0,0-3.632-9.061-3.632-14.912
	c0-7.306-0.868-12.706-0.868-12.706L387.398,126.14z"/>
<path d="M368,145.917c0,0,2.5-9.417,2.5-13.167s-1.25-6.625-1.25-6.625l2.43-1.482c0,0,1.442,7.551,1.093,11.637
	c-0.772,9.025-4.537,13.702-4.537,13.702L368,145.917z"/>
</svg>
