<?xml version="1.0" encoding="utf-8"?>
<!-- Generator: Adobe Illustrator 16.0.0, SVG Export Plug-In . SVG Version: 6.00 Build 0)  -->
<!DOCTYPE svg PUBLIC "-//W3C//DTD SVG 1.0//EN" "http://www.w3.org/TR/2001/REC-SVG-20010904/DTD/svg10.dtd">
<svg version="1.0" id="Layer_1" xmlns="http://www.w3.org/2000/svg" xmlns:xlink="http://www.w3.org/1999/xlink" x="0px" y="0px"
	 width="406px" height="377px" viewBox="0 0 406 377" enable-background="new 0 0 406 377" xml:space="preserve">
<polygon fill="#D9D9D9" points="406.054,0.348 406.276,126.807 0.5,156 0.5,0 "/>
<path fill="#F2F2F2" d="M0.5,156.5v89.781c0,0-3.027,7.043,25.752,3.666c39.569-4.646,379.248-41.92,379.248-41.92V127.5"/>
<polygon fill="#B3B3B3" points="32.253,206.865 24.939,199.9 12.635,204.545 18.529,210.35 "/>
<path fill="#CCCCCC" d="M406,215.818c0,0-292.594,28.179-353.276,38.467c-60.682,10.287-52.224,0-52.224,0v-8.053
	c0,0-8.458,10.287,52.224,0c60.683-10.287,353.102-38.467,353.102-38.467L406,215.818z"/>
<path fill="#666666" stroke="#000000" stroke-miterlimit="10" d="M264,179.5c0,1.381-1.119,2.5-2.5,2.5l0,0
	c-1.381,0-2.5-1.119-2.5-2.5v-14c0-1.381,1.119-2.5,2.5-2.5l0,0c1.381,0,2.5,1.119,2.5,2.5V179.5z"/>
<path fill="#666666" stroke="#000000" stroke-miterlimit="10" d="M282,179.5c0,1.381-1.119,2.5-2.5,2.5l0,0
	c-1.381,0-2.5-1.119-2.5-2.5v-14c0-1.381,1.119-2.5,2.5-2.5l0,0c1.381,0,2.5,1.119,2.5,2.5V179.5z"/>
<path fill="#666666" stroke="#000000" stroke-miterlimit="10" d="M260.801,99.355c0,0,4.87,18.309-0.621,18.475
	c-4.285,0.13-6.1-15.281-6.1-15.281L260.801,99.355"/>
<path fill="#666666" stroke="#000000" stroke-miterlimit="10" d="M280.042,97.693c0,0-0.952,23.047,3.711,21.303
	c3.638-1.36,2.511-19.953,2.511-19.953L280.042,97.693"/>
<path fill="#1A1A1A" stroke="#000000" stroke-miterlimit="10" d="M259.547,179.649c0,0,1.414-0.429,3.865-0.061
	s1.588-0.865,1.588,1.585c0,2.451,0,9.435,0,9.435s-1.945,0.761-6.207,1.961c-16.953,4.777-12.23-5.489-11.986-8.552
	c0.245-3.063,10.814-0.513,11.551-2.352C259.092,179.825,260.301,182.712,259.547,179.649z"/>
<path fill="#1A1A1A" stroke="#000000" stroke-miterlimit="10" d="M283.826,179.649c0,0-2.1-0.429-4.551-0.061
	S277,178.723,277,181.173c0,2.451,0,9.435,0,9.435s2.631,0.761,6.896,1.961c16.951,4.777,12.57-5.489,12.326-8.552
	s-10.645-0.513-11.38-2.352C284.109,179.825,283.072,182.712,283.826,179.649z"/>
<rect x="259" y="131" fill="#666666" stroke="#000000" stroke-miterlimit="10" width="21" height="18"/>
<rect x="257.5" y="136.5" fill="#C1272D" width="16" height="4"/>
<path fill="#D7DED1" d="M256.866,138.571c0,0-6.569,19.625-5.207,29.378c0.927,6.634,20.946,0,20.946,0l-1.078-17.592l1.078,17.592
	c0,0,20.062,5.863,18.211-2.006c-1.854-7.87-9.879-31.016-9.879-31.016L256.866,138.571"/>
<line fill="none" stroke="#999999" stroke-miterlimit="10" x1="271.682" y1="167.486" x2="270.758" y2="152.45"/>
<path fill="#7CA847" d="M273.209,84.314c0,0,4.609,0.594,7.682,4.952c3.071,4.357,5.309,9.904,5.309,9.904l-5.227,7.416
	l-1.479-2.861c0,0,1.117,8.715,2.232,17.43c1.116,8.715,0.562,12.604,0.562,12.604s-7.263,0.396-13.547,0
	c-6.285-0.396-11.871,2.277-11.033-4.01c0.838-6.289,1.956-23.647,1.956-23.647l-1.62,2.773l-4.069-6.326
	c0,0,2.198-11.55,5.551-14.719s7.959-3.516,7.959-3.516s-0.979,4.357,2.794,4.753C274.047,89.464,273.209,84.314,273.209,84.314z"/>
<path fill="#666666" stroke="#000000" stroke-miterlimit="10" d="M280.865,111.827c0,0-0.512,27.867,4.257,26.51
	c4.214-1.199,0.418-23.189,0.418-23.189"/>
<path fill="#666666" stroke="#000000" stroke-miterlimit="10" d="M287.999,64.139c0,9.113-7.153,16.803-14.075,19.228
	c-0.736,0.258-0.738,2.53-0.738,4.729c0,1.775-1.74,2.199-2.433,2.199c-0.577,0-2.876,0.336-3.354-1.273
	c-0.697-2.352-1.023-5.366-1.76-5.639c-6.49-2.406-13.517-10.11-13.517-19.243c0-11.058,8.03-20.021,17.938-20.021
	C279.967,44.119,287.999,53.081,287.999,64.139z"/>
<path fill="none" stroke="#000000" stroke-miterlimit="10" d="M267.824,74.284c1.191-0.421,2.865-0.154,4.166-0.154"/>
<path fill="#333333" stroke="#000000" stroke-miterlimit="10" d="M265.662,63h-5.555c0,0,0,2.552,2.775,2.552
	C265.661,65.552,265.662,63,265.662,63z"/>
<path fill="#333333" stroke="#000000" stroke-miterlimit="10" d="M278.625,63h-5.557c0,0,0,2.552,2.775,2.552
	C278.625,65.552,278.625,63,278.625,63z"/>
<line fill="none" stroke="#000000" stroke-miterlimit="10" x1="257.5" y1="62" x2="267.5" y2="62"/>
<line fill="none" stroke="#000000" stroke-miterlimit="10" x1="269.5" y1="62" x2="280.5" y2="62"/>
<path fill="#FFFFFF" stroke="#000000" stroke-miterlimit="10" enable-background="new    " d="M177.64,219.965
	c0,38.814-30.469,71.574-59.946,81.896c-3.145,1.102-3.152,10.776-3.152,20.145c0,7.562-7.414,9.366-10.361,9.366
	c-2.455,0-12.249,1.433-14.286-5.423c-2.981-10.021-4.366-22.857-7.502-24.021c-27.64-10.246-57.568-43.062-57.568-81.964
	c0-47.1,34.21-85.282,76.408-85.282C143.432,134.683,177.64,172.865,177.64,219.965z"/>
<path fill="#C1272D" d="M119.302,315.5c0,0,19.72,2.104,34.179,16.562c14.459,14.457,26.13,44.423,26.13,44.423l-157.252,0.12
	c0,0,13.633-40.918,29.408-51.437c15.774-10.517,42.56-9.671,42.56-9.671L119.302,315.5L119.302,315.5z"/>
</svg>
