<?xml version="1.0" encoding="utf-8"?>
<!-- Generator: Adobe Illustrator 15.1.0, SVG Export Plug-In . SVG Version: 6.00 Build 0)  -->
<!DOCTYPE svg PUBLIC "-//W3C//DTD SVG 1.1//EN" "http://www.w3.org/Graphics/SVG/1.1/DTD/svg11.dtd">
<svg version="1.1" id="Layer_1" xmlns="http://www.w3.org/2000/svg" xmlns:xlink="http://www.w3.org/1999/xlink" x="0px" y="0px"
	 width="406px" height="377px" viewBox="0 0 406 377" enable-background="new 0 0 406 377" xml:space="preserve">
<path opacity="0.8" fill="#FFFFFF" stroke="#000000" stroke-miterlimit="10" enable-background="new    " d="M194.983,140.831
	c0,34.656-27.203,63.903-53.521,73.12c-2.808,0.982-2.814,9.623-2.814,17.984c0,6.75-6.618,8.362-9.251,8.362
	c-2.191,0-10.936,1.279-12.755-4.842c-2.661-8.946-3.897-20.407-6.699-21.445c-24.677-9.149-51.397-38.449-51.397-73.181
	c0-42.053,30.543-76.142,68.219-76.142C164.441,64.689,194.983,98.778,194.983,140.831z"/>
<path display="none" fill="#1A1A1A" d="M62.066,117.504c0,0-0.881-8.362,3.961-5.281c4.842,3.081,10.562,8.362,19.365,7.922
	c8.803-0.439,29.049-13.203,41.371-13.203c12.324,0,32.57,13.229,42.693,13.229c10.122,0,17.873-13.184,19.65-8.502
	c0.951,2.502,2.491,5.423,2.491,5.423l11.747-14.111c0,0-36.53-15.404-76.582-15.404c-40.051,0-75.701,16.298-75.701,16.298
	L62.066,117.504z"/>
<path display="none" fill="#122E59" d="M51.062,105.635c0,0-10.562-11.017-10.562-25.101s21.566-19.366,36.53-30.369
	c14.964-11.003,33.009-26.407,49.733-26.407c16.726,0,28.609,16.284,39.172,22.006c10.563,5.722,38.292,15.404,45.333,28.608
	c7.043,13.204-7.922,30.368-7.922,30.368s-43.572-15.404-76.582-15.404C93.755,89.336,51.062,105.635,51.062,105.635z"/>
<path display="none" fill="#FFE9AD" stroke="#000000" stroke-miterlimit="10" d="M110.92,49.726c0,0,4.401,3.08,8.362,3.08
	c3.961,0,7.263-3.08,7.263-3.08s3.631,3.08,7.592,3.08c3.961,0,7.977-3.08,7.977-3.08s0.468,9.242-3.053,16.284
	S126.54,80.974,126.54,80.974s-7.251-5.363-12.098-13.203C110.621,61.595,110.92,49.726,110.92,49.726z"/>
<path fill="#DEDEDE" stroke="#666666" stroke-miterlimit="10" d="M96.7,125.364c6.366,0.121,21.083,0.85,22.923,8.916
	c1.84,8.064-14.009,30.139-28.301,29.997c-14.291-0.141-18.253-12.31-18.253-23.347C73.069,129.893,81.56,125.083,96.7,125.364z"/>
<path fill="#DEDEDE" stroke="#666666" stroke-miterlimit="10" d="M154.719,125.932c-6.366,0.117-21.082,0.85-22.922,8.913
	c-1.84,8.066,14.008,30.142,28.3,29.999c14.292-0.142,18.253-12.311,18.253-23.348C178.35,130.46,169.86,125.648,154.719,125.932z"
	/>
<path fill="#DEDEDE" stroke="#666666" stroke-miterlimit="10" d="M119.623,134.28c0,0,5.471-1.226,12.027,1.121"/>
<path fill="none" stroke="#000000" stroke-miterlimit="10" d="M118.257,179.414c4.538-1.599,10.901-0.587,15.845-0.587"/>
<path fill="#C1272D" d="M139.377,224.604c0,0,19.367,1.76,32.276,14.67c12.91,12.91,22.299,29.342,22.299,29.342l-21.951,21.973
	l-6.216-8.477c0,0,4.695,25.82,9.39,51.643c4.694,25.819,2.347,46.945,2.347,46.945s-30.508,1.173-56.919,0
	c-26.411-1.172-49.884,6.748-46.363-11.883c3.521-18.633,8.216-79.664,8.216-79.664l-6.807,8.218l-17.104-18.743
	c0,0,9.242-34.218,23.326-43.607c14.084-9.391,33.447-10.416,33.447-10.416s-4.109,12.91,11.736,14.084
	C142.898,239.857,139.377,224.604,139.377,224.604z"/>
<path fill="#FFFFFF" stroke="#000000" stroke-miterlimit="10" d="M61.513,278.626c0,0-11.208,59.841,6.888,57.988
	c14.12-1.446,16.039-50.824,16.039-50.824L61.513,278.626"/>
<path fill="#FFFFFF" stroke="#000000" stroke-miterlimit="10" d="M76.387,329.941c0,0,43.813-46.084,30.168-49.998
	c-13.641-3.914-38.648,31.081-38.648,31.081"/>
<path fill="#FFFFFF" stroke="#000000" stroke-miterlimit="10" d="M190.266,267.666c0,0,38.814,46.904,22.089,54.056
	c-13.05,5.581-38.669-36.676-38.669-36.676L190.266,267.666"/>
<path fill="#FFFFFF" stroke="#000000" stroke-miterlimit="10" d="M215.932,318.181c0,0-34.011,53.729-41.132,41.448
	c-7.123-12.275,20.72-45.061,20.72-45.061"/>
<path fill="#FFFFFF" stroke="#000000" stroke-width="3" stroke-miterlimit="10" d="M401.825,64.497
	c0,28.768-48.877,52.47-111.797,55.652c-4.743,0.239-9.565,0.363-14.453,0.363c-4.855,0-13.385,15.021-28.46,27.232
	c-13.561,10.983-33.793,19.311-37.895,18.915c-5.328-0.513,22.142-20.884,25.789-35.798c2.553-10.438-8.892-14.785-12.274-15.478
	c-43.336-8.872-73.41-28.322-73.41-50.887c0-30.936,56.523-56.015,126.25-56.015S401.825,33.561,401.825,64.497z"/>
<g>
	<path opacity="0.8" fill="#FFFFFF" stroke="#000000" stroke-miterlimit="10" enable-background="new    " d="M654.982,50.202
		c0,34.656-27.203,63.903-53.521,73.12c-2.808,0.982-2.813,9.623-2.813,17.984c0,6.75-6.618,8.362-9.252,8.362
		c-2.19,0-10.936,1.279-12.754-4.842c-2.662-8.946-3.897-20.407-6.699-21.445c-24.678-9.149-51.397-38.449-51.397-73.181
		c0-42.053,30.543-76.142,68.22-76.142C624.441-25.94,654.982,8.149,654.982,50.202z"/>
	<path fill="#DEDEDE" stroke="#666666" stroke-miterlimit="10" d="M556.7,34.735c6.366,0.121,21.083,0.85,22.923,8.916
		c1.84,8.064-14.009,30.139-28.301,29.997c-14.291-0.141-18.254-12.31-18.254-23.347C533.068,39.264,541.561,34.454,556.7,34.735z"
		/>
	<path fill="#DEDEDE" stroke="#666666" stroke-miterlimit="10" d="M614.719,35.303c-6.365,0.117-21.082,0.85-22.922,8.913
		c-1.84,8.066,14.008,30.142,28.301,29.999c14.291-0.142,18.252-12.311,18.252-23.348C638.35,39.831,629.859,35.019,614.719,35.303z
		"/>
	<path fill="#DEDEDE" stroke="#666666" stroke-miterlimit="10" d="M579.623,43.651c0,0,5.471-1.226,12.027,1.121"/>
	<path fill="none" stroke="#000000" stroke-miterlimit="10" d="M578.257,88.785c4.538-1.599,10.901-0.587,15.845-0.587"/>
	<path fill="#C1272D" d="M599.377,133.975c0,0,19.367,1.76,32.275,14.67c12.91,12.91,22.3,29.342,22.3,29.342l-21.951,21.973
		l-6.216-8.477c0,0,4.695,25.82,9.39,51.643c4.694,25.819,2.347,46.945,2.347,46.945s-30.508,1.173-56.918,0
		c-26.412-1.172-49.885,6.748-46.363-11.883c3.521-18.633,8.216-79.664,8.216-79.664l-6.808,8.218l-17.104-18.743
		c0,0,9.242-34.218,23.326-43.607c14.084-9.391,33.447-10.416,33.447-10.416s-4.109,12.91,11.736,14.084
		C602.898,149.229,599.377,133.975,599.377,133.975z"/>
	<path fill="#FFFFFF" stroke="#000000" stroke-miterlimit="10" d="M521.514,187.997c0,0-11.209,59.841,6.887,57.988
		c14.121-1.446,16.039-50.824,16.039-50.824L521.514,187.997"/>
	<path fill="#FFFFFF" stroke="#000000" stroke-miterlimit="10" d="M536.387,239.312c0,0,43.813-46.084,30.168-49.998
		c-13.641-3.914-38.647,31.081-38.647,31.081"/>
	<path fill="#FFFFFF" stroke="#000000" stroke-miterlimit="10" d="M650.266,177.037c0,0,38.814,46.904,22.09,54.056
		c-13.051,5.581-38.67-36.676-38.67-36.676L650.266,177.037"/>
	<path fill="#FFFFFF" stroke="#000000" stroke-miterlimit="10" d="M675.932,227.552c0,0-34.011,53.729-41.132,41.448
		c-7.123-12.275,20.72-45.061,20.72-45.061"/>
</g>
</svg>
