<?xml version="1.0" encoding="utf-8"?>
<!-- Generator: Adobe Illustrator 16.0.0, SVG Export Plug-In . SVG Version: 6.00 Build 0)  -->
<!DOCTYPE svg PUBLIC "-//W3C//DTD SVG 1.0//EN" "http://www.w3.org/TR/2001/REC-SVG-20010904/DTD/svg10.dtd">
<svg version="1.0" id="Layer_1" xmlns="http://www.w3.org/2000/svg" xmlns:xlink="http://www.w3.org/1999/xlink" x="0px" y="0px"
	 width="406px" height="377px" viewBox="0 0 406 377" enable-background="new 0 0 406 377" xml:space="preserve">
<path opacity="0.8" fill="#FFFFFF" stroke="#000000" stroke-miterlimit="10" enable-background="new    " d="M278.02,143.561
	c0,33.543-26.328,61.85-51.802,70.771c-2.718,0.952-2.724,9.312-2.724,17.407c0,6.532-6.406,8.094-8.954,8.094
	c-2.122,0-10.584,1.237-12.345-4.687c-2.575-8.66-3.772-19.752-6.484-20.756c-23.883-8.855-49.746-37.215-49.746-70.831
	c0-40.701,29.562-73.695,66.027-73.695C248.459,69.866,278.02,102.86,278.02,143.561z"/>
<path fill="#DEDEDE" stroke="#666666" stroke-miterlimit="10" d="M182.894,128.592c6.162,0.117,20.407,0.822,22.187,8.629
	c1.78,7.806-13.559,29.17-27.392,29.033c-13.832-0.136-17.667-11.914-17.667-22.597C160.022,132.975,168.24,128.319,182.894,128.592
	z"/>
<path fill="#DEDEDE" stroke="#666666" stroke-miterlimit="10" d="M239.049,129.141c-6.162,0.113-20.404,0.822-22.186,8.626
	c-1.781,7.808,13.558,29.173,27.391,29.035c13.833-0.137,17.666-11.915,17.666-22.597
	C261.92,133.524,253.703,128.866,239.049,129.141z"/>
<path fill="#DEDEDE" stroke="#666666" stroke-miterlimit="10" d="M205.081,137.221c0,0,5.294-1.187,11.642,1.085"/>
<path fill="none" stroke="#000000" stroke-miterlimit="10" d="M203.758,180.904c4.393-1.547,10.551-0.567,15.336-0.567"/>
<path fill="#C1272D" d="M224.2,224.641c0,0,18.743,1.705,31.239,14.199c12.494,12.494,21.582,28.399,21.582,28.399l-21.246,21.266
	l-6.019-8.204c0,0,4.548,24.992,9.089,49.983c4.543,24.989,2.271,45.437,2.271,45.437s-29.527,1.136-55.09,0
	c-25.562-1.135-48.281,6.531-44.875-11.501c3.408-18.032,7.952-77.103,7.952-77.103l-6.588,7.951l-16.553-18.142
	c0,0,8.946-33.118,22.577-42.206c13.631-9.089,32.371-10.08,32.371-10.08s-3.976,12.494,11.359,13.631
	C227.607,239.407,224.2,224.641,224.2,224.641z"/>
<path fill="#FFFFFF" stroke="#000000" stroke-miterlimit="10" d="M148.837,276.928c0,0-10.848,57.919,6.666,56.125
	c13.667-1.398,15.524-49.189,15.524-49.189L148.837,276.928"/>
<path fill="#FFFFFF" stroke="#000000" stroke-miterlimit="10" d="M273.453,266.32c0,0,37.566,45.396,21.379,52.318
	c-12.631,5.401-37.426-35.498-37.426-35.498L273.453,266.32"/>
<path fill="#FFFFFF" stroke="#000000" stroke-miterlimit="10" d="M298.294,315.212c0,0-32.917,52.001-39.81,40.117
	c-6.896-11.881,20.055-43.613,20.055-43.613"/>
<path fill="#FFFFFF" stroke="#000000" stroke-miterlimit="10" d="M225.629,358.492c0,1.854-1.503,3.356-3.357,3.356h-37.73
	c-1.854,0-3.357-1.504-3.357-3.356v-55.984c0-1.854,1.503-3.357,3.357-3.357h37.73c1.854,0,3.357,1.504,3.357,3.357V358.492z"/>
<path fill="#FFFFFF" stroke="#000000" stroke-miterlimit="10" d="M150.401,332.489c0,0,59.039,17.385,56.383,3.904
	c-2.652-13.477-43.835-19.562-43.835-19.562"/>
</svg>
