<?xml version="1.0" encoding="utf-8"?>
<!-- Generator: Adobe Illustrator 16.0.0, SVG Export Plug-In . SVG Version: 6.00 Build 0)  -->
<!DOCTYPE svg PUBLIC "-//W3C//DTD SVG 1.0//EN" "http://www.w3.org/TR/2001/REC-SVG-20010904/DTD/svg10.dtd">
<svg version="1.0" id="Layer_1" xmlns="http://www.w3.org/2000/svg" xmlns:xlink="http://www.w3.org/1999/xlink" x="0px" y="0px"
	 width="406px" height="377px" viewBox="0 0 406 377" enable-background="new 0 0 406 377" xml:space="preserve">
<path fill="#111111" d="M223.316,286.946c0,0,4.747-12.285,15.379-7.854c10.633,4.43,13.734,20.822,14.62,37.656
	c0.886,16.836-0.769,60.252-5.036,60.252s-19.445-0.848-19.445-0.848l31.57,0.848c0,0,2.658-44.303,2.215-61.58
	c-0.443-17.278,0.243-41.955-23.48-44.746c-22.594-2.658-25.232,15.195-25.232,15.195L223.316,286.946z"/>
<path fill="#111111" d="M235.3,366.367c0,5.872,5.872,10.633,0,10.633H134.88c-5.873,0-10.633-4.761-10.633-10.633v-66.749
	c0-5.871,4.76-10.632,10.633-10.632h89.787c5.872,0,10.633,4.761,10.633,10.632V366.367z"/>
<ellipse fill="#444444" cx="184.204" cy="294.302" rx="59.956" ry="9.709"/>
<path fill="#FFFFFF" stroke="#000000" stroke-miterlimit="10" d="M200.286,129.746c0,35.241-27.661,64.98-54.422,74.354
	c-2.855,1-2.863,9.785-2.863,18.288c0,6.863-6.73,8.504-9.407,8.504c-2.229,0-11.12,1.3-12.969-4.924
	c-2.708-9.099-3.964-20.75-6.812-21.807c-25.094-9.305-52.265-39.098-52.265-74.415c0-42.76,31.058-77.425,69.368-77.425
	C169.229,52.321,200.286,86.986,200.286,129.746z"/>
<path fill="#FFFFFF" stroke="#000000" stroke-miterlimit="10" d="M62.187,323.43c0,0,67.45-28.232,55.049-36.957
	c-12.394-8.723-54.988,15.73-54.988,15.73"/>
<path fill="#FFFFFF" stroke="#000000" stroke-miterlimit="10" d="M197.661,269.859c0.911,2.277,22.07,57.568,4.565,59.204
	c-14.37,1.342-26.024-47.535-26.024-47.535L197.661,269.859"/>
<path fill="#FFFFFF" stroke="#000000" stroke-miterlimit="10" d="M59.593,274.786c0,0-15.019,60.058,3.459,59.28
	c14.421-0.606,19.377-50.612,19.377-50.612L59.593,274.786"/>
<path fill="#FFFFFF" stroke="#000000" stroke-miterlimit="10" d="M198.353,309.162c0,0,49.196-34.602,49.918-19.46
	c0.723,15.14-42.748,37.997-42.748,37.997"/>
<path fill="#122E59" d="M147.323,217c0,0,17.904,1.651,31.032,14.776c13.126,13.127,23.722,38.303,23.722,38.303l-27.886,15.098
	l-1.805-9.997c0,0,4.776,26.266,9.549,52.521c4.773,26.256,2.387,47.74,2.387,47.74s-31.022,1.195-57.879,0.004
	c-26.856-1.193-50.726,6.861-47.146-12.086c3.581-18.945,8.356-81.002,8.356-81.002l-0.317,4.015l-28.023-11.586
	c0,0,12.377-39.725,26.698-49.274c14.322-9.549,38.64-8.512,38.64-8.512H147.323z"/>
<path fill="#111111" d="M196.603,258.483c0,0,12.216,2.79,12.535,11.921c0.35,10.016,0.263,10.898,0,15.074l-6.239-0.402
	l-4.127-13.297l3.305-1.771L196.603,258.483z"/>
<path fill="#1A1A1A" d="M61.422,127.461c0,0,3.036,23.395,21.083,27.959c18.046,4.565,55.142,8.218,75.195,4.565
	c20.049-3.65,31.082-15.519,37.093-20.085c6.014-4.566,6.014-16.365,6.014-16.365L61.422,127.461z"/>
<path fill="#122E59" d="M41.933,91.201C41.9,69.078,79.098,33.919,89.47,26.301c11.101-8.155,25.463-20.23,42.158-20.624
	c32.506-0.766,79.211,58.437,84.222,63.916s11.029,20.088,0,34.697c-11.03,14.61-26.872,45.656-89.132,45.656
	C64.456,149.946,41.956,107.169,41.933,91.201z"/>
</svg>
