<?xml version="1.0" encoding="utf-8"?>
<!-- Generator: Adobe Illustrator 15.1.0, SVG Export Plug-In . SVG Version: 6.00 Build 0)  -->
<!DOCTYPE svg PUBLIC "-//W3C//DTD SVG 1.1//EN" "http://www.w3.org/Graphics/SVG/1.1/DTD/svg11.dtd">
<svg version="1.1" id="Layer_1" xmlns="http://www.w3.org/2000/svg" xmlns:xlink="http://www.w3.org/1999/xlink" x="0px" y="0px"
	 width="406px" height="377px" viewBox="0 0 406 377" enable-background="new 0 0 406 377" xml:space="preserve">
<polygon fill="#D9D9D9" points="406.054,0.348 406.276,126.807 0.5,156 0.5,0 "/>
<path fill="#F2F2F2" d="M0.5,156.5v89.781c0,0-3.027,7.043,25.752,3.666c39.569-4.646,379.248-41.92,379.248-41.92V127.5"/>
<path fill="#CCCCCC" d="M406,215.818c0,0-292.594,28.179-353.276,38.467c-60.682,10.287-52.224,0-52.224,0v-8.053
	c0,0-8.458,10.287,52.224,0c60.683-10.287,353.102-38.467,353.102-38.467L406,215.818z"/>
<path fill="#1A1A1A" d="M46.129,258.467c20.102,5.086,61.425,9.154,83.762,5.086c22.333-4.066,34.623-17.287,41.319-22.373"/>
<path fill="#7F5D25" stroke="#000000" stroke-width="0.5" stroke-miterlimit="10" d="M267.912,175.123c0,1.381-1.119,2.5-2.5,2.5
	l0,0c-1.381,0-2.5-1.119-2.5-2.5v-14c0-1.381,1.119-2.5,2.5-2.5l0,0c1.381,0,2.5,1.119,2.5,2.5V175.123z"/>
<path fill="#7F5D25" stroke="#000000" stroke-width="0.5" stroke-miterlimit="10" d="M284.912,175.123c0,1.381-1.119,2.5-2.5,2.5
	l0,0c-1.381,0-2.5-1.119-2.5-2.5v-14c0-1.381,1.119-2.5,2.5-2.5l0,0c1.381,0,2.5,1.119,2.5,2.5V175.123z"/>
<path fill="#7F5D25" stroke="#000000" stroke-width="0.5" stroke-miterlimit="10" d="M264.618,94.858c0,0,4.827,18.15-0.616,18.315
	c-4.248,0.129-6.045-15.148-6.045-15.148L264.618,94.858"/>
<path fill="#7F5D25" stroke="#000000" stroke-width="0.5" stroke-miterlimit="10" d="M283.693,93.21c0,0-0.944,22.848,3.679,21.119
	c3.606-1.348,2.487-19.78,2.487-19.78L283.693,93.21"/>
<path fill="#1A1A1A" stroke="#000000" stroke-miterlimit="10" d="M263.375,174.457c0,0,1.967-0.426,4.396-0.061
	c2.43,0.361,2.141-0.857,2.141,1.57c0,2.427,0,9.354,0,9.354s-2.492,0.752-6.721,1.943c-16.806,4.734-12.405-5.443-12.164-8.48
	c0.244-3.037,10.58-0.51,11.309-2.332C263.064,174.631,264.123,177.492,263.375,174.457z"/>
<path fill="#1A1A1A" stroke="#000000" stroke-miterlimit="10" d="M287.445,174.457c0,0-2.465-0.426-4.896-0.061
	c-2.431,0.361-2.64-0.857-2.64,1.57c0,2.427,0,9.354,0,9.354s2.99,0.752,7.218,1.943c16.808,4.734,12.655-5.443,12.412-8.48
	c-0.243-3.037-10.454-0.51-11.185-2.332C287.63,174.631,286.695,177.492,287.445,174.457z"/>
<rect x="261.912" y="126.622" fill="#7F5D25" stroke="#000000" stroke-width="0.5" stroke-miterlimit="10" width="22" height="17.001"/>
<rect x="261.412" y="131.123" fill="#C1272D" width="17" height="4"/>
<path fill="#D7DED1" d="M260.719,133.734c0,0-6.512,19.455-5.162,29.123c0.918,6.578,20.767,0,20.767,0l-1.069-17.439l1.069,17.439
	c0,0,19.888,5.812,18.052-1.988c-1.836-7.8-9.791-30.746-9.791-30.746L260.719,133.734"/>
<line fill="none" stroke="#999999" stroke-width="0.5" stroke-miterlimit="10" x1="275.404" y1="162.398" x2="274.489" y2="147.492"/>
<path fill="#7CA847" d="M276.919,79.949c0,0,4.569,0.589,7.614,4.909c3.045,4.319,5.261,9.817,5.261,9.817l-5.179,7.352
	l-1.467-2.835c0,0,1.107,8.64,2.215,17.279c1.107,8.639,0.555,12.496,0.555,12.496s-7.197,0.393-13.428,0
	c-6.231-0.393-11.768,2.258-10.938-3.976c0.829-6.234,1.938-23.443,1.938-23.443l-1.605,2.749l-4.033-6.271
	c0,0,2.181-11.449,5.502-14.591s7.892-3.486,7.892-3.486s-0.972,4.32,2.769,4.713C277.751,85.056,276.919,79.949,276.919,79.949z"/>
<path fill="#7F5D25" stroke="#000000" stroke-width="0.5" stroke-miterlimit="10" d="M285.877,107.722c0,0-13.318,24.208-8.51,25.22
	c4.249,0.893,11.076-20.149,11.076-20.149"/>
<path fill="#7F5D25" stroke="#000000" stroke-width="0.5" stroke-miterlimit="10" d="M291.58,59.949
	c0,9.034-7.092,16.657-13.951,19.06c-0.73,0.256-0.734,2.508-0.734,4.688c0,1.76-1.725,2.181-2.408,2.181
	c-0.572,0-2.854,0.333-3.326-1.263c-0.692-2.332-1.018-5.319-1.745-5.59C262.98,76.64,256.02,69.003,256.02,59.95
	c0-10.962,7.961-19.848,17.779-19.848C283.619,40.101,291.58,48.987,291.58,59.949z"/>
<path fill="#333333" stroke="#000000" stroke-miterlimit="10" d="M269.438,59.623h-5.506c0,0-0.002,2.53,2.752,2.53
	S269.438,59.623,269.438,59.623z"/>
<path fill="#333333" stroke="#000000" stroke-miterlimit="10" d="M282.287,59.623h-5.508c0,0,0,2.53,2.754,2.53
	S282.287,59.623,282.287,59.623z"/>
<path d="M282.311,82.763c0,0-1.551,3.96-0.551,9.71s1.651,11.344,1.651,11.344v4.306c0,0-3.632-9.061-3.632-14.912
	c0-7.306-0.868-12.706-0.868-12.706L282.311,82.763z"/>
<path d="M262.912,102.54c0,0,2.5-9.417,2.5-13.167s-1.25-6.625-1.25-6.625l2.43-1.482c0,0,1.442,7.551,1.094,11.637
	c-0.771,9.025-4.537,13.702-4.537,13.702L262.912,102.54z"/>
<path fill="#FFFFFF" stroke="#231F20" stroke-width="3" stroke-miterlimit="10" d="M239.004,48.656c0,1.595-0.165,3.17-0.484,4.72
	c-0.381,1.835-3.9,10.08-0.306,13.686s14.308,2.575,13.108,4.241c-1.561,2.167-7.096,2.716-13.246,3.029
	c-7.348,0.373-15.574,0.409-18.95,2.465c-14.944,9.101-37.009,14.858-61.622,14.858c-45.011,0-81.5-19.252-81.5-43
	c0-23.748,36.489-43,81.5-43C202.516,5.656,239.004,24.908,239.004,48.656z"/>
<g display="none">
	<path display="inline" fill="#BD912D" stroke="#000000" stroke-width="0.5" stroke-miterlimit="10" d="M268.066,175.244
		c0,1.381-1.119,2.5-2.5,2.5l0,0c-1.381,0-2.5-1.119-2.5-2.5v-14c0-1.381,1.119-2.5,2.5-2.5l0,0c1.381,0,2.5,1.119,2.5,2.5V175.244z
		"/>
	<path display="inline" fill="#BD912D" stroke="#000000" stroke-width="0.5" stroke-miterlimit="10" d="M285.066,175.244
		c0,1.381-1.119,2.5-2.5,2.5l0,0c-1.381,0-2.5-1.119-2.5-2.5v-14c0-1.381,1.119-2.5,2.5-2.5l0,0c1.381,0,2.5,1.119,2.5,2.5V175.244z
		"/>
	<path display="inline" fill="#BD912D" stroke="#000000" stroke-width="0.5" stroke-miterlimit="10" d="M264.771,94.98
		c0,0,4.828,18.15-0.615,18.315c-4.248,0.129-6.045-15.148-6.045-15.148L264.771,94.98"/>
	<path display="inline" fill="#BD912D" stroke="#000000" stroke-width="0.5" stroke-miterlimit="10" d="M283.848,93.333
		c0,0-0.945,22.848,3.678,21.119c3.607-1.348,2.488-19.78,2.488-19.78L283.848,93.333"/>
	<path display="inline" fill="#1A1A1A" stroke="#000000" stroke-miterlimit="10" d="M263.529,174.578c0,0,1.967-0.426,4.396-0.061
		c2.431,0.363,2.142-0.857,2.142,1.57c0,2.427,0,9.354,0,9.354s-2.492,0.752-6.722,1.943c-16.805,4.736-12.405-5.441-12.163-8.479
		c0.243-3.037,10.579-0.512,11.309-2.332C263.219,174.753,264.277,177.615,263.529,174.578z"/>
	<path display="inline" fill="#1A1A1A" stroke="#000000" stroke-miterlimit="10" d="M287.6,174.578c0,0-2.465-0.426-4.895-0.061
		c-2.432,0.363-2.641-0.857-2.641,1.57c0,2.427,0,9.354,0,9.354s2.99,0.752,7.219,1.943c16.807,4.736,12.654-5.441,12.412-8.479
		c-0.244-3.037-10.455-0.512-11.184-2.332C287.782,174.753,286.85,177.615,287.6,174.578z"/>
	
		<rect x="262.066" y="126.744" display="inline" fill="#BD912D" stroke="#000000" stroke-width="0.5" stroke-miterlimit="10" width="22" height="17"/>
	<rect x="261.566" y="131.244" display="inline" fill="#C1272D" width="17" height="4"/>
	<path display="inline" fill="#D7DED1" d="M260.873,133.856c0,0-6.512,19.454-5.162,29.122c0.918,6.578,20.766,0,20.766,0
		l-1.069-17.438l1.069,17.438c0,0,19.887,5.812,18.051-1.986c-1.836-7.803-9.791-30.748-9.791-30.748L260.873,133.856"/>
	
		<line display="inline" fill="none" stroke="#999999" stroke-width="0.5" stroke-miterlimit="10" x1="275.559" y1="162.52" x2="274.643" y2="147.613"/>
	<path display="inline" fill="#7CA847" d="M277.072,80.071c0,0,4.57,0.589,7.615,4.909c3.045,4.319,5.26,9.817,5.26,9.817
		l-5.178,7.352l-1.468-2.835c0,0,1.107,8.64,2.216,17.279c1.106,8.639,0.555,12.495,0.555,12.495s-7.197,0.393-13.428,0
		c-6.231-0.393-11.769,2.259-10.938-3.975c0.828-6.234,1.938-23.443,1.938-23.443l-1.605,2.749l-4.033-6.271
		c0,0,2.18-11.449,5.502-14.591c3.32-3.142,7.891-3.486,7.891-3.486s-0.971,4.32,2.769,4.713
		C277.906,85.177,277.072,80.071,277.072,80.071z"/>
	<path display="inline" fill="#BD912D" stroke="#000000" stroke-width="0.5" stroke-miterlimit="10" d="M286.031,107.844
		c0,0-13.318,24.207-8.51,25.219c4.248,0.895,11.076-20.148,11.076-20.148"/>
	<path display="inline" fill="#BD912D" stroke="#000000" stroke-width="0.5" stroke-miterlimit="10" d="M291.734,60.071
		c0,9.034-7.092,16.657-13.951,19.06c-0.73,0.256-0.734,2.508-0.734,4.688c0,1.76-1.725,2.181-2.41,2.181
		c-0.572,0-2.852,0.333-3.326-1.263c-0.69-2.332-1.016-5.319-1.744-5.59c-6.434-2.385-13.396-10.022-13.396-19.075
		c0-10.962,7.961-19.848,17.779-19.848C283.773,40.223,291.734,49.109,291.734,60.071z"/>
	<path fill="none" stroke="#000000" stroke-width="0.5" stroke-miterlimit="10" d="M271.734,70.127
		c1.184-0.417,2.842-0.153,4.131-0.153"/>
	<path fill="#333333" stroke="#000000" stroke-miterlimit="10" d="M269.592,59.745h-5.506c0,0-0.002,2.53,2.752,2.53
		S269.592,59.745,269.592,59.745z"/>
	<path fill="#333333" stroke="#000000" stroke-miterlimit="10" d="M282.441,59.745h-5.508c0,0,0,2.53,2.754,2.53
		S282.441,59.745,282.441,59.745z"/>
	<line fill="none" stroke="#000000" stroke-miterlimit="10" x1="261.566" y1="58.745" x2="270.566" y2="58.745"/>
	<line fill="none" stroke="#000000" stroke-miterlimit="10" x1="273.566" y1="58.745" x2="284.566" y2="58.745"/>
	<path display="inline" d="M282.465,82.885c0,0-1.551,3.96-0.551,9.71s1.65,11.344,1.65,11.344v4.306c0,0-3.631-9.061-3.631-14.912
		c0-7.306-0.869-12.706-0.869-12.706L282.465,82.885z"/>
	<path display="inline" d="M263.066,102.662c0,0,2.5-9.417,2.5-13.167s-1.25-6.625-1.25-6.625l2.43-1.482
		c0,0,1.441,7.551,1.094,11.637c-0.773,9.025-4.537,13.702-4.537,13.702L263.066,102.662z"/>
</g>
<path fill="#FFFFFF" stroke="#000000" stroke-miterlimit="10" d="M173.606,229.075c0,37.133-29.146,68.471-57.346,78.346
	c-3.009,1.058-3.016,10.312-3.016,19.271c0,7.229-7.092,8.959-9.914,8.959c-2.348,0-11.717,1.371-13.667-5.188
	c-2.852-9.586-4.176-21.861-7.177-22.979c-26.441-9.805-55.071-41.196-55.071-78.41c0-45.057,32.727-81.583,73.095-81.583
	C140.882,147.492,173.606,184.019,173.606,229.075z"/>
<path fill="#122E59" d="M117.798,320.818c0,0,18.865,1.836,32.697,15.67c13.832,13.832,24.998,42.408,24.998,42.408l-150.435,0.07
	c0,0,13.042-38.99,28.133-49.054c15.09-10.062,40.714-9.099,40.714-9.099L117.798,320.818L117.798,320.818z"/>
<path fill="none" stroke="#000000" stroke-miterlimit="10" d="M271.803,70.784c1.191-0.421,2.865-0.154,4.166-0.154"/>
<path fill="#343433" stroke="#000000" stroke-miterlimit="10" d="M282.604,60.042c0,1.542-1.485,2.792-3.317,2.792
	s-3.317-1.25-3.317-2.792s1.485-1.792,3.317-1.792S282.604,58.5,282.604,60.042z"/>
<path fill="#343433" stroke="#000000" stroke-miterlimit="10" d="M270.088,59.5c0,1.542-1.485,2.792-3.317,2.792
	s-3.317-1.25-3.317-2.792s1.485-1.792,3.317-1.792S270.088,57.958,270.088,59.5z"/>
<path fill="none" stroke="#000000" stroke-miterlimit="10" d="M262.592,56.307c2.211-0.528,4.29-1.179,6.644-0.615"/>
<path fill="none" stroke="#000000" stroke-miterlimit="10" d="M275.976,56.493c2.392-0.951,4.413-0.671,6.638,0.263"/>
<path fill="#1A1A1A" d="M23.345,233.684c0,0,3.383,26.061,23.486,31.145c20.102,5.086,61.426,9.154,83.762,5.086
	c22.334-4.066,34.623-17.287,41.319-22.373c6.699-5.088,6.699-18.229,6.699-18.229L23.345,233.684z"/>
<path fill="#122E59" d="M1.635,193.293c-0.037-24.644,41.398-63.808,52.952-72.294c12.366-9.084,28.364-22.535,46.961-22.973
	c36.21-0.854,88.235,65.095,93.817,71.198s12.287,22.376,0,38.65c-12.288,16.274-29.935,50.857-99.286,50.857
	C26.724,258.73,1.66,211.08,1.635,193.293z"/>
<path fill="#122E59" d="M-69.358,273.776c0,0,19.72,2.104,34.179,16.562s26.131,44.422,26.131,44.422l-157.252,0.121
	c0,0,13.633-40.918,29.408-51.436c15.774-10.518,42.56-9.671,42.56-9.671L-69.358,273.776L-69.358,273.776z"/>
</svg>
