<?xml version="1.0" encoding="utf-8"?>
<!-- Generator: Adobe Illustrator 16.0.0, SVG Export Plug-In . SVG Version: 6.00 Build 0)  -->
<!DOCTYPE svg PUBLIC "-//W3C//DTD SVG 1.0//EN" "http://www.w3.org/TR/2001/REC-SVG-20010904/DTD/svg10.dtd">
<svg version="1.0" id="Layer_1" xmlns="http://www.w3.org/2000/svg" xmlns:xlink="http://www.w3.org/1999/xlink" x="0px" y="0px"
	 width="406px" height="377px" viewBox="0 0 406 377" enable-background="new 0 0 406 377" xml:space="preserve">
<path fill="#666666" stroke="#000000" stroke-miterlimit="10" d="M200.371,209.569c0,0-22.408,44.129-33.389,34.888
	c-8.57-7.211,14.742-40.374,14.742-40.374L200.371,209.569"/>
<path fill="#666666" stroke="#000000" stroke-miterlimit="10" d="M251.604,204.352c0,0,17.707,37.887,27.064,29.607
	c7.302-6.46-11.399-34.79-11.399-34.79L251.604,204.352"/>
<rect x="193" y="278.5" fill="#666666" stroke="#000000" stroke-miterlimit="10" width="55" height="48"/>
<rect x="193.5" y="292" fill="#C1272D" width="44" height="12"/>
<path fill="#D7DED1" d="M191.375,300.311c0,0-17.16,51.267-13.604,76.746c18.769,0.595,54.722,0,54.722,0l-2.82-45.956l2.82,45.956
	c0,0,31.219,1.561,47.867-1.209c-4.838-20.558-26.1-85.058-26.1-85.058L191.375,300.311"/>
<line fill="none" stroke="#999999" stroke-miterlimit="10" x1="224.104" y1="375.705" x2="221.485" y2="333.021"/>
<path fill="#7CA847" d="M233.066,158.574c0,0,12.039,1.553,20.065,12.936c8.024,11.384,13.862,25.871,13.862,25.871l-13.646,19.373
	l-1.744-12.402c0,0,4.396,28.576-4.283,51.463c-8.139,21.461,9.459,31.929,9.459,31.929s-18.966,1.033-35.384,0
	c-16.419-1.033-31.013,5.949-28.823-10.478c2.189-16.429,5.107-61.775,5.107-61.775l-4.23,7.244l-10.632-16.525
	c0,0,5.745-30.171,14.5-38.451c8.756-8.278,20.794-9.184,20.794-9.184s-2.556,11.383,7.294,12.418
	C235.256,172.027,233.066,158.574,233.066,158.574z"/>
<path fill="#666666" stroke="#000000" stroke-miterlimit="10" d="M280.561,229.563c0,0,29.58-96.778,13.77-92.271
	c-13.974,3.983-24.594,80.536-24.594,80.536"/>
<path fill="#666666" stroke="#000000" stroke-miterlimit="10" d="M164.432,242.866c0,0-29.579-96.777-13.77-92.271
	c13.975,3.983,24.596,80.537,24.596,80.537"/>
<path fill="#666666" stroke="#000000" stroke-miterlimit="10" d="M272.701,105.867c0,23.808-18.687,43.898-36.765,50.229
	c-1.929,0.675-1.934,6.61-1.934,12.354c0,4.637-4.546,5.745-6.354,5.745c-1.506,0-7.512,0.879-8.762-3.325
	c-1.828-6.146-2.678-14.019-4.602-14.732c-16.95-6.285-35.306-26.411-35.306-50.27c0-28.886,20.98-52.302,46.86-52.302
	C251.722,53.565,272.701,76.981,272.701,105.867z"/>
<path fill="none" stroke="#000000" stroke-miterlimit="10" d="M219.997,132.371c3.116-1.099,7.487-0.403,10.883-0.403"/>
<path fill="#333333" stroke="#000000" stroke-miterlimit="10" d="M214.352,102.5H199.84c0,0-0.001,6.667,7.256,6.667
	C214.354,109.167,214.352,102.5,214.352,102.5z"/>
<path fill="#333333" stroke="#000000" stroke-miterlimit="10" d="M248.213,102.5H233.7c0,0-0.001,6.667,7.258,6.667
	C248.214,109.167,248.213,102.5,248.213,102.5z"/>
<line fill="#333333" stroke="#000000" stroke-miterlimit="10" x1="191.5" y1="100.5" x2="220.5" y2="100.5"/>
<line fill="#333333" stroke="#000000" stroke-miterlimit="10" x1="226.5" y1="100.5" x2="255.5" y2="100.5"/>
<path fill="#FFFFFF" stroke="#000000" stroke-miterlimit="10" d="M215.271,138.823c0,26.061-20.456,48.054-40.246,54.985
	c-2.111,0.739-2.117,7.235-2.117,13.523c0,5.076-4.977,6.289-6.956,6.289c-1.648,0-8.224,0.961-9.591-3.641
	c-2.002-6.729-2.932-15.346-5.037-16.127c-18.558-6.881-38.65-28.913-38.65-55.03c0-31.622,22.968-57.257,51.299-57.257
	C192.305,81.566,215.271,107.201,215.271,138.823z"/>
<path fill="#1A1A1A" d="M111.209,143.763c0,0,2.271,17.497,15.769,20.912c13.496,3.413,41.239,6.145,56.236,3.413
	c14.994-2.73,23.245-11.607,27.741-15.021c4.498-3.416,4.498-12.239,4.498-12.239L111.209,143.763z"/>
<path fill="#122E59" d="M96.634,116.646c-0.024-16.546,27.794-42.841,35.551-48.538c8.302-6.1,19.043-15.131,31.53-15.425
	c24.311-0.572,59.239,43.704,62.987,47.803c3.747,4.097,8.249,15.022,0,25.949c-8.25,10.926-20.098,34.144-66.659,34.144
	C113.478,160.579,96.65,128.587,96.634,116.646z"/>
<path fill="#FFFFFF" stroke="#000000" stroke-miterlimit="10" d="M113.146,282.054c0,0,49.88-20.878,40.71-27.329
	c-9.166-6.451-40.665,11.632-40.665,11.632"/>
<path fill="#FFFFFF" stroke="#000000" stroke-miterlimit="10" d="M213.33,242.438c0,0,16.995,42.51,3.376,43.781
	c-10.627,0.993-19.245-35.152-19.245-35.152L213.33,242.438"/>
<path fill="#FFFFFF" stroke="#000000" stroke-miterlimit="10" d="M111.227,246.082c0,0-11.106,44.413,2.559,43.838
	c10.665-0.448,14.33-37.428,14.33-37.428L111.227,246.082"/>
<path fill="#FFFFFF" stroke="#000000" stroke-miterlimit="10" d="M209.141,274.869c0,0,44.358-30.92,44.893-19.723
	c0.534,11.195-31.613,28.099-31.613,28.099"/>
<path fill="#122E59" d="M176.104,203c0,0,13.24,1.395,22.948,11.102c9.707,9.708,17.543,28.412,17.543,28.412l-20.622,11.209
	l-1.335-7.372c0,0,3.532,19.435,7.062,38.851c3.529,19.417,1.765,35.311,1.765,35.311s-22.941,0.887-42.802,0.005
	s-37.512,5.076-34.865-8.935c2.648-14.01,6.179-59.902,6.179-59.902l-0.234,2.97l-20.724-8.567c0,0,9.153-29.552,19.744-36.613
	c10.591-7.062,28.574-6.469,28.574-6.469H176.104z"/>
<path fill="#0F284D" d="M128.671,318.557c0,0-3.642,30.474-4.524,39.552c-0.413,4.244-1.223,11.726-2.239,19.391
	c16.758-0.832,16.758-0.832,29.65,0.001c0.26-3.133,0.475-5.807,0.725-7.559c0.882-6.178,12.623-26.045,13.506-20.964
	S174,370.045,174,378.821c15.333-0.82,28.867-0.249,28.513-4.077c-0.821-8.859-1.686-22.533-1.686-25.766
	c0-4.628,3.526-25.769-0.003-30.201C197.293,314.344,135.069,321.004,128.671,318.557z"/>
</svg>
