<?xml version="1.0" encoding="utf-8"?>
<!-- Generator: Adobe Illustrator 15.1.0, SVG Export Plug-In . SVG Version: 6.00 Build 0)  -->
<!DOCTYPE svg PUBLIC "-//W3C//DTD SVG 1.1//EN" "http://www.w3.org/Graphics/SVG/1.1/DTD/svg11.dtd">
<svg version="1.1" id="Layer_1" xmlns="http://www.w3.org/2000/svg" xmlns:xlink="http://www.w3.org/1999/xlink" x="0px" y="0px"
	 width="406px" height="377px" viewBox="0 0 406 377" enable-background="new 0 0 406 377" xml:space="preserve">
<polygon display="none" fill="#F2F2F2" points="23,210 185,207 405.5,376.5 82.021,376.678 "/>
<polygon display="none" fill="#CCCCCC" points="22.5,210 22.5,223 69.516,377.5 82,377.5 "/>
<polygon display="none" fill="#D9D9D9" points="404.5,377 404.5,0.5 184.5,0.5 184.5,207 "/>
<polygon display="none" fill="#F2F2F2" points="23,210 185,207 405.5,376.5 82.021,376.678 "/>
<polygon display="none" fill="#CCCCCC" points="22.5,210 22.5,223 69.516,377.5 82,377.5 "/>
<polygon display="none" fill="#D9D9D9" points="404.5,377 404.5,0.5 184.5,0.5 184.5,207 "/>
<path display="none" fill="#7F5D25" stroke="#000000" stroke-width="0.5" stroke-miterlimit="10" d="M233.713,259.902
	c0,0,2.547,73.238-2.652,117.098c-9.228,0-11.894-2.166-23.903,0c-2.938-40.129,4.95-103.436,4.95-103.436"/>
<path display="none" fill="#7F5D25" stroke="#000000" stroke-width="0.5" stroke-miterlimit="10" d="M342.713,265.902
	c0,0,3.547,67.238-1.652,111.098c-9.228,0-11.894-2.166-23.903,0c-2.938-40.129,3.951-97.436,3.951-97.436"/>
<linearGradient id="SVGID_1_" gradientUnits="userSpaceOnUse" x1="-155.5" y1="437.5" x2="-140.5" y2="437.5" gradientTransform="matrix(1 0 0 1 213 -343)">
	<stop  offset="0" style="stop-color:#E6E6E6"/>
	<stop  offset="1" style="stop-color:#A6A6A6"/>
</linearGradient>
<rect x="57.5" y="0.5" display="none" fill="url(#SVGID_1_)" width="15" height="188"/>
<polygon display="none" fill="#999999" points="80.5,183 88.334,219 57.51,225.544 61,185.667 "/>
<path display="none" fill="#FFFFFF" stroke="#000000" stroke-miterlimit="10" d="M96.868,89.165
	c0,12.87-10.103,23.731-19.876,27.154c-1.042,0.365-1.045,3.573-1.045,6.679c0,2.507-2.458,3.105-3.436,3.105
	c-0.812,0-4.061,0.475-4.736-1.798c-0.988-3.323-1.447-7.579-2.487-7.964c-9.164-3.397-19.087-14.278-19.087-27.176
	c0-15.616,11.343-28.275,25.333-28.275C85.526,60.889,96.868,73.548,96.868,89.165z"/>
<path display="none" fill="#DEDEDE" stroke="#666666" stroke-miterlimit="10" d="M60.37,83.421c2.364,0.044,7.829,0.315,8.513,3.31
	c0.683,2.996-5.202,11.193-10.51,11.141c-5.308-0.053-6.778-4.572-6.778-8.67C51.595,85.103,54.747,83.316,60.37,83.421z"/>
<path display="none" fill="#DEDEDE" stroke="#666666" stroke-miterlimit="10" d="M81.916,83.631
	c-2.364,0.044-7.829,0.315-8.513,3.311c-0.683,2.995,5.202,11.192,10.51,11.14c5.308-0.052,6.778-4.571,6.778-8.67
	C90.691,85.313,87.538,83.526,81.916,83.631z"/>
<path display="none" fill="#DEDEDE" stroke="#666666" stroke-miterlimit="10" d="M68.883,86.731c0,0,2.031-0.455,4.466,0.417"/>
<path display="none" fill="none" stroke="#000000" stroke-miterlimit="10" d="M68.376,103.493c1.685-0.594,4.048-0.218,5.884-0.218"
	/>
<path display="none" fill="#122E59" d="M76.219,120.273c0,0,7.191,0.654,11.985,5.448c4.794,4.794,8.281,10.896,8.281,10.896
	l-8.152,8.16l-2.309-3.147c0,0,1.744,9.589,3.487,19.177c1.743,9.588,0.872,17.434,0.872,17.434s-11.329,0.436-21.138,0
	c-9.808-0.436-18.524,2.506-17.217-4.413c1.307-6.918,3.051-29.583,3.051-29.583l-2.527,3.051l-6.352-6.96
	c0,0,3.433-12.707,8.662-16.194c5.23-3.487,12.421-3.868,12.421-3.868s-1.526,4.794,4.357,5.23
	C77.525,125.939,76.219,120.273,76.219,120.273z"/>
<path display="none" fill="#FFFFFF" stroke="#000000" stroke-miterlimit="10" d="M47.303,140.335c0,0-4.162,22.223,2.558,21.534
	c5.244-0.537,5.957-18.874,5.957-18.874L47.303,140.335"/>
<path display="none" fill="#FFFFFF" stroke="#000000" stroke-miterlimit="10" d="M47.903,161.653c0,0,22.652,6.67,21.633,1.499
	c-1.018-5.171-16.819-7.506-16.819-7.506"/>
<path display="none" fill="#FFFFFF" stroke="#000000" stroke-miterlimit="10" d="M95.116,136.265c0,0,14.413,17.418,8.203,20.074
	c-4.847,2.073-14.36-13.62-14.36-13.62L95.116,136.265"/>
<path display="none" fill="#FFFFFF" stroke="#000000" stroke-miterlimit="10" d="M104.646,155.023c0,0-12.629,19.953-15.273,15.393
	c-2.646-4.559,7.694-16.733,7.694-16.733"/>
<path display="none" fill="#0F284D" d="M53.447,176.616c0,0-1.798,15.05-2.233,19.532c-0.437,4.481-1.771,16.276-3.078,20.637
	c-1.308,4.359-4.372,13.525-0.015,15.27c4.359,1.742,10.454,5.236,12.633,3.492c2.18-1.742,0.215-13.072,1.959-17.43
	c1.742-4.358,1.959-13.074,2.396-16.125c0.435-3.051,6.067-12.862,6.503-10.354c0.436,2.51,3.889,10.402,3.889,14.736
	s0,20.242,0,20.242s-1.385,10.306,8.641,9.4c10.026-0.902,9.659-7.438,7.916-13.104c-1.742-5.667-1.271-13.513-1.706-14.817
	c-0.437-1.309-1.29-14.172-1.29-16.455c0-2.287,1.751-12.728,0.009-14.917C87.325,174.536,56.607,177.825,53.447,176.616z"/>
<path display="none" fill="#1A1A1A" d="M48.84,232.029c0,0,2.956-0.605,6.417-0.088c3.46,0.52,5.515,0.996,5.343,2.035
	c-0.174,1.037-2.1,3.936-2.1,7.396s0,13.323,0,13.323s-3.488,2.77-9.746,2.77c-6.26,0-8.465-1.212-8.118-5.538
	c0.346-4.325,5.731-7.267,6.77-9.862C48.443,239.471,49.906,236.355,48.84,232.029z"/>
<path display="none" fill="#1A1A1A" d="M90.22,233.975c0,0-2.793-0.572-6.062-0.082c-3.27,0.49-4.199,0.285-4.035,1.269
	c0.162,0.979,0.377,4.372,0.377,7.641c0,3.271,0,12.587,0,12.587S90.004,258,95.914,258c5.912,0,5.892-1.471,5.565-5.557
	s-8.999-6.539-9.98-8.99C90.519,241.002,89.211,238.061,90.22,233.975z"/>
<path display="none" fill="#7CA847" d="M289.382,200.846c0,0,19.278,2.485,32.129,20.713c12.852,18.227,22.196,41.424,22.196,41.424
	l-21.852,31.021l-0.748-14.438c0,0-0.765,38.926,3.905,75.377c1.052,8.188,1.745,15.358,2.193,21.558
	c-38.208,0-80.187,1.062-101.044-2c3.17-31.876,6.561-82.521,6.561-82.521l-0.896,12.9l-22.904-27.764c0,0,9.2-48.312,23.221-61.566
	c14.021-13.255,33.293-14.706,33.293-14.706s-4.092,18.229,11.681,19.886C292.889,222.386,289.382,200.846,289.382,200.846z"/>
<path display="none" fill="#7F5D25" stroke="#000000" stroke-width="0.5" stroke-miterlimit="10" d="M351.244,116.452
	c0,38.118-29.921,70.287-58.867,80.425c-3.088,1.081-3.096,10.584-3.096,19.781c0,7.424-7.279,9.197-10.176,9.197
	c-2.41,0-12.027,1.406-14.027-5.324c-2.928-9.842-4.287-22.447-7.368-23.588c-27.144-10.064-56.532-42.292-56.532-80.491
	c0-46.252,33.596-83.747,75.033-83.747C317.652,32.706,351.244,70.2,351.244,116.452z"/>
<path display="none" fill="none" stroke="#000000" stroke-miterlimit="10" d="M266.854,158.89c4.99-1.76,11.989-0.646,17.43-0.646"
	/>
<path display="none" fill="#333333" stroke="#000000" stroke-miterlimit="10" d="M257.816,111H234.58
	c0,0-0.002,10.677,11.618,10.677S257.816,111,257.816,111z"/>
<path display="none" fill="#333333" stroke="#000000" stroke-miterlimit="10" d="M312.033,111h-23.235
	c0,0-0.003,10.677,11.618,10.677C312.036,121.677,312.033,111,312.033,111z"/>
<line display="none" fill="none" stroke="#000000" stroke-miterlimit="10" x1="222.5" y1="109" x2="266.5" y2="109"/>
<line display="none" fill="none" stroke="#000000" stroke-miterlimit="10" x1="278.5" y1="109" x2="323.5" y2="109"/>
<path display="none" d="M227.598,221.246c0,0,14.07,15.754,13.236,46.754s-10.557,57.982-10.557,57.982l-1.121,14.414
	c0,0,24.844-41.896,23.844-76.396s-6.361-57.984-6.361-57.984S232.514,211.908,227.598,221.246z"/>
<path display="none" d="M297.5,204.271c0,0-8,32.729-3,65.229s27.564,62.428,27.564,62.428l-0.737-27.766
	c0,0-11.905-9.971-13.866-38.316C305.5,237.501,310.225,210,310.225,210L297.5,204.271z"/>
<g>
	<path fill="#BD912D" stroke="#000000" stroke-width="0.5" stroke-miterlimit="10" d="M610.795,260.066c0,1.381-1.119,2.5-2.5,2.5
		l0,0c-1.381,0-2.5-1.119-2.5-2.5v-14c0-1.381,1.119-2.5,2.5-2.5l0,0c1.381,0,2.5,1.119,2.5,2.5V260.066z"/>
	<path fill="#BD912D" stroke="#000000" stroke-width="0.5" stroke-miterlimit="10" d="M627.795,260.066c0,1.381-1.119,2.5-2.5,2.5
		l0,0c-1.381,0-2.5-1.119-2.5-2.5v-14c0-1.381,1.119-2.5,2.5-2.5l0,0c1.381,0,2.5,1.119,2.5,2.5V260.066z"/>
	<path fill="#BD912D" stroke="#000000" stroke-width="0.5" stroke-miterlimit="10" d="M607.501,179.803
		c0,0,4.827,18.15-0.616,18.314c-4.248,0.13-6.045-15.147-6.045-15.147L607.501,179.803"/>
	<path fill="#BD912D" stroke="#000000" stroke-width="0.5" stroke-miterlimit="10" d="M626.576,178.155
		c0,0-0.944,22.848,3.679,21.118c3.606-1.348,2.488-19.779,2.488-19.779L626.576,178.155"/>
	<path fill="#1A1A1A" stroke="#000000" stroke-miterlimit="10" d="M606.258,259.4c0,0,1.967-0.426,4.396-0.062
		c2.43,0.363,2.141-0.856,2.141,1.57s0,9.354,0,9.354s-2.492,0.752-6.721,1.942c-16.806,4.735-12.405-5.44-12.163-8.479
		c0.243-3.037,10.579-0.512,11.308-2.332C605.948,259.575,607.006,262.438,606.258,259.4z"/>
	<path fill="#1A1A1A" stroke="#000000" stroke-miterlimit="10" d="M630.328,259.4c0,0-2.465-0.426-4.896-0.062
		c-2.431,0.363-2.64-0.856-2.64,1.57s0,9.354,0,9.354s2.99,0.752,7.218,1.942c16.808,4.735,12.655-5.44,12.412-8.479
		c-0.243-3.037-10.454-0.512-11.184-2.332C630.513,259.576,629.579,262.438,630.328,259.4z"/>
	
		<rect x="604.795" y="211.566" fill="#BD912D" stroke="#000000" stroke-width="0.5" stroke-miterlimit="10" width="22" height="17"/>
	<rect x="604.295" y="216.066" fill="#C1272D" width="17" height="4"/>
	<path fill="#D7DED1" d="M603.602,218.68c0,0-6.512,19.453-5.161,29.121c0.918,6.578,20.766,0,20.766,0l-1.069-17.438l1.069,17.438
		c0,0,19.888,5.812,18.052-1.986c-1.836-7.803-9.791-30.748-9.791-30.748L603.602,218.68"/>
	
		<line fill="none" stroke="#999999" stroke-width="0.5" stroke-miterlimit="10" x1="618.287" y1="247.342" x2="617.372" y2="232.436"/>
	<path fill="#7CA847" d="M619.802,164.893c0,0,4.569,0.589,7.614,4.909c3.045,4.319,5.261,9.817,5.261,9.817l-5.179,7.352
		l-1.467-2.835c0,0,1.107,8.64,2.215,17.279s0.555,12.495,0.555,12.495s-7.197,0.393-13.428,0s-11.768,2.259-10.938-3.975
		c0.828-6.234,1.938-23.443,1.938-23.443l-1.605,2.75l-4.032-6.271c0,0,2.18-11.449,5.502-14.591
		c3.32-3.142,7.891-3.486,7.891-3.486s-0.971,4.32,2.769,4.713C620.634,170,619.802,164.893,619.802,164.893z"/>
	<path fill="#BD912D" stroke="#000000" stroke-width="0.5" stroke-miterlimit="10" d="M628.76,192.666
		c0,0-13.317,24.207-8.51,25.219c4.249,0.896,11.077-20.148,11.077-20.148"/>
	<path fill="#BD912D" stroke="#000000" stroke-width="0.5" stroke-miterlimit="10" d="M634.463,144.893
		c0,9.034-7.091,16.657-13.951,19.06c-0.729,0.256-0.733,2.508-0.733,4.688c0,1.76-1.726,2.181-2.409,2.181
		c-0.572,0-2.854,0.333-3.326-1.263c-0.692-2.332-1.017-5.319-1.745-5.59c-6.434-2.385-13.396-10.021-13.396-19.075
		c0-10.962,7.961-19.848,17.779-19.848C626.502,125.045,634.463,133.931,634.463,144.893z"/>
	<path fill="none" stroke="#000000" stroke-width="0.5" stroke-miterlimit="10" d="M614.463,154.95
		c1.185-0.417,2.842-0.153,4.131-0.153"/>
	<path fill="#333333" stroke="#000000" stroke-miterlimit="10" d="M612.32,144.567h-5.506c0,0-0.002,2.53,2.752,2.53
		S612.32,144.567,612.32,144.567z"/>
	<path fill="#333333" stroke="#000000" stroke-miterlimit="10" d="M625.17,144.567h-5.507c0,0-0.001,2.53,2.753,2.53
		S625.17,144.567,625.17,144.567z"/>
	<line fill="none" stroke="#000000" stroke-miterlimit="10" x1="604.295" y1="143.567" x2="613.295" y2="143.567"/>
	<line fill="none" stroke="#000000" stroke-miterlimit="10" x1="616.295" y1="143.567" x2="627.295" y2="143.567"/>
	<path d="M625.193,167.707c0,0-1.552,3.96-0.552,9.71s1.651,11.344,1.651,11.344v4.306c0,0-3.632-9.061-3.632-14.911
		c0-7.306-0.868-12.706-0.868-12.706L625.193,167.707z"/>
	<path d="M605.795,187.484c0,0,2.5-9.417,2.5-13.167s-1.25-6.625-1.25-6.625l2.43-1.482c0,0,1.442,7.551,1.095,11.637
		c-0.772,9.025-4.537,13.702-4.537,13.702L605.795,187.484z"/>
</g>
<g>
	<path fill="#7F5D25" stroke="#000000" stroke-width="0.5" stroke-miterlimit="10" d="M493.912,272.389c0,1.381-1.119,2.5-2.5,2.5
		l0,0c-1.381,0-2.5-1.119-2.5-2.5v-14c0-1.381,1.119-2.5,2.5-2.5l0,0c1.381,0,2.5,1.119,2.5,2.5V272.389z"/>
	<path fill="#7F5D25" stroke="#000000" stroke-width="0.5" stroke-miterlimit="10" d="M510.912,272.389c0,1.381-1.119,2.5-2.5,2.5
		l0,0c-1.381,0-2.5-1.119-2.5-2.5v-14c0-1.381,1.119-2.5,2.5-2.5l0,0c1.381,0,2.5,1.119,2.5,2.5V272.389z"/>
	<path fill="#7F5D25" stroke="#000000" stroke-width="0.5" stroke-miterlimit="10" d="M490.618,192.124
		c0,0,4.827,18.149-0.616,18.315c-4.248,0.129-6.045-15.148-6.045-15.148L490.618,192.124"/>
	<path fill="#7F5D25" stroke="#000000" stroke-width="0.5" stroke-miterlimit="10" d="M509.693,190.477
		c0,0-0.944,22.849,3.679,21.119c3.606-1.349,2.488-19.781,2.488-19.781L509.693,190.477"/>
	<path fill="#1A1A1A" stroke="#000000" stroke-miterlimit="10" d="M489.375,271.723c0,0,1.967-0.426,4.396-0.061
		c2.43,0.361,2.141-0.857,2.141,1.57c0,2.427,0,9.354,0,9.354s-2.492,0.752-6.721,1.943c-16.806,4.734-12.405-5.443-12.163-8.48
		c0.243-3.037,10.579-0.51,11.308-2.332C489.064,271.896,490.123,274.758,489.375,271.723z"/>
	<path fill="#1A1A1A" stroke="#000000" stroke-miterlimit="10" d="M513.445,271.723c0,0-2.465-0.426-4.896-0.061
		c-2.431,0.361-2.64-0.857-2.64,1.57c0,2.427,0,9.354,0,9.354s2.99,0.752,7.218,1.943c16.807,4.734,12.655-5.443,12.412-8.48
		s-10.454-0.51-11.185-2.332C513.63,271.896,512.696,274.758,513.445,271.723z"/>
	
		<rect x="487.912" y="223.889" fill="#7F5D25" stroke="#000000" stroke-width="0.5" stroke-miterlimit="10" width="22" height="17"/>
	<rect x="487.412" y="228.389" fill="#C1272D" width="17" height="4"/>
	<path fill="#D7DED1" d="M486.719,231c0,0-6.512,19.455-5.162,29.123c0.918,6.578,20.767,0,20.767,0l-1.069-17.439l1.069,17.439
		c0,0,19.888,5.812,18.052-1.988c-1.836-7.8-9.791-30.746-9.791-30.746L486.719,231"/>
	
		<line fill="none" stroke="#999999" stroke-width="0.5" stroke-miterlimit="10" x1="501.404" y1="259.664" x2="500.489" y2="244.758"/>
	<path fill="#7CA847" d="M502.919,177.214c0,0,4.569,0.589,7.614,4.909c3.045,4.319,5.261,9.816,5.261,9.816l-5.179,7.353
		l-1.467-2.835c0,0,1.107,8.641,2.215,17.279c1.106,8.639,0.555,12.496,0.555,12.496s-7.197,0.393-13.428,0
		c-6.231-0.394-11.769,2.258-10.938-3.977c0.829-6.234,1.938-23.441,1.938-23.441l-1.605,2.748l-4.033-6.271
		c0,0,2.181-11.449,5.502-14.591c3.321-3.142,7.892-3.486,7.892-3.486s-0.971,4.32,2.768,4.713
		C503.751,182.321,502.919,177.214,502.919,177.214z"/>
	<path fill="#7F5D25" stroke="#000000" stroke-width="0.5" stroke-miterlimit="10" d="M511.877,204.986
		c0,0-13.318,24.209-8.51,25.221c4.249,0.893,11.077-20.148,11.077-20.148"/>
	<path fill="#7F5D25" stroke="#000000" stroke-width="0.5" stroke-miterlimit="10" d="M517.58,157.214
		c0,9.034-7.091,16.657-13.951,19.06c-0.729,0.256-0.734,2.508-0.734,4.688c0,1.76-1.725,2.181-2.408,2.181
		c-0.572,0-2.854,0.333-3.326-1.263c-0.692-2.332-1.018-5.319-1.745-5.59c-6.434-2.385-13.396-10.022-13.396-19.075
		c0-10.962,7.961-19.848,17.779-19.848C509.619,137.366,517.58,146.252,517.58,157.214z"/>
	<path fill="none" stroke="#000000" stroke-width="0.5" stroke-miterlimit="10" d="M497.58,167.271
		c1.184-0.417,2.842-0.153,4.131-0.153"/>
	<path fill="#333333" stroke="#000000" stroke-miterlimit="10" d="M495.438,156.888h-5.506c0,0-0.002,2.53,2.752,2.53
		C495.438,159.418,495.438,156.888,495.438,156.888z"/>
	<path fill="#333333" stroke="#000000" stroke-miterlimit="10" d="M508.287,156.888h-5.507c0,0-0.001,2.53,2.753,2.53
		S508.287,156.888,508.287,156.888z"/>
	<line fill="none" stroke="#000000" stroke-miterlimit="10" x1="487.412" y1="155.888" x2="496.412" y2="155.888"/>
	<line fill="none" stroke="#000000" stroke-miterlimit="10" x1="499.412" y1="155.888" x2="510.412" y2="155.888"/>
	<path d="M508.311,180.028c0,0-1.551,3.96-0.551,9.71s1.651,11.344,1.651,11.344v4.307c0,0-3.632-9.062-3.632-14.912
		c0-7.306-0.868-12.707-0.868-12.707L508.311,180.028z"/>
	<path d="M488.912,199.805c0,0,2.5-9.416,2.5-13.167c0-3.75-1.25-6.625-1.25-6.625l2.43-1.482c0,0,1.442,7.551,1.094,11.637
		c-0.771,9.025-4.536,13.702-4.536,13.702L488.912,199.805z"/>
</g>
<g>
	<path opacity="0.8" fill="#FFFFFF" stroke="#000000" stroke-miterlimit="10" enable-background="new    " d="M-31.661,91.99
		c0,12.514-9.823,23.076-19.326,26.404c-1.014,0.355-1.017,3.475-1.017,6.494c0,2.438-2.39,3.02-3.34,3.02
		c-0.792,0-3.949,0.462-4.606-1.748c-0.961-3.23-1.407-7.369-2.418-7.745c-8.911-3.304-18.56-13.883-18.56-26.425
		c0-15.188,11.029-27.496,24.634-27.496S-31.661,76.804-31.661,91.99z"/>
	<path fill="#DEDEDE" stroke="#666666" stroke-miterlimit="10" d="M-67.151,86.404c2.299,0.043,7.614,0.307,8.278,3.22
		c0.664,2.912-5.059,10.883-10.22,10.832c-5.161-0.051-6.591-4.445-6.591-8.431C-75.685,88.04-72.619,86.303-67.151,86.404z"/>
	<path fill="#DEDEDE" stroke="#666666" stroke-miterlimit="10" d="M-46.2,86.609c-2.298,0.042-7.612,0.307-8.277,3.218
		c-0.665,2.913,5.058,10.885,10.219,10.833c5.161-0.051,6.591-4.445,6.591-8.431C-37.667,88.245-40.732,86.507-46.2,86.609z"/>
	<path fill="#DEDEDE" stroke="#666666" stroke-miterlimit="10" d="M-58.873,89.624c0,0,1.975-0.442,4.343,0.404"/>
	<path fill="none" stroke="#000000" stroke-miterlimit="10" d="M-59.367,105.922c1.639-0.577,3.937-0.212,5.722-0.212"/>
	<path fill="#C1272D" d="M-51.74,122.24c0,0,6.994,0.636,11.655,5.297c4.662,4.663,8.053,10.596,8.053,10.596l-7.927,7.934
		l-2.245-3.061c0,0,1.696,9.324,3.391,18.648c1.695,9.324,0.847,16.952,0.847,16.952s-11.016,0.424-20.554,0
		c-9.537-0.423-18.014,2.438-16.742-4.291c1.271-6.729,2.967-28.767,2.967-28.767l-2.458,2.967l-6.176-6.768
		c0,0,3.337-12.356,8.423-15.747c5.085-3.391,12.078-3.762,12.078-3.762s-1.483,4.662,4.238,5.086
		C-50.468,127.749-51.74,122.24-51.74,122.24z"/>
	<path fill="#FFFFFF" stroke="#000000" stroke-miterlimit="10" d="M-79.857,141.749c0,0-4.047,21.609,2.487,20.939
		c5.099-0.522,5.792-18.353,5.792-18.353L-79.857,141.749"/>
	<path fill="#FFFFFF" stroke="#000000" stroke-miterlimit="10" d="M-74.486,160.279c0,0,15.821-16.642,10.894-18.055
		c-4.926-1.413-13.956,11.224-13.956,11.224"/>
	<path fill="#FFFFFF" stroke="#000000" stroke-miterlimit="10" d="M-33.363,137.791c0,0,14.016,16.937,7.977,19.52
		c-4.712,2.016-13.964-13.244-13.964-13.244L-33.363,137.791"/>
	<path fill="#FFFFFF" stroke="#000000" stroke-miterlimit="10" d="M-24.095,156.032c0,0-12.282,19.401-14.854,14.967
		c-2.572-4.433,7.482-16.272,7.482-16.272"/>
</g>
<path fill="#122E59" d="M-65.218,237.205c0,0,7.191,0.652,11.985,5.447s8.28,10.896,8.28,10.896l-8.151,8.16l-2.31-3.147
	c0,0,1.744,9.59,3.487,19.178c1.743,9.588,0.872,17.435,0.872,17.435s-11.328,0.437-21.138,0
	c-9.808-0.437-18.524,2.507-17.218-4.413c1.308-6.918,3.052-29.583,3.052-29.583l-2.527,3.052l-6.352-6.961
	c0,0,3.433-12.707,8.661-16.192c5.23-3.487,12.422-3.869,12.422-3.869s-1.526,4.795,4.357,5.229
	C-63.912,242.871-65.218,237.205-65.218,237.205z"/>
<polygon fill="#F3F2F2" points="23.5,209.5 185.5,206.5 406,376 82.521,376.178 "/>
<polygon fill="#CDCCCB" points="23,209.5 23,222.5 70.016,377 82.5,377 "/>
<polygon fill="#D8D8D7" points="405,376.5 405,0 185,0 185,206.5 "/>
<polygon fill="#F3F2F2" points="23.5,209.5 185.5,206.5 406,376 82.521,376.178 "/>
<polygon fill="#CDCCCB" points="23,209.5 23,222.5 70.016,377 82.5,377 "/>
<polygon fill="#D8D8D7" points="405,376.5 405,0 185,0 185,206.5 "/>
<path fill="#7F5D25" stroke="#000000" stroke-width="0.5" stroke-miterlimit="10" d="M234.213,259.402
	c0,0,2.547,73.239-2.652,117.098c-9.228,0-11.894-2.166-23.904,0c-2.938-40.129,4.951-103.436,4.951-103.436"/>
<path fill="#7F5D25" stroke="#000000" stroke-width="0.5" stroke-miterlimit="10" d="M343.213,265.402
	c0,0,3.547,67.239-1.652,111.098c-9.228,0-11.894-2.166-23.904,0c-2.938-40.129,3.951-97.436,3.951-97.436"/>
<linearGradient id="SVGID_2_" gradientUnits="userSpaceOnUse" x1="-155" y1="355" x2="-140" y2="355" gradientTransform="matrix(1 0 0 -1 213 449)">
	<stop  offset="0" style="stop-color:#E5E5E5"/>
	<stop  offset="1" style="stop-color:#A6A5A5"/>
</linearGradient>
<rect x="58" fill="url(#SVGID_2_)" width="15" height="188"/>
<polygon fill="#989897" points="81,182.5 88.834,218.5 58.01,225.044 61.5,185.167 "/>
<path fill="#FFFFFF" stroke="#000000" stroke-miterlimit="10" d="M97.368,88.665c0,12.87-10.103,23.731-19.876,27.154
	c-1.042,0.365-1.045,3.573-1.045,6.679c0,2.507-2.458,3.105-3.437,3.105c-0.812,0-4.061,0.475-4.735-1.798
	c-0.988-3.323-1.447-7.579-2.487-7.964c-9.164-3.397-19.087-14.278-19.087-27.176c0-15.616,11.343-28.275,25.333-28.275
	C86.025,60.389,97.368,73.048,97.368,88.665z"/>
<path fill="#DFDEDD" stroke="#676767" stroke-miterlimit="10" d="M60.87,82.921c2.364,0.044,7.829,0.315,8.513,3.31
	c0.684,2.996-5.201,11.193-10.51,11.141c-5.309-0.053-6.777-4.572-6.777-8.67C52.096,84.603,55.247,82.816,60.87,82.921z"/>
<path fill="#DFDEDD" stroke="#676767" stroke-miterlimit="10" d="M82.416,83.131c-2.364,0.044-7.829,0.315-8.514,3.311
	c-0.682,2.995,5.203,11.192,10.511,11.14c5.308-0.052,6.778-4.571,6.778-8.67C91.191,84.813,88.038,83.026,82.416,83.131z"/>
<path fill="#DFDEDD" stroke="#676767" stroke-miterlimit="10" d="M69.383,86.231c0,0,2.031-0.455,4.467,0.417"/>
<path fill="none" stroke="#000000" stroke-miterlimit="10" d="M68.876,102.993c1.685-0.594,4.048-0.218,5.884-0.218"/>
<path fill="#C1272D" d="M76.719,119.773c0,0,7.191,0.654,11.985,5.448c4.794,4.794,8.28,10.896,8.28,10.896l-8.151,8.16l-2.31-3.147
	c0,0,1.744,9.589,3.487,19.177c1.743,9.588,0.872,17.434,0.872,17.434s-11.328,0.436-21.138,0
	c-9.808-0.436-18.524,2.506-17.218-4.413c1.308-6.918,3.052-29.583,3.052-29.583l-2.527,3.051l-6.352-6.96
	c0,0,3.433-12.707,8.661-16.194c5.23-3.487,12.422-3.868,12.422-3.868s-1.526,4.794,4.357,5.23
	C78.025,125.439,76.719,119.773,76.719,119.773z"/>
<path fill="#FFFFFF" stroke="#000000" stroke-miterlimit="10" d="M47.803,139.835c0,0-4.162,22.223,2.559,21.534
	c5.244-0.537,5.957-18.874,5.957-18.874L47.803,139.835"/>
<path fill="#FFFFFF" stroke="#000000" stroke-miterlimit="10" d="M48.402,161.153c0,0,22.652,6.67,21.634,1.499
	c-1.019-5.171-16.819-7.506-16.819-7.506"/>
<path fill="#FFFFFF" stroke="#000000" stroke-miterlimit="10" d="M95.616,135.765c0,0,14.413,17.418,8.202,20.074
	c-4.846,2.073-14.359-13.62-14.359-13.62L95.616,135.765"/>
<path fill="#FFFFFF" stroke="#000000" stroke-miterlimit="10" d="M105.146,154.523c0,0-12.629,19.953-15.273,15.393
	c-2.646-4.559,7.693-16.733,7.693-16.733"/>
<path fill="#13294C" d="M53.947,176.116c0,0-1.799,15.05-2.233,19.532c-0.437,4.482-1.771,16.277-3.078,20.637
	s-4.372,13.525-0.015,15.27c4.359,1.742,10.454,5.236,12.633,3.492c2.18-1.742,0.215-13.072,1.959-17.43
	c1.742-4.358,1.959-13.074,2.396-16.125c0.435-3.051,6.066-12.862,6.502-10.354c0.437,2.51,3.89,10.403,3.89,14.737
	s0,20.242,0,20.242s-1.385,10.306,8.642,9.401c10.025-0.903,9.658-7.439,7.916-13.105c-1.742-5.667-1.271-13.512-1.707-14.818
	c-0.437-1.308-1.289-14.171-1.289-16.455c0-2.287,1.75-12.727,0.008-14.917C87.825,174.036,57.107,177.325,53.947,176.116z"/>
<path fill="#1A1A1A" d="M49.34,231.529c0,0,2.956-0.605,6.417-0.088c3.46,0.52,5.515,0.996,5.343,2.035
	c-0.174,1.037-2.1,3.936-2.1,7.396s0,13.323,0,13.323s-3.488,2.77-9.746,2.77c-6.26,0-8.465-1.212-8.117-5.538
	c0.346-4.325,5.73-7.267,6.77-9.862C48.943,238.971,50.406,235.855,49.34,231.529z"/>
<path fill="#1A1A1A" d="M90.721,233.475c0,0-2.794-0.572-6.062-0.082c-3.27,0.49-4.199,0.285-4.035,1.268
	c0.162,0.98,0.377,4.372,0.377,7.641c0,3.27,0,12.586,0,12.586s9.504,2.613,15.414,2.613c5.912,0,5.893-1.471,5.564-5.557
	c-0.326-4.086-8.998-6.539-9.979-8.99C91.02,240.502,89.711,237.561,90.721,233.475z"/>
<path fill="#7BA745" d="M289.882,200.346c0,0,19.278,2.485,32.129,20.713c12.851,18.226,22.196,41.424,22.196,41.424l-21.852,31.021
	l-0.748-14.438c0,0-0.764,38.926,3.906,75.378c1.051,8.188,1.745,15.358,2.193,21.557c-38.208,0-80.186,1.062-101.044-2
	c3.17-31.876,6.56-82.521,6.56-82.521l-0.896,12.901l-22.904-27.764c0,0,9.2-48.312,23.221-61.566
	c14.02-13.255,33.293-14.706,33.293-14.706s-4.092,18.229,11.68,19.885C293.389,221.886,289.882,200.346,289.882,200.346z"/>
<path fill="#7F5D25" stroke="#000000" stroke-width="0.5" stroke-miterlimit="10" d="M351.744,115.952
	c0,38.118-29.921,70.287-58.867,80.425c-3.088,1.081-3.096,10.584-3.096,19.781c0,7.424-7.279,9.197-10.176,9.197
	c-2.41,0-12.027,1.406-14.027-5.324c-2.928-9.842-4.287-22.447-7.368-23.588c-27.144-10.064-56.532-42.291-56.532-80.491
	c0-46.252,33.596-83.747,75.033-83.747C318.152,32.206,351.744,69.7,351.744,115.952z"/>
<path fill="none" stroke="#000000" stroke-miterlimit="10" d="M267.354,158.39c4.99-1.76,11.989-0.646,17.429-0.646"/>
<path d="M228.098,220.746c0,0,14.07,15.754,13.236,46.754s-10.557,57.983-10.557,57.983l-1.121,14.413
	c0,0,24.844-41.896,23.844-76.396s-6.361-57.984-6.361-57.984S233.014,211.408,228.098,220.746z"/>
<path d="M298,203.771c0,0-8,32.729-3,65.229s27.564,62.428,27.564,62.428l-0.737-27.766c0,0-11.905-9.971-13.866-38.316
	c-1.961-28.345,2.764-55.846,2.764-55.846L298,203.771z"/>
<ellipse fill="#343433" stroke="#000000" stroke-miterlimit="10" cx="300.916" cy="110.5" rx="8.863" ry="10.919"/>
<ellipse fill="#343433" stroke="#000000" stroke-miterlimit="10" cx="245.916" cy="110" rx="8.863" ry="10.919"/>
<path fill="none" stroke="#000000" stroke-width="2" stroke-miterlimit="10" d="M235.589,88.229
	c3.52-9.564,12.013-7.899,22.641-3.486"/>
<path fill="none" stroke="#000000" stroke-width="2" stroke-miterlimit="10" d="M290.912,98.333c10.004-8.163,20.694-8.488,24.667,3
	"/>
<path fill="#FFFFFF" stroke="#231F20" stroke-width="3" stroke-miterlimit="10" d="M322.064,50.31
	c0,21.936-46.09,39.719-102.941,39.719c-29.397,0-55.917-4.755-74.675-12.379c-7.287-2.962-34.424,13.249-39.823,10.726
	C102,87.148,113.401,79.693,118.25,72c3.198-5.074,1.243-11.587,0.554-12.743c-1.716-2.876-2.623-5.871-2.623-8.948
	c0-21.936,46.088-39.719,102.941-39.719C275.977,10.591,322.064,28.374,322.064,50.31z"/>
<path display="none" fill="#1A1A1A" d="M47.509,80.502c0,0-0.327-3.105,1.471-1.961s3.923,3.105,7.191,2.942
	c3.269-0.163,10.787-4.903,15.363-4.903c4.577,0,12.095,4.913,15.854,4.913c3.759,0,6.637-4.896,7.297-3.157
	c0.354,0.929,0.926,2.014,0.926,2.014l4.362-5.24c0,0-13.565-5.721-28.439-5.721c-14.873,0-28.111,6.052-28.111,6.052L47.509,80.502
	z"/>
<path display="none" fill="#122E59" d="M43.423,76.094c0,0-3.923-4.091-3.923-9.321s8.009-7.191,13.565-11.277
	c5.558-4.086,12.259-9.807,18.469-9.807c6.211,0,10.624,6.047,14.547,8.172s14.22,5.721,16.834,10.624
	c2.615,4.903-2.941,11.277-2.941,11.277s-16.181-5.721-28.439-5.721C59.276,70.042,43.423,76.094,43.423,76.094z"/>
<path display="none" fill="#FFE9AD" stroke="#000000" stroke-miterlimit="10" d="M65.65,55.332c0,0,1.635,1.144,3.105,1.144
	c1.472,0,2.697-1.144,2.697-1.144s1.348,1.144,2.819,1.144s2.962-1.144,2.962-1.144s0.174,3.432-1.134,6.047
	c-1.308,2.615-4.649,5.557-4.649,5.557s-2.692-1.992-4.493-4.903C65.54,59.739,65.65,55.332,65.65,55.332z"/>
</svg>
