<?xml version="1.0" encoding="utf-8"?>
<!-- Generator: Adobe Illustrator 16.0.0, SVG Export Plug-In . SVG Version: 6.00 Build 0)  -->
<!DOCTYPE svg PUBLIC "-//W3C//DTD SVG 1.0//EN" "http://www.w3.org/TR/2001/REC-SVG-20010904/DTD/svg10.dtd">
<svg version="1.0" id="Layer_1" xmlns="http://www.w3.org/2000/svg" xmlns:xlink="http://www.w3.org/1999/xlink" x="0px" y="0px"
	 width="406px" height="377px" viewBox="0 0 406 377" enable-background="new 0 0 406 377" xml:space="preserve">
<path fill="#666666" stroke="#000000" stroke-miterlimit="10" d="M62.58,289.829c0,0,13.171,59.577,10.933,86.19
	C70,377,66.414,377.55,58.34,376.996c-6.959-25.678-8.729-73.129-8.729-73.129"/>
<path fill="#666666" stroke="#000000" stroke-miterlimit="10" d="M154.58,279.079c0,0,15.556,77.421,9.982,98.421
	c-5.562,0-5.562,0-10.131,0c-10.385-19-12.82-84.258-12.82-84.258"/>
<path fill="#7CA847" d="M118.494,239.471c0,0,16.369,2.11,27.282,17.588c10.909,15.477,18.847,35.175,18.847,35.175l-23.485,26.34
	l-0.324-10.161c0,0,3.972,38.621,7.937,69.572c-37.845,0-51.26-0.435-82.336-0.435c2.976-22.337,2.325-60.695,2.325-60.695
	l0.823,9.849l-19.388-22.468c0,0,7.812-41.021,19.716-52.278c11.904-11.257,28.27-12.486,28.27-12.486s-3.473,15.477,9.918,16.885
	C121.471,257.762,118.494,239.471,118.494,239.471z"/>
<path fill="#666666" stroke="#000000" stroke-miterlimit="10" d="M171.022,167.811c0,32.367-25.405,59.682-49.985,68.29
	c-2.622,0.919-2.628,8.987-2.628,16.796c0,6.306-6.182,7.811-8.64,7.811c-2.048,0-10.215,1.195-11.913-4.521
	c-2.486-8.356-3.64-19.06-6.255-20.028c-23.048-8.547-48.004-35.909-48.004-68.348c0-39.273,28.527-71.109,63.713-71.109
	C142.498,96.701,171.022,128.537,171.022,167.811z"/>
<path fill="none" stroke="#000000" stroke-miterlimit="10" d="M99.365,203.846c4.238-1.493,10.181-0.547,14.799-0.547"/>
<path fill="#333333" stroke="#000000" stroke-miterlimit="10" d="M91.691,163.5H71.96c0,0,0,9.065,9.866,9.065
	S91.691,163.5,91.691,163.5z"/>
<path fill="#333333" stroke="#000000" stroke-miterlimit="10" d="M137.728,163.5h-19.729c0,0-0.001,9.065,9.865,9.065
	S137.728,163.5,137.728,163.5z"/>
<line fill="#333333" stroke="#000000" stroke-miterlimit="10" x1="60.5" y1="161.5" x2="99.5" y2="161.5"/>
<line fill="#333333" stroke="#000000" stroke-miterlimit="10" x1="110.5" y1="161.5" x2="147.5" y2="161.5"/>
<path opacity="0.8" fill="#FFFFFF" stroke="#000000" stroke-miterlimit="10" d="M356.091,139.885
	c0,16.701-13.109,30.796-25.792,35.238c-1.354,0.474-1.356,4.637-1.356,8.667c0,3.253-3.19,4.03-4.458,4.03
	c-1.057,0-5.271,0.617-6.147-2.333c-1.282-4.312-1.878-9.834-3.228-10.335c-11.893-4.409-24.77-18.529-24.77-35.267
	c0-20.265,14.72-36.693,32.876-36.693S356.091,119.62,356.091,139.885z"/>
<path fill="#1A1A1A" d="M289.401,143.051c0,0,1.456,11.213,10.105,13.401c8.648,2.188,26.429,3.938,36.039,2.188
	c9.609-1.75,14.897-7.438,17.778-9.627c2.883-2.189,2.883-7.843,2.883-7.843L289.401,143.051z"/>
<path fill="#122E59" d="M280.061,125.672c-0.016-10.603,17.812-27.454,22.783-31.106c5.321-3.908,12.204-9.696,20.206-9.884
	c15.58-0.367,37.964,28.008,40.366,30.634s5.287,9.628,0,16.63c-5.287,7.002-12.879,21.882-42.719,21.882
	C290.855,153.828,280.071,133.326,280.061,125.672z"/>
<path fill="#122E59" d="M330.99,181c0,0,8.485,0.9,14.706,7.122c6.222,6.221,11.243,18.211,11.243,18.211l-13.216,7.186
	l-0.855-4.725c0,0,2.264,12.456,4.525,24.898c2.262,12.443,1.131,22.63,1.131,22.63s-14.702,0.568-27.43,0.003
	s-24.04,3.254-22.344-5.725c1.697-8.979,3.96-38.391,3.96-38.391l-0.15,1.903l-13.281-5.49c0,0,5.866-18.945,12.653-23.471
	S320.244,181,320.244,181H330.99z"/>
<path fill="#FFFFFF" stroke="#000000" stroke-miterlimit="10" d="M354.847,206.288c0,0,10.892,27.243,2.163,28.058
	c-6.811,0.637-12.333-22.527-12.333-22.527L354.847,206.288"/>
<path fill="#FFFFFF" stroke="#000000" stroke-miterlimit="10" d="M360.167,228.48c0,0-5.411,34.228-10.822,29.501
	c-5.41-4.726,1.056-27.085,1.056-27.085"/>
<path fill="#FFFFFF" stroke="#000000" stroke-miterlimit="10" d="M289.413,208.623c0,0-7.118,28.463,1.64,28.095
	c6.834-0.288,9.183-23.986,9.183-23.986L289.413,208.623"/>
<path fill="#FFFFFF" stroke="#000000" stroke-miterlimit="10" d="M286.149,229.777c0,0,6.637,34.013,11.874,29.095
	c5.237-4.917-2.028-27.029-2.028-27.029"/>
<path fill="#0F284D" d="M300.592,255.069c0,0-2.334,19.529-2.898,25.348c-0.566,5.817-2.298,21.124-3.994,26.78
	c-1.697,5.656-5.674,17.553-0.019,19.814c5.656,2.262,13.565,6.796,16.393,4.533c2.829-2.263,0.278-16.964,2.542-22.62
	c2.262-5.655,2.543-16.965,3.108-20.925c0.565-3.959,8.02-16.691,8.585-13.436c0.566,3.257,5.191,13.502,5.191,19.126
	s0,26.269,0,26.269s-1.94,13.373,11.068,12.201c13.01-1.173,12.463-9.655,10.201-17.009c-2.262-7.353-1.688-17.534-2.253-19.23
	c-0.565-1.697-1.691-18.389-1.691-21.355c0-2.966,2.264-16.514,0.002-19.354C344.564,252.37,304.692,256.638,300.592,255.069z"/>
<path fill="#1A1A1A" d="M294.612,327.828c0,0,3.836-0.787,8.328-0.113c4.49,0.674,7.332,1.292,7.107,2.639
	c-0.225,1.348-2.548,5.109-2.548,9.6c0,4.491,0,17.29,0,17.29s-4.703,3.594-12.824,3.594s-11.072-1.572-10.623-7.186
	c0.449-5.614,7.396-9.432,8.742-12.8C294.143,337.483,295.997,333.441,294.612,327.828z"/>
<path fill="#1A1A1A" d="M349.526,327.828c0,0-3.836-0.787-8.327-0.113c-4.49,0.674-7.901,1.292-7.678,2.639
	c0.225,1.348,1.979,5.109,1.979,9.6c0,4.491,0,17.29,0,17.29s5.273,3.594,13.395,3.594s11.356-1.572,10.907-7.186
	c-0.449-5.614-7.253-9.432-8.599-12.8C349.855,337.483,348.143,333.441,349.526,327.828z"/>
</svg>
